%
M48
M72
T01C0.02362
T02C0.03150
T03C0.03937
T04C0.04000
%
T01
X38667Y45000
X36667Y66000
X32667Y81000
X50667Y90000
X72667Y98000
X81667Y108000
X85667Y95000
X105667Y90000
X113667Y88000
X84667Y140000
X98667Y148000
X158667Y129000
X165667Y129000
X190667Y142000
X20667Y120000
T02
X135139Y68260
X135139Y54323
X165139Y54323
X165139Y67472
T03
X124667Y34000
X114667Y34000
X104667Y34000
X94667Y34000
X91887Y225000
X101730Y225000
X109604Y225000
X119446Y225000
T04
X135667Y190000
X145667Y190000
X155667Y190000
X165667Y190000
X175667Y190000
X185667Y190000
X75667Y190000
X65667Y190000
X55667Y190000
X45667Y190000
X35667Y190000
X25667Y190000
M30
