G75*
%MOIN*%
%OFA0B0*%
%FSLAX25Y25*%
%IPPOS*%
%LPD*%
%AMOC8*
5,1,8,0,0,1.08239X$1,22.5*
%
%ADD10R,0.05512X0.07087*%
%ADD11R,0.07480X0.05512*%
%ADD12R,0.05906X0.03150*%
%ADD13R,0.03937X0.04331*%
%ADD14R,0.04331X0.03937*%
%ADD15R,0.03937X0.03937*%
%ADD16R,0.05906X0.07874*%
%ADD17R,0.14961X0.07874*%
%ADD18R,0.07874X0.04724*%
D10*
X0086092Y0045488D03*
X0086092Y0067929D03*
D11*
X0030383Y0022457D03*
X0034320Y0074228D03*
D12*
X0045541Y0071118D03*
X0045541Y0066787D03*
X0044753Y0062457D03*
X0045541Y0058126D03*
X0044753Y0053795D03*
X0045541Y0049465D03*
X0047115Y0045134D03*
X0045541Y0040803D03*
D13*
X0098667Y0092654D03*
X0098667Y0099346D03*
X0113667Y0149654D03*
X0113667Y0156346D03*
X0141667Y0220654D03*
X0141667Y0227346D03*
X0069667Y0227346D03*
X0069667Y0220654D03*
X0019667Y0155346D03*
X0019667Y0148654D03*
X0020667Y0132346D03*
X0020667Y0125654D03*
X0185667Y0098346D03*
X0185667Y0091654D03*
X0190667Y0126654D03*
X0190667Y0133346D03*
D14*
X0143013Y0083000D03*
X0136320Y0083000D03*
X0105013Y0108000D03*
X0098320Y0108000D03*
X0106320Y0132000D03*
X0113013Y0132000D03*
D15*
X0152517Y0217126D03*
X0158816Y0217126D03*
X0158816Y0232874D03*
X0152517Y0232874D03*
X0177517Y0232874D03*
X0183816Y0232874D03*
X0183816Y0217126D03*
X0177517Y0217126D03*
X0058816Y0217126D03*
X0052517Y0217126D03*
X0052517Y0232874D03*
X0058816Y0232874D03*
X0031816Y0232874D03*
X0025517Y0232874D03*
X0025517Y0217126D03*
X0031816Y0217126D03*
D16*
X0096612Y0207402D03*
X0105667Y0207402D03*
X0114722Y0207402D03*
D17*
X0105667Y0182598D03*
D18*
X0120139Y0147717D03*
X0120139Y0139843D03*
X0120139Y0131969D03*
X0120139Y0124094D03*
X0120139Y0116220D03*
X0120139Y0108346D03*
X0120139Y0100472D03*
X0120139Y0092598D03*
X0091194Y0092598D03*
X0091194Y0100472D03*
X0091194Y0108346D03*
X0091194Y0116220D03*
X0091194Y0124094D03*
X0091194Y0131969D03*
X0091194Y0139843D03*
X0091194Y0147717D03*
X0032139Y0147717D03*
X0032139Y0139843D03*
X0032139Y0131969D03*
X0032139Y0124094D03*
X0032139Y0116220D03*
X0032139Y0108346D03*
X0032139Y0100472D03*
X0032139Y0092598D03*
X0179194Y0092598D03*
X0179194Y0100472D03*
X0179194Y0108346D03*
X0179194Y0116220D03*
X0179194Y0124094D03*
X0179194Y0131969D03*
X0179194Y0139843D03*
X0179194Y0147717D03*
M02*
