G75*
%MOIN*%
%OFA0B0*%
%FSLAX25Y25*%
%IPPOS*%
%LPD*%
%AMOC8*
5,1,8,0,0,1.08239X$1,22.5*
%
%ADD10R,0.00880X0.00040*%
%ADD11R,0.01760X0.00040*%
%ADD12R,0.00760X0.00040*%
%ADD13R,0.00400X0.00040*%
%ADD14R,0.02400X0.00040*%
%ADD15R,0.01720X0.00040*%
%ADD16R,0.00800X0.00040*%
%ADD17R,0.02800X0.00040*%
%ADD18R,0.02360X0.00040*%
%ADD19R,0.01120X0.00040*%
%ADD20R,0.03200X0.00040*%
%ADD21R,0.02800X0.00040*%
%ADD22R,0.01280X0.00040*%
%ADD23R,0.03560X0.00040*%
%ADD24R,0.03160X0.00040*%
%ADD25R,0.01520X0.00040*%
%ADD26R,0.04800X0.00040*%
%ADD27R,0.03840X0.00040*%
%ADD28R,0.03520X0.00040*%
%ADD29R,0.01640X0.00040*%
%ADD30R,0.05280X0.00040*%
%ADD31R,0.04160X0.00040*%
%ADD32R,0.05600X0.00040*%
%ADD33R,0.04400X0.00040*%
%ADD34R,0.04120X0.00040*%
%ADD35R,0.01920X0.00040*%
%ADD36R,0.05880X0.00040*%
%ADD37R,0.04680X0.00040*%
%ADD38R,0.02360X0.00040*%
%ADD39R,0.04400X0.00040*%
%ADD40R,0.02000X0.00040*%
%ADD41R,0.06120X0.00040*%
%ADD42R,0.04880X0.00040*%
%ADD43R,0.00600X0.00040*%
%ADD44R,0.04640X0.00040*%
%ADD45R,0.02080X0.00040*%
%ADD46R,0.06320X0.00040*%
%ADD47R,0.05120X0.00040*%
%ADD48R,0.03200X0.00040*%
%ADD49R,0.00920X0.00040*%
%ADD50R,0.02200X0.00040*%
%ADD51R,0.06520X0.00040*%
%ADD52R,0.05360X0.00040*%
%ADD53R,0.01160X0.00040*%
%ADD54R,0.05080X0.00040*%
%ADD55R,0.02280X0.00040*%
%ADD56R,0.06680X0.00040*%
%ADD57R,0.05520X0.00040*%
%ADD58R,0.01360X0.00040*%
%ADD59R,0.05320X0.00040*%
%ADD60R,0.06800X0.00040*%
%ADD61R,0.05760X0.00040*%
%ADD62R,0.04160X0.00040*%
%ADD63R,0.01560X0.00040*%
%ADD64R,0.05480X0.00040*%
%ADD65R,0.02440X0.00040*%
%ADD66R,0.07000X0.00040*%
%ADD67R,0.05920X0.00040*%
%ADD68R,0.01680X0.00040*%
%ADD69R,0.05720X0.00040*%
%ADD70R,0.02480X0.00040*%
%ADD71R,0.07120X0.00040*%
%ADD72R,0.01800X0.00040*%
%ADD73R,0.05880X0.00040*%
%ADD74R,0.02560X0.00040*%
%ADD75R,0.07240X0.00040*%
%ADD76R,0.01920X0.00040*%
%ADD77R,0.06040X0.00040*%
%ADD78R,0.02640X0.00040*%
%ADD79R,0.07360X0.00040*%
%ADD80R,0.06480X0.00040*%
%ADD81R,0.05120X0.00040*%
%ADD82R,0.02040X0.00040*%
%ADD83R,0.06240X0.00040*%
%ADD84R,0.02680X0.00040*%
%ADD85R,0.07480X0.00040*%
%ADD86R,0.06640X0.00040*%
%ADD87R,0.05360X0.00040*%
%ADD88R,0.02120X0.00040*%
%ADD89R,0.06440X0.00040*%
%ADD90R,0.02720X0.00040*%
%ADD91R,0.07560X0.00040*%
%ADD92R,0.06800X0.00040*%
%ADD93R,0.05520X0.00040*%
%ADD94R,0.06600X0.00040*%
%ADD95R,0.02760X0.00040*%
%ADD96R,0.07680X0.00040*%
%ADD97R,0.06960X0.00040*%
%ADD98R,0.05760X0.00040*%
%ADD99R,0.06720X0.00040*%
%ADD100R,0.02840X0.00040*%
%ADD101R,0.07800X0.00040*%
%ADD102R,0.07120X0.00040*%
%ADD103R,0.05920X0.00040*%
%ADD104R,0.06840X0.00040*%
%ADD105R,0.07880X0.00040*%
%ADD106R,0.06080X0.00040*%
%ADD107R,0.02440X0.00040*%
%ADD108R,0.02920X0.00040*%
%ADD109R,0.07960X0.00040*%
%ADD110R,0.07360X0.00040*%
%ADD111R,0.06320X0.00040*%
%ADD112R,0.02520X0.00040*%
%ADD113R,0.07160X0.00040*%
%ADD114R,0.02920X0.00040*%
%ADD115R,0.08040X0.00040*%
%ADD116R,0.07520X0.00040*%
%ADD117R,0.07320X0.00040*%
%ADD118R,0.02960X0.00040*%
%ADD119R,0.08120X0.00040*%
%ADD120R,0.06640X0.00040*%
%ADD121R,0.07480X0.00040*%
%ADD122R,0.03000X0.00040*%
%ADD123R,0.08200X0.00040*%
%ADD124R,0.07760X0.00040*%
%ADD125R,0.08280X0.00040*%
%ADD126R,0.07920X0.00040*%
%ADD127R,0.02720X0.00040*%
%ADD128R,0.07720X0.00040*%
%ADD129R,0.03080X0.00040*%
%ADD130R,0.08360X0.00040*%
%ADD131R,0.08080X0.00040*%
%ADD132R,0.07120X0.00040*%
%ADD133R,0.02760X0.00040*%
%ADD134R,0.07840X0.00040*%
%ADD135R,0.03080X0.00040*%
%ADD136R,0.08440X0.00040*%
%ADD137R,0.08160X0.00040*%
%ADD138R,0.07200X0.00040*%
%ADD139R,0.07960X0.00040*%
%ADD140R,0.08520X0.00040*%
%ADD141R,0.08320X0.00040*%
%ADD142R,0.08080X0.00040*%
%ADD143R,0.03120X0.00040*%
%ADD144R,0.08560X0.00040*%
%ADD145R,0.08400X0.00040*%
%ADD146R,0.07520X0.00040*%
%ADD147R,0.08600X0.00040*%
%ADD148R,0.11520X0.00040*%
%ADD149R,0.08720X0.00040*%
%ADD150R,0.08640X0.00040*%
%ADD151R,0.07760X0.00040*%
%ADD152R,0.02960X0.00040*%
%ADD153R,0.11560X0.00040*%
%ADD154R,0.08760X0.00040*%
%ADD155R,0.08720X0.00040*%
%ADD156R,0.07920X0.00040*%
%ADD157R,0.11640X0.00040*%
%ADD158R,0.08800X0.00040*%
%ADD159R,0.08880X0.00040*%
%ADD160R,0.08040X0.00040*%
%ADD161R,0.11680X0.00040*%
%ADD162R,0.08840X0.00040*%
%ADD163R,0.08960X0.00040*%
%ADD164R,0.03040X0.00040*%
%ADD165R,0.11720X0.00040*%
%ADD166R,0.08920X0.00040*%
%ADD167R,0.09040X0.00040*%
%ADD168R,0.08320X0.00040*%
%ADD169R,0.11840X0.00040*%
%ADD170R,0.08960X0.00040*%
%ADD171R,0.09200X0.00040*%
%ADD172R,0.08400X0.00040*%
%ADD173R,0.11880X0.00040*%
%ADD174R,0.09000X0.00040*%
%ADD175R,0.09280X0.00040*%
%ADD176R,0.08520X0.00040*%
%ADD177R,0.03120X0.00040*%
%ADD178R,0.11920X0.00040*%
%ADD179R,0.09040X0.00040*%
%ADD180R,0.09360X0.00040*%
%ADD181R,0.08640X0.00040*%
%ADD182R,0.11960X0.00040*%
%ADD183R,0.09080X0.00040*%
%ADD184R,0.09480X0.00040*%
%ADD185R,0.08720X0.00040*%
%ADD186R,0.12040X0.00040*%
%ADD187R,0.09120X0.00040*%
%ADD188R,0.09600X0.00040*%
%ADD189R,0.12080X0.00040*%
%ADD190R,0.09160X0.00040*%
%ADD191R,0.09680X0.00040*%
%ADD192R,0.03160X0.00040*%
%ADD193R,0.12120X0.00040*%
%ADD194R,0.09200X0.00040*%
%ADD195R,0.09760X0.00040*%
%ADD196R,0.12160X0.00040*%
%ADD197R,0.09240X0.00040*%
%ADD198R,0.09840X0.00040*%
%ADD199R,0.12200X0.00040*%
%ADD200R,0.09920X0.00040*%
%ADD201R,0.12280X0.00040*%
%ADD202R,0.10040X0.00040*%
%ADD203R,0.12320X0.00040*%
%ADD204R,0.09320X0.00040*%
%ADD205R,0.10160X0.00040*%
%ADD206R,0.09480X0.00040*%
%ADD207R,0.03240X0.00040*%
%ADD208R,0.12360X0.00040*%
%ADD209R,0.10240X0.00040*%
%ADD210R,0.03240X0.00040*%
%ADD211R,0.12400X0.00040*%
%ADD212R,0.09400X0.00040*%
%ADD213R,0.10320X0.00040*%
%ADD214R,0.09680X0.00040*%
%ADD215R,0.12440X0.00040*%
%ADD216R,0.10400X0.00040*%
%ADD217R,0.12480X0.00040*%
%ADD218R,0.09440X0.00040*%
%ADD219R,0.10480X0.00040*%
%ADD220R,0.12520X0.00040*%
%ADD221R,0.10560X0.00040*%
%ADD222R,0.09920X0.00040*%
%ADD223R,0.12560X0.00040*%
%ADD224R,0.10640X0.00040*%
%ADD225R,0.12600X0.00040*%
%ADD226R,0.10720X0.00040*%
%ADD227R,0.10160X0.00040*%
%ADD228R,0.12640X0.00040*%
%ADD229R,0.09520X0.00040*%
%ADD230R,0.10800X0.00040*%
%ADD231R,0.12680X0.00040*%
%ADD232R,0.09560X0.00040*%
%ADD233R,0.10880X0.00040*%
%ADD234R,0.10320X0.00040*%
%ADD235R,0.12720X0.00040*%
%ADD236R,0.09520X0.00040*%
%ADD237R,0.10960X0.00040*%
%ADD238R,0.10400X0.00040*%
%ADD239R,0.12760X0.00040*%
%ADD240R,0.11040X0.00040*%
%ADD241R,0.12800X0.00040*%
%ADD242R,0.11120X0.00040*%
%ADD243R,0.10560X0.00040*%
%ADD244R,0.12840X0.00040*%
%ADD245R,0.12880X0.00040*%
%ADD246R,0.11200X0.00040*%
%ADD247R,0.10720X0.00040*%
%ADD248R,0.12920X0.00040*%
%ADD249R,0.09560X0.00040*%
%ADD250R,0.11280X0.00040*%
%ADD251R,0.10800X0.00040*%
%ADD252R,0.12960X0.00040*%
%ADD253R,0.11360X0.00040*%
%ADD254R,0.12960X0.00040*%
%ADD255R,0.11440X0.00040*%
%ADD256R,0.10960X0.00040*%
%ADD257R,0.13000X0.00040*%
%ADD258R,0.11520X0.00040*%
%ADD259R,0.13040X0.00040*%
%ADD260R,0.11600X0.00040*%
%ADD261R,0.11080X0.00040*%
%ADD262R,0.13080X0.00040*%
%ADD263R,0.11600X0.00040*%
%ADD264R,0.11120X0.00040*%
%ADD265R,0.13120X0.00040*%
%ADD266R,0.13160X0.00040*%
%ADD267R,0.11760X0.00040*%
%ADD268R,0.11280X0.00040*%
%ADD269R,0.09520X0.00040*%
%ADD270R,0.13200X0.00040*%
%ADD271R,0.11920X0.00040*%
%ADD272R,0.13240X0.00040*%
%ADD273R,0.11920X0.00040*%
%ADD274R,0.11520X0.00040*%
%ADD275R,0.13280X0.00040*%
%ADD276R,0.12000X0.00040*%
%ADD277R,0.13280X0.00040*%
%ADD278R,0.09440X0.00040*%
%ADD279R,0.13320X0.00040*%
%ADD280R,0.13360X0.00040*%
%ADD281R,0.13400X0.00040*%
%ADD282R,0.09320X0.00040*%
%ADD283R,0.12240X0.00040*%
%ADD284R,0.11840X0.00040*%
%ADD285R,0.13400X0.00040*%
%ADD286R,0.12320X0.00040*%
%ADD287R,0.13440X0.00040*%
%ADD288R,0.05640X0.00040*%
%ADD289R,0.13480X0.00040*%
%ADD290R,0.05400X0.00040*%
%ADD291R,0.06880X0.00040*%
%ADD292R,0.05240X0.00040*%
%ADD293R,0.08920X0.00040*%
%ADD294R,0.05120X0.00040*%
%ADD295R,0.05120X0.00040*%
%ADD296R,0.12160X0.00040*%
%ADD297R,0.05240X0.00040*%
%ADD298R,0.06440X0.00040*%
%ADD299R,0.05000X0.00040*%
%ADD300R,0.06280X0.00040*%
%ADD301R,0.04320X0.00040*%
%ADD302R,0.04920X0.00040*%
%ADD303R,0.04920X0.00040*%
%ADD304R,0.12240X0.00040*%
%ADD305R,0.06160X0.00040*%
%ADD306R,0.04840X0.00040*%
%ADD307R,0.06040X0.00040*%
%ADD308R,0.04000X0.00040*%
%ADD309R,0.04760X0.00040*%
%ADD310R,0.03920X0.00040*%
%ADD311R,0.04720X0.00040*%
%ADD312R,0.04720X0.00040*%
%ADD313R,0.05400X0.00040*%
%ADD314R,0.05840X0.00040*%
%ADD315R,0.04600X0.00040*%
%ADD316R,0.04680X0.00040*%
%ADD317R,0.05720X0.00040*%
%ADD318R,0.03760X0.00040*%
%ADD319R,0.04560X0.00040*%
%ADD320R,0.03680X0.00040*%
%ADD321R,0.04480X0.00040*%
%ADD322R,0.04520X0.00040*%
%ADD323R,0.05560X0.00040*%
%ADD324R,0.04440X0.00040*%
%ADD325R,0.04440X0.00040*%
%ADD326R,0.05480X0.00040*%
%ADD327R,0.03600X0.00040*%
%ADD328R,0.04440X0.00040*%
%ADD329R,0.04840X0.00040*%
%ADD330R,0.04440X0.00040*%
%ADD331R,0.04360X0.00040*%
%ADD332R,0.04720X0.00040*%
%ADD333R,0.04720X0.00040*%
%ADD334R,0.03480X0.00040*%
%ADD335R,0.04280X0.00040*%
%ADD336R,0.05200X0.00040*%
%ADD337R,0.04240X0.00040*%
%ADD338R,0.05160X0.00040*%
%ADD339R,0.07680X0.00040*%
%ADD340R,0.04200X0.00040*%
%ADD341R,0.04480X0.00040*%
%ADD342R,0.04520X0.00040*%
%ADD343R,0.04240X0.00040*%
%ADD344R,0.05080X0.00040*%
%ADD345R,0.05040X0.00040*%
%ADD346R,0.04960X0.00040*%
%ADD347R,0.07440X0.00040*%
%ADD348R,0.04080X0.00040*%
%ADD349R,0.04320X0.00040*%
%ADD350R,0.07280X0.00040*%
%ADD351R,0.04040X0.00040*%
%ADD352R,0.04280X0.00040*%
%ADD353R,0.04040X0.00040*%
%ADD354R,0.04800X0.00040*%
%ADD355R,0.04040X0.00040*%
%ADD356R,0.04240X0.00040*%
%ADD357R,0.04040X0.00040*%
%ADD358R,0.07160X0.00040*%
%ADD359R,0.04200X0.00040*%
%ADD360R,0.03960X0.00040*%
%ADD361R,0.07080X0.00040*%
%ADD362R,0.03920X0.00040*%
%ADD363R,0.06960X0.00040*%
%ADD364R,0.03880X0.00040*%
%ADD365R,0.04120X0.00040*%
%ADD366R,0.04600X0.00040*%
%ADD367R,0.06920X0.00040*%
%ADD368R,0.03880X0.00040*%
%ADD369R,0.06840X0.00040*%
%ADD370R,0.06760X0.00040*%
%ADD371R,0.03800X0.00040*%
%ADD372R,0.06720X0.00040*%
%ADD373R,0.03800X0.00040*%
%ADD374R,0.03920X0.00040*%
%ADD375R,0.03720X0.00040*%
%ADD376R,0.03720X0.00040*%
%ADD377R,0.03840X0.00040*%
%ADD378R,0.06560X0.00040*%
%ADD379R,0.03720X0.00040*%
%ADD380R,0.03840X0.00040*%
%ADD381R,0.03640X0.00040*%
%ADD382R,0.06440X0.00040*%
%ADD383R,0.04120X0.00040*%
%ADD384R,0.03600X0.00040*%
%ADD385R,0.06400X0.00040*%
%ADD386R,0.03640X0.00040*%
%ADD387R,0.03760X0.00040*%
%ADD388R,0.03720X0.00040*%
%ADD389R,0.06360X0.00040*%
%ADD390R,0.06320X0.00040*%
%ADD391R,0.03520X0.00040*%
%ADD392R,0.03640X0.00040*%
%ADD393R,0.06840X0.00040*%
%ADD394R,0.03520X0.00040*%
%ADD395R,0.03640X0.00040*%
%ADD396R,0.03520X0.00040*%
%ADD397R,0.06720X0.00040*%
%ADD398R,0.06280X0.00040*%
%ADD399R,0.03480X0.00040*%
%ADD400R,0.03560X0.00040*%
%ADD401R,0.06720X0.00040*%
%ADD402R,0.03440X0.00040*%
%ADD403R,0.06920X0.00040*%
%ADD404R,0.06360X0.00040*%
%ADD405R,0.06920X0.00040*%
%ADD406R,0.03400X0.00040*%
%ADD407R,0.03680X0.00040*%
%ADD408R,0.06560X0.00040*%
%ADD409R,0.03400X0.00040*%
%ADD410R,0.06440X0.00040*%
%ADD411R,0.06520X0.00040*%
%ADD412R,0.06680X0.00040*%
%ADD413R,0.06480X0.00040*%
%ADD414R,0.03360X0.00040*%
%ADD415R,0.06640X0.00040*%
%ADD416R,0.03360X0.00040*%
%ADD417R,0.06400X0.00040*%
%ADD418R,0.03320X0.00040*%
%ADD419R,0.07040X0.00040*%
%ADD420R,0.03320X0.00040*%
%ADD421R,0.07280X0.00040*%
%ADD422R,0.07400X0.00040*%
%ADD423R,0.07440X0.00040*%
%ADD424R,0.03280X0.00040*%
%ADD425R,0.03440X0.00040*%
%ADD426R,0.07640X0.00040*%
%ADD427R,0.07720X0.00040*%
%ADD428R,0.06240X0.00040*%
%ADD429R,0.03280X0.00040*%
%ADD430R,0.06200X0.00040*%
%ADD431R,0.07920X0.00040*%
%ADD432R,0.06200X0.00040*%
%ADD433R,0.08000X0.00040*%
%ADD434R,0.08240X0.00040*%
%ADD435R,0.06120X0.00040*%
%ADD436R,0.06120X0.00040*%
%ADD437R,0.03320X0.00040*%
%ADD438R,0.06120X0.00040*%
%ADD439R,0.03320X0.00040*%
%ADD440R,0.06000X0.00040*%
%ADD441R,0.08800X0.00040*%
%ADD442R,0.06000X0.00040*%
%ADD443R,0.06080X0.00040*%
%ADD444R,0.05960X0.00040*%
%ADD445R,0.09160X0.00040*%
%ADD446R,0.09280X0.00040*%
%ADD447R,0.05920X0.00040*%
%ADD448R,0.06040X0.00040*%
%ADD449R,0.09640X0.00040*%
%ADD450R,0.09760X0.00040*%
%ADD451R,0.09800X0.00040*%
%ADD452R,0.05840X0.00040*%
%ADD453R,0.09920X0.00040*%
%ADD454R,0.10000X0.00040*%
%ADD455R,0.10080X0.00040*%
%ADD456R,0.05800X0.00040*%
%ADD457R,0.07200X0.00040*%
%ADD458R,0.05800X0.00040*%
%ADD459R,0.05960X0.00040*%
%ADD460R,0.07240X0.00040*%
%ADD461R,0.03240X0.00040*%
%ADD462R,0.07320X0.00040*%
%ADD463R,0.07320X0.00040*%
%ADD464R,0.03240X0.00040*%
%ADD465R,0.05920X0.00040*%
%ADD466R,0.07000X0.00040*%
%ADD467R,0.06040X0.00040*%
%ADD468R,0.06160X0.00040*%
%ADD469R,0.06320X0.00040*%
%ADD470R,0.03440X0.00040*%
%ADD471R,0.05560X0.00040*%
%ADD472R,0.06600X0.00040*%
%ADD473R,0.05320X0.00040*%
%ADD474R,0.05160X0.00040*%
%ADD475R,0.04520X0.00040*%
%ADD476R,0.06880X0.00040*%
%ADD477R,0.03920X0.00040*%
%ADD478R,0.04000X0.00040*%
%ADD479R,0.03840X0.00040*%
%ADD480R,0.03960X0.00040*%
%ADD481R,0.04360X0.00040*%
%ADD482R,0.04640X0.00040*%
%ADD483R,0.05040X0.00040*%
%ADD484R,0.05040X0.00040*%
%ADD485R,0.12120X0.00040*%
%ADD486R,0.12120X0.00040*%
%ADD487R,0.04640X0.00040*%
%ADD488R,0.12040X0.00040*%
%ADD489R,0.11880X0.00040*%
%ADD490R,0.08160X0.00040*%
%ADD491R,0.11800X0.00040*%
%ADD492R,0.11720X0.00040*%
%ADD493R,0.08480X0.00040*%
%ADD494R,0.11640X0.00040*%
%ADD495R,0.08560X0.00040*%
%ADD496R,0.12000X0.00040*%
%ADD497R,0.05680X0.00040*%
%ADD498R,0.18120X0.00040*%
%ADD499R,0.08680X0.00040*%
%ADD500R,0.18080X0.00040*%
%ADD501R,0.18040X0.00040*%
%ADD502R,0.11680X0.00040*%
%ADD503R,0.12080X0.00040*%
%ADD504R,0.18000X0.00040*%
%ADD505R,0.08840X0.00040*%
%ADD506R,0.17960X0.00040*%
%ADD507R,0.17920X0.00040*%
%ADD508R,0.11480X0.00040*%
%ADD509R,0.17880X0.00040*%
%ADD510R,0.17840X0.00040*%
%ADD511R,0.08880X0.00040*%
%ADD512R,0.11360X0.00040*%
%ADD513R,0.17800X0.00040*%
%ADD514R,0.08920X0.00040*%
%ADD515R,0.17760X0.00040*%
%ADD516R,0.17720X0.00040*%
%ADD517R,0.17680X0.00040*%
%ADD518R,0.17640X0.00040*%
%ADD519R,0.11480X0.00040*%
%ADD520R,0.17600X0.00040*%
%ADD521R,0.17560X0.00040*%
%ADD522R,0.17520X0.00040*%
%ADD523R,0.17480X0.00040*%
%ADD524R,0.17440X0.00040*%
%ADD525R,0.10640X0.00040*%
%ADD526R,0.17400X0.00040*%
%ADD527R,0.17360X0.00040*%
%ADD528R,0.17320X0.00040*%
%ADD529R,0.17280X0.00040*%
%ADD530R,0.17240X0.00040*%
%ADD531R,0.10760X0.00040*%
%ADD532R,0.17200X0.00040*%
%ADD533R,0.17160X0.00040*%
%ADD534R,0.17080X0.00040*%
%ADD535R,0.17040X0.00040*%
%ADD536R,0.10440X0.00040*%
%ADD537R,0.17000X0.00040*%
%ADD538R,0.08720X0.00040*%
%ADD539R,0.10320X0.00040*%
%ADD540R,0.16960X0.00040*%
%ADD541R,0.16880X0.00040*%
%ADD542R,0.08640X0.00040*%
%ADD543R,0.16840X0.00040*%
%ADD544R,0.16800X0.00040*%
%ADD545R,0.16720X0.00040*%
%ADD546R,0.16680X0.00040*%
%ADD547R,0.16640X0.00040*%
%ADD548R,0.16560X0.00040*%
%ADD549R,0.08440X0.00040*%
%ADD550R,0.16520X0.00040*%
%ADD551R,0.16440X0.00040*%
%ADD552R,0.09440X0.00040*%
%ADD553R,0.08320X0.00040*%
%ADD554R,0.08040X0.00040*%
%ADD555R,0.09120X0.00040*%
%ADD556R,0.07640X0.00040*%
%ADD557R,0.07400X0.00040*%
%ADD558R,0.07600X0.00040*%
%ADD559R,0.07800X0.00040*%
%ADD560R,0.08280X0.00040*%
%ADD561R,0.07040X0.00040*%
%ADD562R,0.08200X0.00040*%
%ADD563R,0.06920X0.00040*%
%ADD564R,0.08120X0.00040*%
%ADD565R,0.08120X0.00040*%
%ADD566R,0.04880X0.00040*%
%ADD567R,0.06240X0.00040*%
%ADD568R,0.08000X0.00040*%
%ADD569R,0.02520X0.00040*%
%ADD570R,0.02040X0.00040*%
%ADD571R,0.01240X0.00040*%
%ADD572R,0.05280X0.00040*%
%ADD573R,0.02720X0.00040*%
%ADD574R,0.02240X0.00040*%
%ADD575R,0.01600X0.00040*%
%ADD576R,0.00560X0.00040*%
%ADD577R,0.04080X0.00040*%
%ADD578R,0.07520X0.00040*%
%ADD579R,0.02240X0.00040*%
%ADD580R,0.00560X0.00040*%
%ADD581R,0.05440X0.00040*%
%ADD582R,0.06240X0.00040*%
%ADD583R,0.05840X0.00040*%
%ADD584R,0.05440X0.00040*%
%ADD585R,0.04760X0.00040*%
%ADD586R,0.02320X0.00040*%
%ADD587R,0.01720X0.00040*%
%ADD588C,0.00200*%
%ADD589C,0.00300*%
%ADD590C,0.00500*%
%ADD591C,0.00000*%
%ADD592C,0.00800*%
%ADD593C,0.00600*%
%ADD594C,0.00400*%
%ADD595C,0.00700*%
%ADD596C,0.01000*%
D10*
X0161887Y0013320D03*
D11*
X0161887Y0013360D03*
X0176247Y0013640D03*
X0201367Y0013600D03*
D12*
X0195627Y0013360D03*
D13*
X0201367Y0013360D03*
D14*
X0161887Y0013400D03*
D15*
X0195627Y0013400D03*
D16*
X0201367Y0013400D03*
X0176247Y0013600D03*
D17*
X0176247Y0013720D03*
X0161887Y0013440D03*
D18*
X0184867Y0014200D03*
X0195627Y0013440D03*
X0201387Y0013840D03*
D19*
X0201367Y0013440D03*
D20*
X0161887Y0013480D03*
X0156007Y0020880D03*
X0156007Y0021080D03*
D21*
X0195647Y0013480D03*
D22*
X0201367Y0013480D03*
X0189567Y0034080D03*
D23*
X0185307Y0029520D03*
X0185267Y0029440D03*
X0190427Y0023040D03*
X0190387Y0023000D03*
X0190387Y0022960D03*
X0190347Y0018520D03*
X0190387Y0018440D03*
X0190427Y0018360D03*
X0201227Y0019120D03*
X0201227Y0019160D03*
X0201227Y0019200D03*
X0200867Y0022920D03*
X0200867Y0022960D03*
X0170907Y0023400D03*
X0170867Y0023320D03*
X0167227Y0023160D03*
X0167187Y0023200D03*
X0167267Y0018520D03*
X0167227Y0018440D03*
X0167187Y0018360D03*
X0170907Y0018720D03*
X0170947Y0018640D03*
X0161907Y0013520D03*
X0153427Y0017120D03*
X0156507Y0023040D03*
X0156547Y0023120D03*
X0156587Y0023200D03*
D24*
X0184867Y0015120D03*
X0184867Y0015040D03*
X0184867Y0015000D03*
X0195627Y0013520D03*
X0201387Y0014600D03*
X0189267Y0033800D03*
D25*
X0201367Y0013520D03*
D26*
X0191767Y0016840D03*
X0180207Y0025040D03*
X0186447Y0030760D03*
X0172287Y0025040D03*
X0165847Y0024760D03*
X0157927Y0024760D03*
X0165807Y0016800D03*
X0148727Y0013560D03*
X0147807Y0023040D03*
D27*
X0147207Y0024960D03*
X0153247Y0016920D03*
X0156967Y0023800D03*
X0166807Y0023800D03*
X0166847Y0023760D03*
X0166847Y0017800D03*
X0166807Y0017760D03*
X0161887Y0013560D03*
X0171287Y0024040D03*
X0181207Y0024040D03*
X0181167Y0018040D03*
X0176247Y0013840D03*
X0190767Y0017800D03*
X0190767Y0023600D03*
X0185607Y0030000D03*
X0185647Y0030040D03*
X0200487Y0023600D03*
X0201087Y0018600D03*
X0195647Y0013600D03*
D28*
X0195647Y0013560D03*
X0201247Y0019240D03*
X0185247Y0029360D03*
X0185247Y0029400D03*
X0176247Y0013800D03*
X0170807Y0023200D03*
X0156447Y0022920D03*
X0153447Y0017160D03*
X0147007Y0023640D03*
X0147007Y0024800D03*
D29*
X0201387Y0013560D03*
D30*
X0200367Y0017160D03*
X0199127Y0024760D03*
X0188727Y0033000D03*
X0179847Y0016920D03*
X0172647Y0016920D03*
X0161887Y0027800D03*
X0158287Y0016640D03*
X0148767Y0013600D03*
D31*
X0157327Y0024240D03*
X0166447Y0017320D03*
X0161887Y0013600D03*
X0171687Y0017600D03*
X0171687Y0024520D03*
X0180807Y0017600D03*
X0191127Y0017360D03*
X0191167Y0017320D03*
X0200127Y0024040D03*
X0200927Y0018160D03*
X0200927Y0018120D03*
D32*
X0192327Y0016600D03*
X0188607Y0032800D03*
X0165247Y0016560D03*
X0148807Y0013640D03*
D33*
X0147527Y0023240D03*
X0157607Y0024520D03*
X0166167Y0024520D03*
X0171927Y0024760D03*
X0171967Y0024800D03*
X0176247Y0028240D03*
X0180527Y0024800D03*
X0180567Y0024760D03*
X0186127Y0030560D03*
X0191407Y0024320D03*
X0199847Y0024320D03*
X0176247Y0013920D03*
X0161887Y0013640D03*
D34*
X0166467Y0017360D03*
X0166467Y0024240D03*
X0171667Y0017640D03*
X0180827Y0017640D03*
X0180827Y0024520D03*
X0189067Y0033520D03*
X0195627Y0013640D03*
X0157267Y0024200D03*
X0153067Y0016800D03*
D35*
X0201367Y0013640D03*
D36*
X0148867Y0013680D03*
D37*
X0161907Y0013680D03*
X0195627Y0027680D03*
D38*
X0176267Y0013680D03*
D39*
X0166207Y0024480D03*
X0157567Y0024480D03*
X0195647Y0013680D03*
X0200807Y0017880D03*
X0199887Y0024280D03*
D40*
X0201367Y0013680D03*
D41*
X0169107Y0019760D03*
X0169107Y0019800D03*
X0169107Y0019840D03*
X0161907Y0013960D03*
X0148907Y0013720D03*
X0148707Y0022400D03*
D42*
X0147847Y0023000D03*
X0161887Y0013720D03*
X0176247Y0014000D03*
X0176247Y0028160D03*
X0188847Y0033200D03*
X0199447Y0024600D03*
X0200567Y0017440D03*
X0195647Y0013760D03*
D43*
X0184867Y0013720D03*
D44*
X0176247Y0013960D03*
X0172167Y0024960D03*
X0176247Y0028200D03*
X0161887Y0027920D03*
X0147687Y0023120D03*
X0195647Y0013720D03*
X0200687Y0017640D03*
D45*
X0201367Y0013720D03*
D46*
X0187367Y0031040D03*
X0183327Y0022760D03*
X0183327Y0022720D03*
X0183327Y0019400D03*
X0183327Y0019360D03*
X0169127Y0019520D03*
X0161887Y0014000D03*
X0155167Y0018440D03*
X0155127Y0018520D03*
X0155087Y0018600D03*
X0154967Y0018800D03*
X0154927Y0018840D03*
X0148927Y0013760D03*
D47*
X0161887Y0013760D03*
X0172567Y0016960D03*
X0179927Y0016960D03*
D48*
X0176247Y0013760D03*
X0184847Y0015160D03*
X0184847Y0015200D03*
X0184847Y0015240D03*
X0189887Y0020200D03*
X0189887Y0021160D03*
X0189887Y0021200D03*
X0156007Y0021040D03*
X0156007Y0021000D03*
X0156007Y0020960D03*
X0156007Y0020920D03*
X0156007Y0020840D03*
X0156007Y0020800D03*
D49*
X0184867Y0013760D03*
D50*
X0184867Y0014120D03*
X0201387Y0013760D03*
D51*
X0188107Y0031920D03*
X0155307Y0018120D03*
X0148947Y0013800D03*
D52*
X0161887Y0013800D03*
X0188727Y0032960D03*
X0192167Y0016640D03*
X0200327Y0017120D03*
D53*
X0184867Y0013800D03*
D54*
X0191987Y0016720D03*
X0195627Y0013800D03*
D55*
X0201387Y0013800D03*
X0184867Y0014160D03*
D56*
X0183147Y0018720D03*
X0183147Y0023400D03*
X0183147Y0023440D03*
X0168987Y0022760D03*
X0155387Y0017920D03*
X0149147Y0022120D03*
X0150827Y0027760D03*
X0148987Y0013840D03*
D57*
X0161887Y0013840D03*
X0161887Y0027760D03*
D58*
X0184847Y0013840D03*
D59*
X0195627Y0013840D03*
X0179827Y0025240D03*
X0172667Y0025240D03*
X0165467Y0024960D03*
D60*
X0169007Y0022880D03*
X0149007Y0013880D03*
D61*
X0161887Y0013880D03*
D62*
X0176247Y0013880D03*
X0191167Y0024080D03*
X0200087Y0024080D03*
D63*
X0184867Y0013880D03*
D64*
X0195627Y0013880D03*
X0179707Y0025280D03*
X0172787Y0025280D03*
X0188667Y0032880D03*
D65*
X0201387Y0013880D03*
D66*
X0195627Y0014240D03*
X0182987Y0018320D03*
X0182987Y0023840D03*
X0168987Y0023040D03*
X0169147Y0018800D03*
X0169147Y0018760D03*
X0155507Y0017640D03*
X0149027Y0013920D03*
D67*
X0161887Y0013920D03*
X0169087Y0020240D03*
X0169087Y0020320D03*
X0169087Y0020360D03*
X0169087Y0020400D03*
X0188487Y0032560D03*
D68*
X0176247Y0028520D03*
X0184847Y0013920D03*
D69*
X0195627Y0013920D03*
X0165187Y0025040D03*
X0158587Y0025040D03*
X0148427Y0022600D03*
D70*
X0201367Y0013920D03*
D71*
X0149047Y0013960D03*
X0149607Y0021800D03*
D72*
X0184867Y0013960D03*
D73*
X0195627Y0013960D03*
X0188507Y0032600D03*
X0169067Y0021440D03*
X0169067Y0021400D03*
X0169067Y0021360D03*
X0169067Y0020440D03*
X0148547Y0022520D03*
D74*
X0184847Y0014320D03*
X0201367Y0013960D03*
X0189367Y0033920D03*
D75*
X0161907Y0014240D03*
X0155547Y0017520D03*
X0150587Y0020960D03*
X0149067Y0014000D03*
D76*
X0184847Y0014000D03*
D77*
X0195627Y0014000D03*
X0169027Y0021840D03*
X0169027Y0021920D03*
D78*
X0184847Y0014360D03*
X0201367Y0014000D03*
D79*
X0186967Y0028360D03*
X0176247Y0027600D03*
X0176247Y0014560D03*
X0161887Y0027320D03*
X0155567Y0017440D03*
X0150167Y0021320D03*
X0150127Y0021360D03*
X0150087Y0021400D03*
X0149087Y0014040D03*
D80*
X0155287Y0018160D03*
X0154767Y0019000D03*
X0161887Y0014040D03*
X0169127Y0019320D03*
X0169007Y0022520D03*
X0169007Y0022560D03*
X0176247Y0014320D03*
X0183247Y0019040D03*
X0187527Y0031160D03*
X0187567Y0031200D03*
X0188127Y0031960D03*
D81*
X0186647Y0030840D03*
X0176247Y0028120D03*
X0176247Y0014040D03*
D82*
X0184867Y0014040D03*
X0189467Y0034000D03*
D83*
X0183367Y0022600D03*
X0183367Y0022560D03*
X0183367Y0022520D03*
X0183367Y0019600D03*
X0183367Y0019560D03*
X0195647Y0014040D03*
X0169007Y0022240D03*
X0161887Y0027600D03*
D84*
X0184867Y0014400D03*
X0201387Y0014040D03*
D85*
X0161907Y0027280D03*
X0149107Y0014080D03*
D86*
X0154647Y0019080D03*
X0161887Y0014080D03*
D87*
X0176247Y0014080D03*
D88*
X0184867Y0014080D03*
D89*
X0195627Y0014080D03*
D90*
X0201367Y0014080D03*
D91*
X0195627Y0014400D03*
X0155627Y0017320D03*
X0154027Y0019520D03*
X0149147Y0014120D03*
D92*
X0155447Y0017800D03*
X0154527Y0019160D03*
X0161887Y0014120D03*
X0169127Y0018960D03*
X0176247Y0014400D03*
X0183087Y0018560D03*
X0183087Y0023560D03*
X0183087Y0023600D03*
X0150807Y0027720D03*
D93*
X0176247Y0028040D03*
X0176247Y0014120D03*
X0192247Y0024800D03*
X0199007Y0024800D03*
D94*
X0195627Y0014120D03*
X0183187Y0018840D03*
X0187707Y0031360D03*
X0187747Y0031400D03*
X0187787Y0031440D03*
X0187827Y0031520D03*
X0187867Y0031560D03*
X0187907Y0031600D03*
X0169147Y0019160D03*
X0155347Y0018040D03*
X0155347Y0018000D03*
D95*
X0201387Y0014120D03*
D96*
X0187127Y0028160D03*
X0176247Y0014640D03*
X0161887Y0014360D03*
X0149167Y0014160D03*
X0150647Y0027360D03*
D97*
X0149447Y0021920D03*
X0154447Y0019240D03*
X0161887Y0014160D03*
X0176247Y0014440D03*
X0183007Y0018360D03*
X0183007Y0023800D03*
D98*
X0188567Y0032720D03*
X0176247Y0014160D03*
D99*
X0169007Y0022800D03*
X0176247Y0027760D03*
X0195647Y0014160D03*
X0154607Y0019120D03*
D100*
X0184867Y0014560D03*
X0184867Y0014520D03*
X0201387Y0014200D03*
X0201387Y0014160D03*
D101*
X0195627Y0026960D03*
X0153867Y0019640D03*
X0149187Y0014200D03*
D102*
X0154327Y0019320D03*
X0150767Y0020800D03*
X0161887Y0014200D03*
D103*
X0169047Y0021520D03*
X0169047Y0021560D03*
X0169047Y0021600D03*
X0169047Y0021640D03*
X0176247Y0027960D03*
X0176247Y0014200D03*
X0200047Y0016840D03*
D104*
X0195627Y0014200D03*
D105*
X0195627Y0026920D03*
X0187187Y0028040D03*
X0161907Y0027160D03*
X0150587Y0027240D03*
X0149187Y0014240D03*
D106*
X0161887Y0027640D03*
X0169047Y0021960D03*
X0176247Y0027920D03*
X0183447Y0022040D03*
X0183447Y0022000D03*
X0183447Y0021960D03*
X0183447Y0020160D03*
X0183447Y0020120D03*
X0183447Y0020040D03*
X0176247Y0014240D03*
X0188407Y0032440D03*
D107*
X0184867Y0014240D03*
D108*
X0184867Y0014600D03*
X0184867Y0014640D03*
X0195627Y0027920D03*
X0201387Y0014240D03*
D109*
X0149227Y0014280D03*
D110*
X0161887Y0014280D03*
D111*
X0176247Y0014280D03*
D112*
X0184867Y0014280D03*
D113*
X0195627Y0014280D03*
D114*
X0201387Y0014280D03*
D115*
X0149227Y0014320D03*
D116*
X0161887Y0014320D03*
D117*
X0150387Y0021120D03*
X0150267Y0021240D03*
X0150027Y0021440D03*
X0195627Y0014320D03*
D118*
X0201367Y0014320D03*
X0189287Y0033840D03*
D119*
X0149267Y0014360D03*
D120*
X0155367Y0017960D03*
X0169007Y0022720D03*
X0176247Y0014360D03*
X0183167Y0018760D03*
X0183167Y0018800D03*
X0183167Y0023320D03*
X0183167Y0023360D03*
X0186647Y0028520D03*
X0199687Y0016640D03*
D121*
X0195627Y0014360D03*
X0195627Y0027040D03*
X0150667Y0027440D03*
D122*
X0184867Y0014760D03*
X0184867Y0014720D03*
X0201387Y0014400D03*
X0201387Y0014360D03*
D123*
X0195627Y0014600D03*
X0187347Y0027520D03*
X0187347Y0027560D03*
X0150507Y0027040D03*
X0149267Y0014400D03*
D124*
X0161887Y0014400D03*
X0161887Y0027200D03*
X0187167Y0028120D03*
D125*
X0187387Y0027320D03*
X0187387Y0027240D03*
X0187387Y0027200D03*
X0187387Y0027160D03*
X0187387Y0027120D03*
X0150467Y0026960D03*
X0149467Y0025120D03*
X0149307Y0014440D03*
D126*
X0161887Y0014440D03*
X0150567Y0027200D03*
D127*
X0176247Y0028440D03*
X0184847Y0014440D03*
D128*
X0195627Y0014440D03*
X0150627Y0027320D03*
D129*
X0184867Y0014840D03*
X0201387Y0014520D03*
X0201387Y0014440D03*
D130*
X0153547Y0019880D03*
X0150427Y0026880D03*
X0149307Y0014480D03*
D131*
X0161887Y0014480D03*
X0150527Y0027080D03*
D132*
X0176247Y0014480D03*
D133*
X0184867Y0014480D03*
X0189347Y0033880D03*
D134*
X0187167Y0028080D03*
X0195607Y0014480D03*
D135*
X0201387Y0014480D03*
X0184867Y0014880D03*
D136*
X0149347Y0014520D03*
D137*
X0153647Y0019800D03*
X0161887Y0014520D03*
X0176247Y0014800D03*
X0176247Y0027360D03*
X0187327Y0027600D03*
X0187327Y0027640D03*
D138*
X0176247Y0027640D03*
X0176247Y0014520D03*
X0161887Y0027360D03*
X0154247Y0019360D03*
D139*
X0149267Y0025040D03*
X0187227Y0027920D03*
X0187227Y0027960D03*
X0195627Y0014520D03*
D140*
X0149347Y0014560D03*
D141*
X0161887Y0014560D03*
D142*
X0187287Y0027760D03*
X0195607Y0014560D03*
D143*
X0201367Y0014560D03*
X0161887Y0028120D03*
D144*
X0149607Y0025240D03*
X0149367Y0014600D03*
X0161887Y0014640D03*
D145*
X0161887Y0014600D03*
X0153487Y0019920D03*
X0149527Y0025160D03*
X0150447Y0026840D03*
X0161887Y0027000D03*
D146*
X0155607Y0017360D03*
X0176247Y0014600D03*
X0176247Y0027560D03*
D147*
X0153387Y0020000D03*
X0150347Y0026640D03*
X0149387Y0014640D03*
D148*
X0176247Y0025840D03*
X0197207Y0014640D03*
D149*
X0149407Y0014680D03*
D150*
X0161887Y0014680D03*
D151*
X0176247Y0014680D03*
X0176247Y0027480D03*
D152*
X0184847Y0014680D03*
D153*
X0195627Y0025280D03*
X0197187Y0014680D03*
D154*
X0150267Y0026400D03*
X0150267Y0026440D03*
X0149787Y0025440D03*
X0149747Y0025400D03*
X0149427Y0014720D03*
D155*
X0150727Y0016720D03*
X0153327Y0020040D03*
X0161887Y0014720D03*
D156*
X0176247Y0014720D03*
X0176247Y0027440D03*
X0187207Y0028000D03*
D157*
X0197147Y0014720D03*
D158*
X0176247Y0027120D03*
X0161887Y0026840D03*
X0150247Y0026360D03*
X0149447Y0014760D03*
D159*
X0149887Y0025600D03*
X0149967Y0025760D03*
X0150087Y0026000D03*
X0150127Y0026120D03*
X0150167Y0026160D03*
X0150167Y0026200D03*
X0161887Y0014760D03*
X0176247Y0015040D03*
D160*
X0176267Y0014760D03*
X0187267Y0027800D03*
X0187267Y0027840D03*
X0153707Y0019760D03*
X0150547Y0027120D03*
D161*
X0161887Y0016120D03*
X0176247Y0016400D03*
X0176247Y0025760D03*
X0197127Y0014760D03*
D162*
X0150187Y0026240D03*
X0149907Y0025640D03*
X0149867Y0025560D03*
X0149467Y0014800D03*
D163*
X0153167Y0020160D03*
X0161887Y0014800D03*
X0161887Y0026800D03*
D164*
X0184847Y0014800D03*
D165*
X0197107Y0014800D03*
D166*
X0153227Y0020120D03*
X0149467Y0014840D03*
X0149987Y0025800D03*
X0150027Y0025840D03*
X0150067Y0025920D03*
X0150067Y0025960D03*
D167*
X0150567Y0016640D03*
X0161887Y0014840D03*
X0161887Y0026760D03*
X0176247Y0027040D03*
X0176247Y0015120D03*
D168*
X0176247Y0014840D03*
X0187407Y0026920D03*
X0187407Y0026960D03*
X0187407Y0027000D03*
X0187407Y0027040D03*
X0150447Y0026920D03*
D169*
X0161887Y0025400D03*
X0161887Y0025360D03*
X0161887Y0016200D03*
X0176247Y0025640D03*
X0197087Y0014840D03*
D170*
X0176247Y0015080D03*
X0176247Y0027080D03*
X0149487Y0014880D03*
D171*
X0161887Y0014880D03*
D172*
X0176247Y0014880D03*
X0176247Y0027280D03*
D173*
X0195627Y0025080D03*
X0197067Y0014880D03*
D174*
X0149507Y0014920D03*
D175*
X0149647Y0015240D03*
X0150407Y0016520D03*
X0161887Y0014920D03*
X0176247Y0015200D03*
X0176247Y0026960D03*
D176*
X0176267Y0014920D03*
X0153427Y0019960D03*
X0150387Y0026720D03*
D177*
X0176247Y0028400D03*
X0184847Y0014960D03*
X0184847Y0014920D03*
D178*
X0176247Y0016520D03*
X0176247Y0016560D03*
X0176247Y0025600D03*
X0197047Y0014920D03*
D179*
X0149527Y0014960D03*
D180*
X0149687Y0015320D03*
X0150327Y0016440D03*
X0152967Y0020320D03*
X0161887Y0014960D03*
X0161887Y0026640D03*
X0176247Y0026920D03*
X0176247Y0015240D03*
D181*
X0176247Y0014960D03*
X0176247Y0027200D03*
X0161887Y0026920D03*
X0149687Y0025320D03*
D182*
X0195627Y0025000D03*
X0197027Y0014960D03*
D183*
X0153107Y0020200D03*
X0149547Y0015000D03*
D184*
X0149787Y0015520D03*
X0149787Y0015560D03*
X0150227Y0016320D03*
X0161907Y0015000D03*
D185*
X0176247Y0015000D03*
X0176247Y0027160D03*
D186*
X0196987Y0015000D03*
D187*
X0161887Y0026720D03*
X0150487Y0016600D03*
X0149567Y0015040D03*
D188*
X0149887Y0015760D03*
X0149927Y0015840D03*
X0149967Y0015920D03*
X0150007Y0016000D03*
X0161887Y0015040D03*
X0176247Y0015320D03*
D189*
X0176247Y0016640D03*
X0176247Y0025520D03*
X0161887Y0025240D03*
X0161887Y0025200D03*
X0161887Y0016360D03*
X0196967Y0015040D03*
D190*
X0149587Y0015080D03*
D191*
X0161887Y0015080D03*
D192*
X0184867Y0015080D03*
D193*
X0196947Y0015080D03*
D194*
X0176247Y0015160D03*
X0150447Y0016560D03*
X0149607Y0015120D03*
D195*
X0161887Y0015120D03*
X0176247Y0015400D03*
X0176247Y0026760D03*
D196*
X0176247Y0025440D03*
X0176247Y0016720D03*
X0161887Y0016440D03*
X0161887Y0016400D03*
X0161887Y0025160D03*
X0196927Y0015120D03*
D197*
X0149627Y0015160D03*
X0149627Y0015200D03*
D198*
X0161887Y0015160D03*
X0161887Y0026440D03*
X0176247Y0026720D03*
X0176247Y0015440D03*
D199*
X0196907Y0015160D03*
D200*
X0161887Y0015200D03*
X0161887Y0026400D03*
D201*
X0176267Y0025360D03*
X0196867Y0015200D03*
D202*
X0176267Y0015520D03*
X0161907Y0015240D03*
D203*
X0176247Y0016800D03*
X0196847Y0015240D03*
D204*
X0149667Y0015280D03*
D205*
X0152527Y0020680D03*
X0161887Y0015280D03*
X0161887Y0026280D03*
D206*
X0150187Y0016280D03*
X0149747Y0015480D03*
X0176267Y0015280D03*
D207*
X0184867Y0015280D03*
X0184867Y0015480D03*
X0184867Y0015680D03*
X0184867Y0015880D03*
X0184867Y0016080D03*
X0184867Y0016280D03*
X0184867Y0016480D03*
X0184867Y0016680D03*
X0184867Y0016880D03*
X0184867Y0017080D03*
X0184867Y0017280D03*
X0184867Y0017480D03*
X0184867Y0017680D03*
X0184867Y0017880D03*
X0184867Y0018080D03*
X0184867Y0018280D03*
X0184867Y0023880D03*
X0184867Y0024080D03*
X0184867Y0024280D03*
X0184867Y0024480D03*
X0184867Y0024680D03*
X0184867Y0024880D03*
X0184867Y0025080D03*
X0184867Y0025280D03*
X0189907Y0021280D03*
X0189867Y0021080D03*
X0189867Y0020880D03*
X0189867Y0020680D03*
X0189867Y0020480D03*
X0189867Y0020280D03*
X0189907Y0020080D03*
X0201387Y0020480D03*
X0201387Y0020680D03*
X0201387Y0020880D03*
X0201347Y0021280D03*
X0156067Y0021480D03*
D208*
X0196827Y0015280D03*
D209*
X0176247Y0015600D03*
X0176247Y0026520D03*
X0161887Y0026240D03*
X0152487Y0020720D03*
X0161887Y0015320D03*
D210*
X0156067Y0021520D03*
X0156067Y0021560D03*
X0156067Y0021600D03*
X0156067Y0021640D03*
X0184867Y0023920D03*
X0184867Y0023960D03*
X0184867Y0024000D03*
X0184867Y0024040D03*
X0184867Y0024120D03*
X0184867Y0024160D03*
X0184867Y0024200D03*
X0184867Y0024240D03*
X0184867Y0024320D03*
X0184867Y0024360D03*
X0184867Y0024400D03*
X0184867Y0024440D03*
X0184867Y0024520D03*
X0184867Y0024560D03*
X0184867Y0024600D03*
X0184867Y0024640D03*
X0184867Y0024720D03*
X0184867Y0024760D03*
X0184867Y0024800D03*
X0184867Y0024840D03*
X0184867Y0024920D03*
X0184867Y0024960D03*
X0184867Y0025000D03*
X0184867Y0025040D03*
X0184867Y0025120D03*
X0184867Y0025160D03*
X0184867Y0025200D03*
X0184867Y0025240D03*
X0189947Y0021640D03*
X0189947Y0021600D03*
X0189907Y0021440D03*
X0189907Y0021400D03*
X0189907Y0021360D03*
X0189907Y0021320D03*
X0189907Y0021240D03*
X0189867Y0021120D03*
X0189867Y0021040D03*
X0189867Y0021000D03*
X0189867Y0020960D03*
X0189867Y0020920D03*
X0189867Y0020840D03*
X0189867Y0020800D03*
X0189867Y0020760D03*
X0189867Y0020720D03*
X0189867Y0020640D03*
X0189867Y0020600D03*
X0189867Y0020560D03*
X0189867Y0020520D03*
X0189867Y0020440D03*
X0189867Y0020400D03*
X0189867Y0020360D03*
X0189867Y0020320D03*
X0189867Y0020240D03*
X0189907Y0020160D03*
X0189907Y0020120D03*
X0189907Y0020040D03*
X0189907Y0020000D03*
X0189907Y0019960D03*
X0189947Y0019800D03*
X0189947Y0019760D03*
X0184867Y0018240D03*
X0184867Y0018200D03*
X0184867Y0018160D03*
X0184867Y0018120D03*
X0184867Y0018040D03*
X0184867Y0018000D03*
X0184867Y0017960D03*
X0184867Y0017920D03*
X0184867Y0017840D03*
X0184867Y0017800D03*
X0184867Y0017760D03*
X0184867Y0017720D03*
X0184867Y0017640D03*
X0184867Y0017600D03*
X0184867Y0017560D03*
X0184867Y0017520D03*
X0184867Y0017440D03*
X0184867Y0017400D03*
X0184867Y0017360D03*
X0184867Y0017320D03*
X0184867Y0017240D03*
X0184867Y0017200D03*
X0184867Y0017160D03*
X0184867Y0017120D03*
X0184867Y0017040D03*
X0184867Y0017000D03*
X0184867Y0016960D03*
X0184867Y0016920D03*
X0184867Y0016840D03*
X0184867Y0016800D03*
X0184867Y0016760D03*
X0184867Y0016720D03*
X0184867Y0016640D03*
X0184867Y0016600D03*
X0184867Y0016560D03*
X0184867Y0016520D03*
X0184867Y0016440D03*
X0184867Y0016400D03*
X0184867Y0016360D03*
X0184867Y0016320D03*
X0184867Y0016240D03*
X0184867Y0016200D03*
X0184867Y0016160D03*
X0184867Y0016120D03*
X0184867Y0016040D03*
X0184867Y0016000D03*
X0184867Y0015960D03*
X0184867Y0015920D03*
X0184867Y0015840D03*
X0184867Y0015800D03*
X0184867Y0015760D03*
X0184867Y0015720D03*
X0184867Y0015640D03*
X0184867Y0015600D03*
X0184867Y0015560D03*
X0184867Y0015520D03*
X0184867Y0015440D03*
X0184867Y0015400D03*
X0184867Y0015360D03*
X0184867Y0015320D03*
X0201387Y0020520D03*
X0201387Y0020560D03*
X0201387Y0020600D03*
X0201387Y0020640D03*
X0201387Y0020720D03*
X0201387Y0020760D03*
X0201387Y0020800D03*
X0201387Y0020840D03*
X0201387Y0020920D03*
X0201347Y0021200D03*
X0201347Y0021240D03*
X0201347Y0021320D03*
D211*
X0196807Y0015320D03*
D212*
X0149707Y0015360D03*
X0149707Y0015400D03*
D213*
X0161887Y0015360D03*
X0161887Y0026200D03*
D214*
X0161887Y0026520D03*
X0176247Y0026800D03*
X0176247Y0015360D03*
D215*
X0196787Y0015360D03*
D216*
X0161887Y0015400D03*
X0161887Y0026160D03*
D217*
X0196767Y0015400D03*
D218*
X0152927Y0020360D03*
X0149727Y0015440D03*
D219*
X0161887Y0015440D03*
X0176247Y0015720D03*
D220*
X0196747Y0015440D03*
D221*
X0161887Y0015480D03*
D222*
X0176247Y0015480D03*
X0176247Y0026680D03*
D223*
X0196727Y0015480D03*
D224*
X0176247Y0015800D03*
X0176247Y0026360D03*
X0161887Y0015520D03*
D225*
X0196707Y0015520D03*
D226*
X0161887Y0015560D03*
X0161887Y0026000D03*
X0161887Y0026040D03*
D227*
X0176247Y0026560D03*
X0176247Y0015560D03*
D228*
X0196687Y0015560D03*
D229*
X0176247Y0026840D03*
X0149807Y0015600D03*
D230*
X0161887Y0015600D03*
X0161887Y0025960D03*
X0176247Y0026240D03*
D231*
X0196667Y0015600D03*
D232*
X0152867Y0020400D03*
X0150107Y0016160D03*
X0150067Y0016120D03*
X0150027Y0016040D03*
X0149987Y0015960D03*
X0149907Y0015800D03*
X0149867Y0015720D03*
X0149827Y0015640D03*
D233*
X0161887Y0015640D03*
X0161887Y0025920D03*
X0176247Y0026200D03*
X0176247Y0015920D03*
D234*
X0176247Y0015640D03*
X0152447Y0020760D03*
D235*
X0196647Y0015640D03*
D236*
X0149847Y0015680D03*
D237*
X0161887Y0015680D03*
X0161887Y0025880D03*
D238*
X0176247Y0015680D03*
D239*
X0196627Y0015680D03*
D240*
X0176247Y0016000D03*
X0176247Y0026120D03*
X0161887Y0025840D03*
X0161887Y0015720D03*
D241*
X0196607Y0015720D03*
D242*
X0161887Y0015760D03*
X0161887Y0015800D03*
X0161887Y0025800D03*
D243*
X0161887Y0026120D03*
X0176247Y0026400D03*
X0176247Y0015760D03*
D244*
X0196587Y0015760D03*
D245*
X0196567Y0015800D03*
D246*
X0176247Y0016120D03*
X0176247Y0026040D03*
X0161887Y0025760D03*
X0161887Y0015840D03*
D247*
X0176247Y0015840D03*
X0176247Y0026320D03*
D248*
X0196547Y0015840D03*
D249*
X0150067Y0016080D03*
X0149947Y0015880D03*
D250*
X0161887Y0015880D03*
D251*
X0176247Y0015880D03*
D252*
X0196527Y0015880D03*
D253*
X0176247Y0016200D03*
X0176247Y0025960D03*
X0161887Y0015920D03*
D254*
X0196527Y0015920D03*
D255*
X0176247Y0016240D03*
X0176247Y0025920D03*
X0161887Y0025640D03*
X0161887Y0015960D03*
D256*
X0176247Y0015960D03*
X0176247Y0026160D03*
D257*
X0196507Y0015960D03*
D258*
X0161887Y0016000D03*
X0161887Y0025560D03*
D259*
X0196487Y0016000D03*
D260*
X0176247Y0016320D03*
X0176247Y0016360D03*
X0176247Y0025800D03*
X0161887Y0025520D03*
X0161887Y0016040D03*
D261*
X0176267Y0016040D03*
D262*
X0196467Y0016040D03*
D263*
X0161887Y0016080D03*
D264*
X0176247Y0016080D03*
X0176247Y0026080D03*
D265*
X0196447Y0016080D03*
D266*
X0196427Y0016120D03*
X0196427Y0016160D03*
D267*
X0176247Y0016440D03*
X0176247Y0025720D03*
X0161887Y0025440D03*
X0161887Y0016160D03*
D268*
X0161887Y0025720D03*
X0176247Y0026000D03*
X0176247Y0016160D03*
D269*
X0161887Y0026560D03*
X0150167Y0016240D03*
X0150127Y0016200D03*
D270*
X0196407Y0016200D03*
D271*
X0161887Y0016240D03*
X0161887Y0025320D03*
D272*
X0196387Y0016240D03*
D273*
X0161887Y0016280D03*
D274*
X0176247Y0016280D03*
D275*
X0196367Y0016280D03*
D276*
X0176247Y0016600D03*
X0176247Y0025560D03*
X0161887Y0016320D03*
D277*
X0196367Y0016320D03*
D278*
X0161887Y0026600D03*
X0150287Y0016400D03*
X0150247Y0016360D03*
D279*
X0196347Y0016360D03*
D280*
X0196327Y0016400D03*
D281*
X0196307Y0016440D03*
D282*
X0150347Y0016480D03*
D283*
X0161887Y0016480D03*
X0161887Y0025080D03*
D284*
X0176247Y0025680D03*
X0176247Y0016480D03*
D285*
X0196307Y0016480D03*
D286*
X0161887Y0016520D03*
D287*
X0196287Y0016520D03*
D288*
X0200187Y0016960D03*
X0179587Y0016840D03*
X0172907Y0016840D03*
X0158547Y0016560D03*
X0148347Y0022640D03*
X0150987Y0028040D03*
D289*
X0196267Y0016560D03*
D290*
X0195627Y0027560D03*
X0165387Y0016600D03*
X0158387Y0016600D03*
X0148187Y0022760D03*
D291*
X0149327Y0022000D03*
X0154487Y0019200D03*
X0161887Y0027440D03*
X0169007Y0022960D03*
X0176247Y0027720D03*
X0183047Y0018440D03*
X0199567Y0016600D03*
D292*
X0188747Y0033040D03*
X0165507Y0016640D03*
X0148067Y0022840D03*
D293*
X0150027Y0025880D03*
X0150627Y0016680D03*
D294*
X0158207Y0016680D03*
D295*
X0165567Y0016680D03*
D296*
X0176247Y0016680D03*
D297*
X0192067Y0016680D03*
D298*
X0199787Y0016680D03*
D299*
X0191907Y0016760D03*
X0180027Y0017000D03*
X0172467Y0017000D03*
X0165667Y0016720D03*
X0158107Y0016720D03*
X0147907Y0022960D03*
X0188827Y0033160D03*
D300*
X0188307Y0032240D03*
X0188267Y0032200D03*
X0187307Y0031000D03*
X0183347Y0022640D03*
X0183347Y0019520D03*
X0183347Y0019440D03*
X0169107Y0019560D03*
X0169027Y0022320D03*
X0155107Y0018560D03*
X0155067Y0018640D03*
X0155027Y0018720D03*
X0154987Y0018760D03*
X0148827Y0022320D03*
X0195627Y0027360D03*
X0199867Y0016720D03*
D301*
X0199927Y0024240D03*
X0191327Y0024240D03*
X0191287Y0017200D03*
X0191327Y0017160D03*
X0186087Y0030520D03*
X0171887Y0024720D03*
X0166287Y0017160D03*
X0157487Y0017160D03*
X0152967Y0016760D03*
X0157527Y0024440D03*
X0161887Y0027960D03*
D302*
X0158067Y0024840D03*
X0158027Y0016760D03*
X0172387Y0017040D03*
X0172427Y0025120D03*
X0191867Y0024640D03*
X0195627Y0027640D03*
X0199387Y0024640D03*
X0191827Y0016800D03*
D303*
X0200547Y0017400D03*
X0186547Y0030800D03*
X0180107Y0017040D03*
X0165747Y0016760D03*
X0165707Y0024840D03*
D304*
X0161887Y0025120D03*
X0176247Y0025400D03*
X0176247Y0016760D03*
D305*
X0183407Y0019760D03*
X0183407Y0019800D03*
X0183407Y0019840D03*
X0183407Y0022320D03*
X0183407Y0022360D03*
X0187247Y0030960D03*
X0188367Y0032360D03*
X0199927Y0016760D03*
X0150927Y0027920D03*
D306*
X0151107Y0028160D03*
X0157987Y0024800D03*
X0165787Y0024800D03*
X0157987Y0016800D03*
X0188867Y0033240D03*
X0191787Y0024600D03*
D307*
X0183467Y0021920D03*
X0183467Y0021840D03*
X0183467Y0021800D03*
X0183467Y0021760D03*
X0183467Y0020360D03*
X0183467Y0020320D03*
X0183467Y0020240D03*
X0183467Y0020200D03*
X0169107Y0020000D03*
X0169107Y0019960D03*
X0169107Y0019920D03*
X0148667Y0022440D03*
X0199987Y0016800D03*
D308*
X0201007Y0018360D03*
X0191007Y0023920D03*
X0185807Y0030240D03*
X0189087Y0033560D03*
X0180967Y0024360D03*
X0181007Y0024320D03*
X0181007Y0017840D03*
X0171527Y0017800D03*
X0171487Y0017840D03*
X0171487Y0024320D03*
X0171527Y0024360D03*
X0166647Y0024040D03*
X0166647Y0017560D03*
X0157127Y0024040D03*
X0153127Y0016840D03*
X0147287Y0025000D03*
D309*
X0157907Y0016840D03*
X0165867Y0016840D03*
X0172267Y0017120D03*
X0180227Y0017120D03*
X0191747Y0024560D03*
X0199507Y0024560D03*
X0200627Y0017520D03*
D310*
X0201047Y0018480D03*
X0190847Y0017680D03*
X0181047Y0017880D03*
X0171447Y0017880D03*
X0157007Y0023880D03*
X0153207Y0016880D03*
D311*
X0157847Y0016880D03*
D312*
X0165927Y0016880D03*
X0147727Y0023080D03*
X0191687Y0016880D03*
D313*
X0200307Y0017080D03*
X0179747Y0016880D03*
X0172747Y0016880D03*
X0151027Y0028080D03*
D314*
X0169047Y0021280D03*
X0169087Y0020680D03*
X0169087Y0020480D03*
X0200087Y0016880D03*
D315*
X0191587Y0016960D03*
X0180347Y0017200D03*
X0180387Y0024920D03*
X0172107Y0024920D03*
X0166027Y0024640D03*
X0172147Y0017200D03*
X0165987Y0016920D03*
X0157787Y0016920D03*
X0157747Y0024640D03*
D316*
X0157867Y0024720D03*
X0165907Y0024720D03*
X0172227Y0025000D03*
X0180267Y0025000D03*
X0191667Y0024520D03*
X0191627Y0016920D03*
X0200667Y0017600D03*
D317*
X0200147Y0016920D03*
D318*
X0201127Y0018720D03*
X0201127Y0018760D03*
X0200607Y0023440D03*
X0190647Y0023440D03*
X0190647Y0017960D03*
X0190687Y0017920D03*
X0181287Y0018200D03*
X0181287Y0023920D03*
X0171207Y0023920D03*
X0166967Y0023600D03*
X0166927Y0023640D03*
X0166927Y0017920D03*
X0171207Y0018200D03*
X0161887Y0028040D03*
X0156847Y0023640D03*
X0156807Y0023600D03*
X0153287Y0016960D03*
D319*
X0157727Y0016960D03*
X0166047Y0016960D03*
X0172087Y0017240D03*
X0180407Y0017240D03*
X0191527Y0017000D03*
X0191567Y0024440D03*
X0199687Y0024440D03*
X0200727Y0017720D03*
D320*
X0201167Y0018920D03*
X0200727Y0023240D03*
X0190607Y0023360D03*
X0190567Y0023320D03*
X0190527Y0023240D03*
X0190527Y0018160D03*
X0190567Y0018120D03*
X0190607Y0018040D03*
X0185447Y0029760D03*
X0171127Y0023800D03*
X0171087Y0023720D03*
X0167087Y0023400D03*
X0167047Y0023440D03*
X0167007Y0023520D03*
X0167047Y0018120D03*
X0171087Y0018400D03*
X0156767Y0023520D03*
X0156727Y0023440D03*
X0156687Y0023400D03*
X0153367Y0017040D03*
X0153327Y0017000D03*
D321*
X0157687Y0017000D03*
X0157647Y0024560D03*
X0166127Y0024560D03*
X0172007Y0024840D03*
X0172007Y0017320D03*
X0180487Y0024840D03*
X0191487Y0017040D03*
X0200767Y0017800D03*
X0147567Y0023200D03*
D322*
X0157707Y0024600D03*
X0166107Y0017000D03*
X0188947Y0033360D03*
X0191507Y0024400D03*
X0199747Y0024400D03*
X0200747Y0017760D03*
D323*
X0200227Y0017000D03*
X0195627Y0027520D03*
X0188627Y0032840D03*
D324*
X0195627Y0027720D03*
X0157627Y0017040D03*
D325*
X0166147Y0017040D03*
X0171947Y0017360D03*
X0180507Y0017320D03*
X0180547Y0017360D03*
X0191467Y0024360D03*
X0186187Y0030600D03*
X0188987Y0033400D03*
X0199787Y0024360D03*
X0200787Y0017840D03*
X0151147Y0028200D03*
D326*
X0148267Y0022720D03*
X0158427Y0025000D03*
X0165347Y0025000D03*
X0200267Y0017040D03*
D327*
X0201207Y0019080D03*
X0200807Y0023080D03*
X0190447Y0023080D03*
X0189167Y0033680D03*
X0153407Y0017080D03*
D328*
X0157587Y0017080D03*
X0166187Y0017080D03*
D329*
X0172347Y0017080D03*
X0180147Y0017080D03*
X0180147Y0025080D03*
X0172347Y0025080D03*
D330*
X0191427Y0017080D03*
D331*
X0191387Y0017120D03*
X0200827Y0017920D03*
X0180587Y0017400D03*
X0180627Y0024720D03*
X0171907Y0017400D03*
X0166227Y0017120D03*
X0166267Y0024440D03*
X0157547Y0017120D03*
D332*
X0172207Y0017160D03*
X0200647Y0017560D03*
D333*
X0199567Y0024520D03*
X0186367Y0030720D03*
X0180287Y0017160D03*
D334*
X0190267Y0018720D03*
X0190307Y0018600D03*
X0190267Y0022720D03*
X0190307Y0022800D03*
X0185187Y0029240D03*
X0185227Y0029320D03*
X0176267Y0028360D03*
X0170827Y0023240D03*
X0170787Y0023160D03*
X0167347Y0018720D03*
X0167307Y0018640D03*
X0167307Y0018600D03*
X0156467Y0022960D03*
X0156427Y0022840D03*
X0156387Y0022760D03*
X0153507Y0017240D03*
X0153467Y0017200D03*
X0146987Y0024760D03*
X0201027Y0022600D03*
X0201267Y0019400D03*
X0201267Y0019360D03*
X0201267Y0019320D03*
D335*
X0200867Y0018000D03*
X0199987Y0024200D03*
X0191267Y0024200D03*
X0180707Y0024640D03*
X0171787Y0024640D03*
X0166347Y0024360D03*
X0166307Y0024400D03*
X0166307Y0017200D03*
X0157467Y0017200D03*
X0157427Y0024360D03*
X0157467Y0024400D03*
D336*
X0200407Y0017200D03*
D337*
X0200887Y0018040D03*
X0200007Y0024160D03*
X0191247Y0024160D03*
X0191247Y0017240D03*
X0171767Y0017520D03*
X0166367Y0017240D03*
X0157407Y0017240D03*
D338*
X0158227Y0024920D03*
X0151067Y0028120D03*
X0165547Y0024920D03*
X0172587Y0025200D03*
X0179907Y0025200D03*
X0192027Y0024720D03*
X0195627Y0027600D03*
X0199227Y0024720D03*
X0200427Y0017240D03*
D339*
X0155647Y0017280D03*
D340*
X0157347Y0024280D03*
X0166427Y0024280D03*
X0166387Y0017280D03*
X0189027Y0033480D03*
X0200907Y0018080D03*
D341*
X0172047Y0017280D03*
D342*
X0172067Y0024880D03*
X0180427Y0024880D03*
X0180467Y0017280D03*
D343*
X0191207Y0017280D03*
D344*
X0191947Y0024680D03*
X0199307Y0024680D03*
X0200467Y0017280D03*
D345*
X0200487Y0017320D03*
X0188807Y0033120D03*
X0180007Y0025160D03*
X0172487Y0025160D03*
X0161887Y0027840D03*
X0147967Y0022920D03*
D346*
X0180087Y0025120D03*
X0200527Y0017360D03*
D347*
X0187007Y0028320D03*
X0155607Y0017400D03*
D348*
X0157207Y0024120D03*
X0157247Y0024160D03*
X0161887Y0028000D03*
X0166527Y0024160D03*
X0166567Y0024120D03*
X0166567Y0017440D03*
X0166527Y0017400D03*
X0171567Y0024400D03*
X0171607Y0024440D03*
X0180887Y0024440D03*
X0180927Y0024400D03*
X0180927Y0017720D03*
X0191047Y0017440D03*
X0191087Y0017400D03*
X0191047Y0023960D03*
X0191087Y0024000D03*
X0185887Y0030320D03*
X0200167Y0024000D03*
X0200207Y0023960D03*
X0200967Y0018240D03*
X0147367Y0023360D03*
D349*
X0171847Y0017440D03*
X0180647Y0017440D03*
X0189007Y0033440D03*
X0200847Y0017960D03*
D350*
X0155567Y0017480D03*
X0150447Y0021080D03*
D351*
X0166587Y0017480D03*
X0200987Y0018280D03*
D352*
X0186027Y0030480D03*
X0180667Y0024680D03*
X0180667Y0017480D03*
X0171827Y0017480D03*
X0171827Y0024680D03*
X0147467Y0023280D03*
D353*
X0185827Y0030280D03*
X0191027Y0017480D03*
D354*
X0200607Y0017480D03*
D355*
X0200227Y0023920D03*
X0166627Y0017520D03*
D356*
X0180727Y0017520D03*
D357*
X0180947Y0017760D03*
X0180987Y0017800D03*
X0171587Y0017720D03*
X0171547Y0017760D03*
X0190987Y0017520D03*
X0200987Y0018320D03*
X0147307Y0023400D03*
D358*
X0149667Y0021760D03*
X0149707Y0021720D03*
X0150747Y0020840D03*
X0155547Y0017560D03*
X0150747Y0027600D03*
X0186867Y0028440D03*
D359*
X0185947Y0030400D03*
X0185987Y0030440D03*
X0180747Y0024600D03*
X0180787Y0024560D03*
X0180747Y0017560D03*
X0171747Y0017560D03*
X0171707Y0024560D03*
X0171747Y0024600D03*
X0166387Y0024320D03*
X0157387Y0024320D03*
X0147427Y0023320D03*
X0191187Y0024120D03*
X0195627Y0027760D03*
X0200067Y0024120D03*
D360*
X0200307Y0023840D03*
X0200347Y0023800D03*
X0201027Y0018400D03*
X0195627Y0027800D03*
X0190947Y0023840D03*
X0190907Y0023800D03*
X0190907Y0017600D03*
X0190947Y0017560D03*
X0181067Y0024240D03*
X0185747Y0030200D03*
X0171427Y0024240D03*
X0166707Y0023960D03*
X0166667Y0024000D03*
X0157107Y0024000D03*
X0157067Y0023960D03*
D361*
X0155507Y0017600D03*
X0149547Y0021840D03*
X0168987Y0023120D03*
X0195627Y0027160D03*
D362*
X0190887Y0023760D03*
X0190887Y0017640D03*
X0181087Y0017920D03*
X0181127Y0024160D03*
X0181087Y0024200D03*
X0185687Y0030120D03*
X0185727Y0030160D03*
X0171367Y0024160D03*
X0166727Y0023920D03*
X0166727Y0017640D03*
X0166687Y0017600D03*
X0200367Y0023760D03*
D363*
X0155487Y0017680D03*
D364*
X0166747Y0017680D03*
X0181187Y0024080D03*
X0185667Y0030080D03*
X0190827Y0023680D03*
X0200427Y0023680D03*
D365*
X0180867Y0024480D03*
X0180867Y0017680D03*
X0171627Y0017680D03*
X0171627Y0024480D03*
D366*
X0186307Y0030680D03*
X0200707Y0017680D03*
D367*
X0195627Y0027200D03*
X0183027Y0023760D03*
X0183027Y0023720D03*
X0183027Y0018400D03*
X0168987Y0023000D03*
X0155467Y0017720D03*
X0149387Y0021960D03*
D368*
X0156987Y0023840D03*
X0166787Y0023840D03*
X0166787Y0017720D03*
X0171347Y0018000D03*
X0171387Y0017960D03*
X0171347Y0024120D03*
X0181147Y0024120D03*
X0181147Y0018000D03*
X0181107Y0017960D03*
X0190787Y0017760D03*
X0190827Y0017720D03*
X0190787Y0023640D03*
X0189107Y0033600D03*
X0200467Y0023640D03*
X0201067Y0018560D03*
X0201067Y0018520D03*
D369*
X0183067Y0018520D03*
X0183067Y0023640D03*
X0168987Y0022920D03*
X0169147Y0018920D03*
X0155467Y0017760D03*
D370*
X0155427Y0017840D03*
X0149267Y0022040D03*
X0168987Y0022840D03*
X0169147Y0019000D03*
X0183107Y0018600D03*
X0183107Y0023520D03*
X0195627Y0027240D03*
D371*
X0190747Y0023560D03*
X0190707Y0023520D03*
X0190747Y0017840D03*
X0181267Y0018160D03*
X0181227Y0018120D03*
X0181267Y0023960D03*
X0181227Y0024000D03*
X0176267Y0028320D03*
X0171267Y0024000D03*
X0171227Y0023960D03*
X0171227Y0018160D03*
X0171267Y0018120D03*
X0166867Y0017840D03*
X0166867Y0023720D03*
X0156907Y0023720D03*
X0185547Y0029920D03*
X0185587Y0029960D03*
X0200507Y0023560D03*
X0200547Y0023520D03*
X0201107Y0018640D03*
D372*
X0155407Y0017880D03*
X0149207Y0022080D03*
D373*
X0156867Y0023680D03*
X0166907Y0023680D03*
X0166907Y0017880D03*
X0190707Y0017880D03*
X0201107Y0018680D03*
D374*
X0201047Y0018440D03*
X0200407Y0023720D03*
X0190847Y0023720D03*
X0171407Y0024200D03*
X0171407Y0017920D03*
X0157047Y0023920D03*
X0147247Y0023440D03*
D375*
X0147147Y0023520D03*
X0147147Y0024920D03*
X0166947Y0017960D03*
X0171107Y0018360D03*
X0171147Y0018320D03*
X0171107Y0023760D03*
X0171147Y0023840D03*
X0181307Y0018240D03*
X0185507Y0029840D03*
X0189147Y0033640D03*
X0201147Y0018840D03*
X0201147Y0018800D03*
D376*
X0200667Y0023320D03*
X0200627Y0023360D03*
X0200627Y0023400D03*
X0190627Y0023400D03*
X0190627Y0018000D03*
X0185467Y0029800D03*
X0171187Y0018240D03*
X0166987Y0018040D03*
X0166987Y0018000D03*
X0166987Y0023560D03*
X0156787Y0023560D03*
D377*
X0156927Y0023760D03*
X0171327Y0018040D03*
D378*
X0183207Y0018880D03*
X0187647Y0031280D03*
X0155327Y0018080D03*
D379*
X0167027Y0018080D03*
X0190587Y0018080D03*
D380*
X0181207Y0018080D03*
X0171287Y0018080D03*
X0147207Y0023480D03*
D381*
X0147107Y0023560D03*
X0156667Y0023360D03*
X0167107Y0023360D03*
X0170987Y0023560D03*
X0171067Y0018440D03*
X0167107Y0018240D03*
X0167107Y0018200D03*
X0167067Y0018160D03*
X0185387Y0029640D03*
X0190507Y0023200D03*
X0190507Y0018200D03*
X0201187Y0018960D03*
X0201187Y0019000D03*
X0200787Y0023120D03*
X0200747Y0023160D03*
X0200747Y0023200D03*
D382*
X0188187Y0032040D03*
X0188147Y0032000D03*
X0187467Y0031120D03*
X0183267Y0023040D03*
X0183267Y0023000D03*
X0183267Y0019160D03*
X0183267Y0019120D03*
X0155267Y0018240D03*
X0155267Y0018200D03*
X0148947Y0022240D03*
X0150867Y0027840D03*
D383*
X0166507Y0024200D03*
X0185907Y0030360D03*
X0191107Y0024040D03*
X0200947Y0018200D03*
D384*
X0201207Y0019040D03*
X0200847Y0023000D03*
X0200807Y0023040D03*
X0190487Y0023160D03*
X0190447Y0023120D03*
X0190407Y0018400D03*
X0190447Y0018320D03*
X0190487Y0018240D03*
X0185327Y0029560D03*
X0185367Y0029600D03*
X0171007Y0023600D03*
X0170967Y0023520D03*
X0170927Y0023440D03*
X0167167Y0023240D03*
X0167127Y0023320D03*
X0167207Y0018400D03*
X0167167Y0018320D03*
X0170967Y0018600D03*
X0171007Y0018560D03*
X0156647Y0023320D03*
X0156607Y0023240D03*
X0156567Y0023160D03*
X0147047Y0023600D03*
X0147047Y0024840D03*
D385*
X0155247Y0018280D03*
X0169007Y0022480D03*
X0188207Y0032080D03*
D386*
X0185387Y0029680D03*
X0190547Y0023280D03*
X0190467Y0018280D03*
X0167147Y0018280D03*
X0167147Y0023280D03*
D387*
X0171167Y0023880D03*
X0171167Y0018280D03*
X0181327Y0023880D03*
X0185527Y0029880D03*
X0190687Y0023480D03*
X0200567Y0023480D03*
D388*
X0181347Y0018280D03*
X0156747Y0023480D03*
D389*
X0154867Y0018920D03*
X0155187Y0018400D03*
X0155187Y0018360D03*
X0155227Y0018320D03*
X0169107Y0019440D03*
X0169027Y0022400D03*
X0183307Y0022800D03*
X0183307Y0022840D03*
X0183307Y0019320D03*
X0188227Y0032120D03*
D390*
X0169127Y0019480D03*
X0155127Y0018480D03*
X0150887Y0027880D03*
D391*
X0167247Y0018480D03*
X0170847Y0023280D03*
X0201247Y0019280D03*
D392*
X0171027Y0018480D03*
X0156627Y0023280D03*
D393*
X0183067Y0018480D03*
D394*
X0190367Y0018480D03*
X0190327Y0022880D03*
X0156527Y0023080D03*
D395*
X0171027Y0023640D03*
X0171027Y0018520D03*
X0185427Y0029720D03*
X0195627Y0027840D03*
D396*
X0190367Y0022920D03*
X0190327Y0022840D03*
X0190287Y0022760D03*
X0190287Y0018640D03*
X0190327Y0018560D03*
X0200927Y0022800D03*
X0200927Y0022840D03*
X0200967Y0022760D03*
X0200967Y0022720D03*
X0170887Y0023360D03*
X0167287Y0018560D03*
X0156487Y0023000D03*
D397*
X0169127Y0019040D03*
X0183127Y0018640D03*
D398*
X0183347Y0019480D03*
X0183347Y0022680D03*
X0169027Y0022280D03*
X0155027Y0018680D03*
D399*
X0156427Y0022880D03*
X0146987Y0023680D03*
X0167347Y0018680D03*
X0185187Y0029280D03*
X0190267Y0018680D03*
X0200987Y0022680D03*
D400*
X0200907Y0022880D03*
X0185307Y0029480D03*
X0170947Y0023480D03*
X0170947Y0018680D03*
D401*
X0161887Y0027480D03*
X0183127Y0023480D03*
X0183127Y0018680D03*
D402*
X0190207Y0018800D03*
X0190207Y0018840D03*
X0190247Y0018760D03*
X0190207Y0022560D03*
X0190207Y0022600D03*
X0190247Y0022640D03*
X0185167Y0029160D03*
X0185167Y0029200D03*
X0189207Y0033720D03*
X0201007Y0022640D03*
X0201047Y0022560D03*
X0201047Y0022520D03*
X0201087Y0022440D03*
X0201087Y0022400D03*
X0201287Y0019520D03*
X0201287Y0019440D03*
X0156407Y0022800D03*
X0156367Y0022720D03*
X0146967Y0023720D03*
D403*
X0169147Y0018840D03*
D404*
X0183307Y0019280D03*
X0183307Y0022880D03*
X0187427Y0031080D03*
X0154907Y0018880D03*
X0148907Y0022280D03*
D405*
X0169147Y0018880D03*
D406*
X0185107Y0029080D03*
X0190187Y0022480D03*
X0190107Y0022280D03*
X0190187Y0018880D03*
X0201307Y0019680D03*
X0201147Y0022280D03*
X0201067Y0022480D03*
D407*
X0200687Y0023280D03*
X0201167Y0018880D03*
X0171047Y0023680D03*
X0167047Y0023480D03*
X0147087Y0024880D03*
D408*
X0149087Y0022160D03*
X0150847Y0027800D03*
X0154727Y0019040D03*
X0161887Y0027520D03*
X0169007Y0022640D03*
X0169007Y0022600D03*
X0169127Y0019240D03*
X0169127Y0019200D03*
X0176247Y0027800D03*
X0183207Y0023240D03*
X0183207Y0023200D03*
X0183207Y0018920D03*
X0187607Y0031240D03*
X0187687Y0031320D03*
X0187927Y0031640D03*
X0187967Y0031720D03*
X0188007Y0031760D03*
D409*
X0185107Y0029040D03*
X0185067Y0028960D03*
X0185067Y0028920D03*
X0190187Y0022520D03*
X0190147Y0022440D03*
X0190147Y0022400D03*
X0190107Y0019120D03*
X0190147Y0019040D03*
X0190147Y0019000D03*
X0190147Y0018960D03*
X0190187Y0018920D03*
X0201307Y0019560D03*
X0201307Y0019600D03*
X0201307Y0019640D03*
X0201147Y0022240D03*
X0201107Y0022320D03*
X0201107Y0022360D03*
X0156347Y0022640D03*
X0156307Y0022560D03*
X0156307Y0022520D03*
X0156267Y0022440D03*
X0146947Y0023760D03*
X0146947Y0024720D03*
D410*
X0154827Y0018960D03*
X0195627Y0027320D03*
D411*
X0188067Y0031840D03*
X0188027Y0031800D03*
X0183227Y0023160D03*
X0183227Y0023120D03*
X0183227Y0019000D03*
X0183227Y0018960D03*
X0149027Y0022200D03*
D412*
X0169147Y0019080D03*
D413*
X0169127Y0019280D03*
X0183247Y0019080D03*
X0183247Y0023080D03*
X0188087Y0031880D03*
D414*
X0185047Y0028880D03*
X0190047Y0022080D03*
X0190127Y0019080D03*
X0201247Y0021880D03*
X0201207Y0022080D03*
X0156287Y0022480D03*
X0156207Y0022280D03*
X0146927Y0024680D03*
D415*
X0169127Y0019120D03*
D416*
X0156247Y0022320D03*
X0156247Y0022360D03*
X0156247Y0022400D03*
X0156207Y0022240D03*
X0146927Y0023800D03*
X0185007Y0028760D03*
X0185047Y0028840D03*
X0185087Y0029000D03*
X0190127Y0022360D03*
X0190127Y0022320D03*
X0190087Y0022240D03*
X0190087Y0022200D03*
X0190047Y0019320D03*
X0190087Y0019200D03*
X0190087Y0019160D03*
X0201327Y0019720D03*
X0201327Y0019760D03*
X0201327Y0019800D03*
X0201327Y0019840D03*
X0201207Y0022000D03*
X0201207Y0022040D03*
X0201167Y0022120D03*
X0201167Y0022160D03*
X0201167Y0022200D03*
D417*
X0183287Y0022920D03*
X0183287Y0022960D03*
X0183287Y0019240D03*
X0183287Y0019200D03*
X0176247Y0027840D03*
X0169007Y0022440D03*
X0169127Y0019400D03*
X0169127Y0019360D03*
X0161887Y0027560D03*
D418*
X0156187Y0022200D03*
X0156187Y0022160D03*
X0156187Y0022120D03*
X0146867Y0023920D03*
X0146867Y0024560D03*
X0184987Y0028640D03*
X0184987Y0028720D03*
X0185027Y0028800D03*
X0189227Y0033760D03*
X0190067Y0022160D03*
X0190067Y0022120D03*
X0190027Y0022040D03*
X0190027Y0022000D03*
X0190027Y0021960D03*
X0189987Y0021840D03*
X0189987Y0019560D03*
X0189987Y0019520D03*
X0190027Y0019440D03*
X0190027Y0019400D03*
X0190027Y0019360D03*
X0190067Y0019240D03*
X0201267Y0021720D03*
X0201267Y0021760D03*
X0201267Y0021800D03*
X0201267Y0021840D03*
X0201227Y0021920D03*
X0201227Y0021960D03*
D419*
X0176247Y0027680D03*
X0154367Y0019280D03*
D420*
X0184987Y0028680D03*
X0190067Y0019280D03*
X0195627Y0027880D03*
D421*
X0186927Y0028400D03*
X0154207Y0019400D03*
X0150527Y0021000D03*
X0150487Y0021040D03*
X0149887Y0021560D03*
X0149847Y0021600D03*
X0149807Y0021640D03*
X0150727Y0027560D03*
D422*
X0154147Y0019440D03*
D423*
X0154087Y0019480D03*
X0150687Y0027480D03*
D424*
X0146847Y0024480D03*
X0146887Y0023880D03*
X0156167Y0022080D03*
X0156127Y0021880D03*
X0156087Y0021680D03*
X0189927Y0021480D03*
X0189967Y0021680D03*
X0190007Y0021880D03*
X0189927Y0019880D03*
X0189967Y0019680D03*
X0190007Y0019480D03*
X0201367Y0020080D03*
X0201367Y0020280D03*
X0201367Y0021080D03*
X0201327Y0021480D03*
X0201287Y0021680D03*
D425*
X0201287Y0019480D03*
X0190247Y0022680D03*
X0161887Y0028080D03*
X0156367Y0022680D03*
D426*
X0153987Y0019560D03*
X0187107Y0028200D03*
D427*
X0153907Y0019600D03*
D428*
X0169127Y0019600D03*
D429*
X0156127Y0021840D03*
X0156087Y0021800D03*
X0156087Y0021760D03*
X0156087Y0021720D03*
X0156127Y0021920D03*
X0156127Y0021960D03*
X0156047Y0021440D03*
X0146847Y0023960D03*
X0146847Y0024000D03*
X0146847Y0024520D03*
X0184967Y0028560D03*
X0184967Y0028600D03*
X0190007Y0021920D03*
X0189967Y0021800D03*
X0189967Y0021760D03*
X0189967Y0021720D03*
X0189927Y0021560D03*
X0189927Y0021520D03*
X0189927Y0019920D03*
X0189927Y0019840D03*
X0189967Y0019720D03*
X0189967Y0019640D03*
X0189967Y0019600D03*
X0201367Y0020120D03*
X0201367Y0020160D03*
X0201367Y0020200D03*
X0201367Y0020240D03*
X0201367Y0020320D03*
X0201367Y0020360D03*
X0201367Y0020400D03*
X0201367Y0020440D03*
X0201367Y0020960D03*
X0201367Y0021000D03*
X0201367Y0021040D03*
X0201367Y0021120D03*
X0201367Y0021160D03*
X0201327Y0021360D03*
X0201327Y0021400D03*
X0201327Y0021440D03*
X0201327Y0021520D03*
X0201287Y0021640D03*
D430*
X0188347Y0032320D03*
X0183387Y0022440D03*
X0183387Y0022400D03*
X0183387Y0019720D03*
X0183387Y0019640D03*
X0169107Y0019640D03*
X0169107Y0019720D03*
X0169027Y0022120D03*
X0169027Y0022160D03*
X0169027Y0022200D03*
X0148787Y0022360D03*
D431*
X0153807Y0019680D03*
D432*
X0169107Y0019680D03*
X0183387Y0019680D03*
X0183387Y0022480D03*
D433*
X0176247Y0027400D03*
X0161887Y0027120D03*
X0153767Y0019720D03*
X0150567Y0027160D03*
D434*
X0150487Y0027000D03*
X0153607Y0019840D03*
X0161887Y0027040D03*
X0176247Y0027320D03*
X0187367Y0027360D03*
X0187367Y0027400D03*
X0187367Y0027440D03*
D435*
X0169107Y0019880D03*
D436*
X0169027Y0022080D03*
X0183427Y0019880D03*
D437*
X0201347Y0019880D03*
D438*
X0195627Y0027400D03*
X0188387Y0032400D03*
X0183427Y0022240D03*
X0183427Y0022200D03*
X0183427Y0022160D03*
X0183427Y0022120D03*
X0183427Y0020000D03*
X0183427Y0019960D03*
X0183427Y0019920D03*
X0169027Y0022000D03*
X0169027Y0022040D03*
D439*
X0156147Y0022040D03*
X0156147Y0022000D03*
X0146907Y0023840D03*
X0146907Y0024600D03*
X0146907Y0024640D03*
X0201307Y0021600D03*
X0201307Y0021560D03*
X0201347Y0020040D03*
X0201347Y0020000D03*
X0201347Y0019960D03*
X0201347Y0019920D03*
D440*
X0188447Y0032520D03*
X0187127Y0030920D03*
X0183487Y0021720D03*
X0183487Y0021640D03*
X0183487Y0021600D03*
X0183487Y0021560D03*
X0183487Y0021520D03*
X0183487Y0021440D03*
X0183487Y0021400D03*
X0183487Y0020720D03*
X0183487Y0020640D03*
X0183487Y0020600D03*
X0183487Y0020560D03*
X0183487Y0020520D03*
X0183487Y0020440D03*
X0183487Y0020400D03*
X0169087Y0020120D03*
X0169087Y0020040D03*
X0169047Y0021720D03*
X0169047Y0021760D03*
X0169047Y0021800D03*
X0150927Y0027960D03*
D441*
X0150207Y0026280D03*
X0149807Y0025480D03*
X0153287Y0020080D03*
D442*
X0169087Y0020080D03*
X0183487Y0020480D03*
X0183487Y0020680D03*
X0183487Y0021480D03*
X0183487Y0021680D03*
D443*
X0183447Y0022080D03*
X0183447Y0020080D03*
D444*
X0183507Y0020760D03*
X0183507Y0020800D03*
X0183507Y0020840D03*
X0183507Y0020920D03*
X0183507Y0020960D03*
X0183507Y0021000D03*
X0183507Y0021040D03*
X0183507Y0021120D03*
X0183507Y0021160D03*
X0183507Y0021200D03*
X0183507Y0021240D03*
X0183507Y0021320D03*
X0183507Y0021360D03*
X0195627Y0027440D03*
X0169107Y0020200D03*
X0169107Y0020160D03*
D445*
X0153067Y0020240D03*
D446*
X0153007Y0020280D03*
X0161887Y0026680D03*
D447*
X0161887Y0027680D03*
X0169087Y0020280D03*
D448*
X0183467Y0020280D03*
X0183467Y0021880D03*
D449*
X0152827Y0020440D03*
D450*
X0152767Y0020480D03*
X0161887Y0026480D03*
D451*
X0152707Y0020520D03*
D452*
X0150967Y0028000D03*
X0169047Y0021320D03*
X0169047Y0021240D03*
X0169047Y0021200D03*
X0169047Y0021160D03*
X0169047Y0021120D03*
X0169087Y0020760D03*
X0169087Y0020720D03*
X0169087Y0020640D03*
X0169087Y0020600D03*
X0169087Y0020560D03*
X0169087Y0020520D03*
X0192447Y0024840D03*
X0198807Y0024840D03*
D453*
X0152647Y0020560D03*
D454*
X0152607Y0020600D03*
X0161887Y0026360D03*
X0176247Y0026640D03*
D455*
X0176247Y0026600D03*
X0161887Y0026320D03*
X0152567Y0020640D03*
D456*
X0148467Y0022560D03*
X0169067Y0021040D03*
X0169067Y0021000D03*
X0169067Y0020960D03*
X0169067Y0020920D03*
X0169067Y0020840D03*
X0169067Y0020800D03*
D457*
X0150687Y0020880D03*
X0149767Y0021680D03*
D458*
X0169067Y0021080D03*
X0169067Y0020880D03*
X0188547Y0032680D03*
X0195627Y0027480D03*
D459*
X0183507Y0021280D03*
X0183507Y0021080D03*
X0183507Y0020880D03*
X0169027Y0021680D03*
X0148587Y0022480D03*
D460*
X0150627Y0020920D03*
X0195627Y0027120D03*
D461*
X0156027Y0021400D03*
X0156027Y0021360D03*
X0156027Y0021320D03*
X0156027Y0021240D03*
X0156027Y0021200D03*
X0156027Y0021160D03*
X0156027Y0021120D03*
X0146827Y0024040D03*
X0146827Y0024120D03*
X0146827Y0024160D03*
X0146827Y0024200D03*
X0146827Y0024240D03*
X0146827Y0024320D03*
X0146827Y0024360D03*
X0146827Y0024400D03*
X0146827Y0024440D03*
D462*
X0149947Y0021520D03*
X0150307Y0021200D03*
X0150347Y0021160D03*
X0150707Y0027520D03*
D463*
X0149987Y0021480D03*
X0150227Y0021280D03*
D464*
X0146827Y0024080D03*
X0146827Y0024280D03*
X0156027Y0021280D03*
D465*
X0169047Y0021480D03*
D466*
X0168987Y0023080D03*
X0186787Y0028480D03*
X0149507Y0021880D03*
D467*
X0169027Y0021880D03*
X0188427Y0032480D03*
D468*
X0183407Y0022280D03*
D469*
X0188247Y0032160D03*
X0169007Y0022360D03*
D470*
X0156327Y0022600D03*
X0185127Y0029120D03*
D471*
X0148307Y0022680D03*
D472*
X0168987Y0022680D03*
X0183187Y0023280D03*
X0187827Y0031480D03*
X0187947Y0031680D03*
X0195627Y0027280D03*
D473*
X0192147Y0024760D03*
X0158307Y0024960D03*
X0148147Y0022800D03*
D474*
X0148027Y0022880D03*
X0188787Y0033080D03*
D475*
X0186227Y0030640D03*
X0166067Y0024600D03*
X0147627Y0023160D03*
D476*
X0183047Y0023680D03*
D477*
X0166767Y0023880D03*
D478*
X0166607Y0024080D03*
X0157167Y0024080D03*
X0190967Y0023880D03*
X0200287Y0023880D03*
D479*
X0171327Y0024080D03*
D480*
X0171467Y0024280D03*
X0181027Y0024280D03*
D481*
X0191347Y0024280D03*
D482*
X0191607Y0024480D03*
X0199647Y0024480D03*
X0165967Y0024680D03*
X0157807Y0024680D03*
D483*
X0158127Y0024880D03*
D484*
X0165647Y0024880D03*
D485*
X0195627Y0024880D03*
D486*
X0195627Y0024920D03*
D487*
X0188927Y0033320D03*
X0180327Y0024960D03*
D488*
X0195627Y0024960D03*
D489*
X0195627Y0025040D03*
D490*
X0161887Y0027080D03*
X0149367Y0025080D03*
D491*
X0195627Y0025120D03*
D492*
X0195627Y0025160D03*
D493*
X0176247Y0027240D03*
X0161887Y0026960D03*
X0150407Y0026760D03*
X0149567Y0025200D03*
D494*
X0195627Y0025200D03*
X0195627Y0025240D03*
D495*
X0150367Y0026680D03*
X0149647Y0025280D03*
D496*
X0161887Y0025280D03*
D497*
X0161887Y0027720D03*
X0172927Y0025320D03*
X0176247Y0028000D03*
X0179567Y0025320D03*
X0188607Y0032760D03*
D498*
X0192307Y0025320D03*
D499*
X0150307Y0026520D03*
X0149707Y0025360D03*
D500*
X0192287Y0025360D03*
D501*
X0192267Y0025400D03*
X0192267Y0025440D03*
D502*
X0161887Y0025480D03*
D503*
X0176247Y0025480D03*
D504*
X0192247Y0025480D03*
D505*
X0150227Y0026320D03*
X0149827Y0025520D03*
D506*
X0192227Y0025520D03*
D507*
X0192207Y0025560D03*
D508*
X0161907Y0025600D03*
D509*
X0192187Y0025600D03*
D510*
X0192167Y0025640D03*
D511*
X0150127Y0026080D03*
X0149927Y0025680D03*
D512*
X0161887Y0025680D03*
D513*
X0192147Y0025680D03*
D514*
X0150107Y0026040D03*
X0149947Y0025720D03*
D515*
X0192127Y0025720D03*
D516*
X0192107Y0025760D03*
D517*
X0192087Y0025800D03*
D518*
X0192067Y0025840D03*
D519*
X0176267Y0025880D03*
D520*
X0192047Y0025880D03*
D521*
X0192027Y0025920D03*
D522*
X0192007Y0025960D03*
D523*
X0191987Y0026000D03*
D524*
X0191967Y0026040D03*
D525*
X0161887Y0026080D03*
D526*
X0191947Y0026080D03*
D527*
X0191927Y0026120D03*
D528*
X0191907Y0026160D03*
D529*
X0191887Y0026200D03*
D530*
X0191867Y0026240D03*
D531*
X0176267Y0026280D03*
D532*
X0191847Y0026280D03*
D533*
X0191827Y0026320D03*
D534*
X0191787Y0026360D03*
D535*
X0191767Y0026400D03*
D536*
X0176267Y0026440D03*
D537*
X0191747Y0026440D03*
D538*
X0161887Y0026880D03*
X0150287Y0026480D03*
D539*
X0176247Y0026480D03*
D540*
X0191727Y0026480D03*
D541*
X0191687Y0026520D03*
D542*
X0150327Y0026560D03*
X0150327Y0026600D03*
D543*
X0191667Y0026560D03*
D544*
X0191647Y0026600D03*
D545*
X0191607Y0026640D03*
D546*
X0191587Y0026680D03*
D547*
X0191567Y0026720D03*
D548*
X0191527Y0026760D03*
D549*
X0150427Y0026800D03*
D550*
X0191507Y0026800D03*
D551*
X0191467Y0026840D03*
D552*
X0176247Y0026880D03*
D553*
X0187407Y0026880D03*
X0187407Y0027080D03*
D554*
X0195627Y0026880D03*
D555*
X0176247Y0027000D03*
D556*
X0195627Y0027000D03*
D557*
X0195627Y0027080D03*
D558*
X0187087Y0028240D03*
X0176247Y0027520D03*
X0161887Y0027240D03*
X0150647Y0027400D03*
D559*
X0150587Y0027280D03*
D560*
X0187387Y0027280D03*
D561*
X0161887Y0027400D03*
X0150767Y0027640D03*
D562*
X0187347Y0027480D03*
D563*
X0150787Y0027680D03*
D564*
X0187307Y0027680D03*
D565*
X0187307Y0027720D03*
D566*
X0161887Y0027880D03*
D567*
X0176247Y0027880D03*
D568*
X0187247Y0027880D03*
D569*
X0195627Y0027960D03*
D570*
X0195627Y0028000D03*
D571*
X0195627Y0028040D03*
D572*
X0176247Y0028080D03*
D573*
X0161887Y0028160D03*
D574*
X0161887Y0028200D03*
D575*
X0161887Y0028240D03*
D576*
X0161887Y0028280D03*
D577*
X0176247Y0028280D03*
D578*
X0187047Y0028280D03*
D579*
X0176247Y0028480D03*
D580*
X0176247Y0028560D03*
X0189647Y0034120D03*
D581*
X0186847Y0030880D03*
D582*
X0188327Y0032280D03*
D583*
X0188527Y0032640D03*
D584*
X0188687Y0032920D03*
D585*
X0188907Y0033280D03*
D586*
X0189407Y0033960D03*
D587*
X0189507Y0034040D03*
D588*
X0193341Y0011382D02*
X0193341Y0009180D01*
X0192607Y0009180D02*
X0194075Y0009180D01*
X0194817Y0009180D02*
X0196284Y0010648D01*
X0196284Y0011015D01*
X0195917Y0011382D01*
X0195184Y0011382D01*
X0194817Y0011015D01*
X0193341Y0011382D02*
X0192607Y0010648D01*
X0194817Y0009180D02*
X0196284Y0009180D01*
X0197026Y0009180D02*
X0198494Y0011382D01*
X0199236Y0010648D02*
X0199970Y0011382D01*
X0199970Y0009180D01*
X0199236Y0009180D02*
X0200704Y0009180D01*
X0201446Y0009180D02*
X0202914Y0010648D01*
X0202914Y0011015D01*
X0202547Y0011382D01*
X0201813Y0011382D01*
X0201446Y0011015D01*
X0201446Y0009180D02*
X0202914Y0009180D01*
X0201442Y0007782D02*
X0201809Y0007415D01*
X0200341Y0005947D01*
X0200708Y0005580D01*
X0201442Y0005580D01*
X0201809Y0005947D01*
X0201809Y0007415D01*
X0201442Y0007782D02*
X0200708Y0007782D01*
X0200341Y0007415D01*
X0200341Y0005947D01*
X0199603Y0005947D02*
X0199603Y0005580D01*
X0199236Y0005580D01*
X0199236Y0005947D01*
X0199603Y0005947D01*
X0198494Y0005580D02*
X0197026Y0005580D01*
X0197760Y0005580D02*
X0197760Y0007782D01*
X0197026Y0007048D01*
X0194075Y0006314D02*
X0194075Y0007782D01*
X0194075Y0006314D02*
X0193341Y0005580D01*
X0192607Y0006314D01*
X0192607Y0007782D01*
X0160827Y0043900D02*
X0160827Y0045001D01*
X0160460Y0045368D01*
X0160093Y0045001D01*
X0160093Y0043900D01*
X0159359Y0043900D02*
X0159359Y0045368D01*
X0159726Y0045368D01*
X0160093Y0045001D01*
X0158617Y0045001D02*
X0158617Y0043900D01*
X0157516Y0043900D01*
X0157149Y0044267D01*
X0157516Y0044634D01*
X0158617Y0044634D01*
X0158617Y0045001D02*
X0158250Y0045368D01*
X0157516Y0045368D01*
X0156408Y0045368D02*
X0156041Y0045368D01*
X0155307Y0044634D01*
X0155307Y0043900D02*
X0155307Y0045368D01*
X0154565Y0045368D02*
X0153464Y0045368D01*
X0153097Y0045001D01*
X0153097Y0044267D01*
X0153464Y0043900D01*
X0154565Y0043900D01*
X0154565Y0043533D02*
X0154565Y0045368D01*
X0154565Y0043533D02*
X0154198Y0043166D01*
X0153831Y0043166D01*
X0154197Y0041768D02*
X0154197Y0040300D01*
X0153096Y0040300D01*
X0152729Y0040667D01*
X0152729Y0041768D01*
X0151987Y0042135D02*
X0151987Y0041401D01*
X0151620Y0041034D01*
X0150519Y0041034D01*
X0150519Y0040300D02*
X0150519Y0042502D01*
X0151620Y0042502D01*
X0151987Y0042135D01*
X0151023Y0043033D02*
X0150663Y0042672D01*
X0149220Y0044115D01*
X0150663Y0044115D01*
X0151023Y0043754D01*
X0151023Y0043033D01*
X0150663Y0042672D02*
X0149220Y0042672D01*
X0148859Y0043033D01*
X0148859Y0043754D01*
X0149220Y0044115D01*
X0149046Y0043900D02*
X0149046Y0045368D01*
X0148859Y0045930D02*
X0149941Y0044847D01*
X0149941Y0046290D01*
X0149941Y0047023D02*
X0149941Y0048465D01*
X0149581Y0049198D02*
X0148859Y0049919D01*
X0151023Y0049919D01*
X0151023Y0049198D02*
X0151023Y0050640D01*
X0151023Y0051373D02*
X0149581Y0052815D01*
X0149220Y0052815D01*
X0148859Y0052455D01*
X0148859Y0051733D01*
X0149220Y0051373D01*
X0151023Y0051373D02*
X0151023Y0052815D01*
X0151023Y0053548D02*
X0151023Y0054991D01*
X0151023Y0054269D02*
X0148859Y0054269D01*
X0149581Y0053548D01*
X0151023Y0055723D02*
X0148859Y0057166D01*
X0149220Y0057898D02*
X0148859Y0058259D01*
X0148859Y0058980D01*
X0149220Y0059341D01*
X0149581Y0059341D01*
X0151023Y0057898D01*
X0151023Y0059341D01*
X0150663Y0060073D02*
X0149220Y0061516D01*
X0150663Y0061516D01*
X0151023Y0061155D01*
X0151023Y0060434D01*
X0150663Y0060073D01*
X0149220Y0060073D01*
X0148859Y0060434D01*
X0148859Y0061155D01*
X0149220Y0061516D01*
X0149941Y0062248D02*
X0149941Y0063691D01*
X0149941Y0064423D02*
X0149941Y0065866D01*
X0149220Y0066598D02*
X0148859Y0066959D01*
X0148859Y0067680D01*
X0149220Y0068041D01*
X0149581Y0068041D01*
X0151023Y0066598D01*
X0151023Y0068041D01*
X0151023Y0068773D02*
X0151023Y0070216D01*
X0151023Y0069495D02*
X0148859Y0069495D01*
X0149581Y0068773D01*
X0149581Y0070949D02*
X0148859Y0071670D01*
X0151023Y0071670D01*
X0151023Y0070949D02*
X0151023Y0072391D01*
X0151023Y0063330D02*
X0148859Y0063330D01*
X0149941Y0062248D01*
X0147937Y0046102D02*
X0148304Y0045735D01*
X0148304Y0045001D01*
X0147937Y0044634D01*
X0146836Y0044634D01*
X0146836Y0043900D02*
X0146836Y0046102D01*
X0147937Y0046102D01*
X0148859Y0045930D02*
X0151023Y0045930D01*
X0151254Y0045368D02*
X0150887Y0045001D01*
X0150887Y0044267D01*
X0151254Y0043900D01*
X0151988Y0043900D01*
X0152355Y0044267D01*
X0152355Y0045001D01*
X0151988Y0045368D01*
X0151254Y0045368D01*
X0150147Y0045368D02*
X0149780Y0045368D01*
X0149046Y0044634D01*
X0147571Y0041768D02*
X0147571Y0041401D01*
X0147204Y0041401D01*
X0147204Y0041768D01*
X0147571Y0041768D01*
X0147571Y0040667D02*
X0147571Y0040300D01*
X0147204Y0040300D01*
X0147204Y0040667D01*
X0147571Y0040667D01*
X0146462Y0040300D02*
X0146462Y0041401D01*
X0146095Y0041768D01*
X0144994Y0041768D01*
X0144994Y0040300D01*
X0144252Y0040667D02*
X0144252Y0042135D01*
X0143885Y0042502D01*
X0143152Y0042502D01*
X0142785Y0042135D01*
X0142785Y0040667D01*
X0143152Y0040300D01*
X0143885Y0040300D01*
X0144252Y0040667D01*
X0143888Y0043900D02*
X0143521Y0043900D01*
X0143521Y0044267D01*
X0143888Y0044267D01*
X0143888Y0043900D01*
X0143888Y0045001D02*
X0143521Y0045001D01*
X0143521Y0045368D01*
X0143888Y0045368D01*
X0143888Y0045001D01*
X0142782Y0045001D02*
X0142048Y0045001D01*
X0141309Y0045001D02*
X0140575Y0045001D01*
X0140942Y0045735D02*
X0141309Y0046102D01*
X0140942Y0045735D02*
X0140942Y0043900D01*
X0139833Y0044267D02*
X0139833Y0045735D01*
X0139466Y0046102D01*
X0138732Y0046102D01*
X0138365Y0045735D01*
X0138365Y0044267D01*
X0138732Y0043900D01*
X0139466Y0043900D01*
X0139833Y0044267D01*
X0142415Y0043900D02*
X0142415Y0045735D01*
X0142782Y0046102D01*
X0151253Y0041034D02*
X0151987Y0040300D01*
X0154939Y0040300D02*
X0154939Y0041768D01*
X0156040Y0041768D01*
X0156407Y0041401D01*
X0156407Y0040300D01*
X0181202Y0235366D02*
X0181569Y0235366D01*
X0181936Y0235733D01*
X0181936Y0237568D01*
X0180835Y0237568D01*
X0180468Y0237201D01*
X0180468Y0236467D01*
X0180835Y0236100D01*
X0181936Y0236100D01*
X0182678Y0236100D02*
X0182678Y0237568D01*
X0183412Y0237568D02*
X0183779Y0237568D01*
X0183412Y0237568D02*
X0182678Y0236834D01*
X0184519Y0236467D02*
X0184886Y0236834D01*
X0185987Y0236834D01*
X0185987Y0237201D02*
X0185987Y0236100D01*
X0184886Y0236100D01*
X0184519Y0236467D01*
X0184886Y0237568D02*
X0185620Y0237568D01*
X0185987Y0237201D01*
X0186729Y0237568D02*
X0187096Y0237568D01*
X0187463Y0237201D01*
X0187830Y0237568D01*
X0188197Y0237201D01*
X0188197Y0236100D01*
X0187463Y0236100D02*
X0187463Y0237201D01*
X0186729Y0237568D02*
X0186729Y0236100D01*
X0179726Y0236467D02*
X0179726Y0237201D01*
X0179359Y0237568D01*
X0178625Y0237568D01*
X0178258Y0237201D01*
X0178258Y0236467D01*
X0178625Y0236100D01*
X0179359Y0236100D01*
X0179726Y0236467D01*
X0177517Y0237568D02*
X0177150Y0237568D01*
X0176417Y0236834D01*
X0176417Y0236100D02*
X0176417Y0237568D01*
X0175675Y0237935D02*
X0175675Y0237201D01*
X0175308Y0236834D01*
X0174207Y0236834D01*
X0174207Y0236100D02*
X0174207Y0238302D01*
X0175308Y0238302D01*
X0175675Y0237935D01*
X0160420Y0237488D02*
X0159686Y0237488D01*
X0160053Y0237855D02*
X0160053Y0236387D01*
X0160420Y0236020D01*
X0158944Y0236754D02*
X0157476Y0236754D01*
X0157476Y0237121D02*
X0157843Y0237488D01*
X0158577Y0237488D01*
X0158944Y0237121D01*
X0158944Y0236754D01*
X0158577Y0236020D02*
X0157843Y0236020D01*
X0157476Y0236387D01*
X0157476Y0237121D01*
X0156734Y0237488D02*
X0155633Y0237488D01*
X0155266Y0237121D01*
X0155633Y0236754D01*
X0156367Y0236754D01*
X0156734Y0236387D01*
X0156367Y0236020D01*
X0155266Y0236020D01*
X0154524Y0236754D02*
X0153057Y0236754D01*
X0153057Y0237121D02*
X0153424Y0237488D01*
X0154157Y0237488D01*
X0154524Y0237121D01*
X0154524Y0236754D01*
X0154157Y0236020D02*
X0153424Y0236020D01*
X0153057Y0236387D01*
X0153057Y0237121D01*
X0152315Y0237121D02*
X0151948Y0236754D01*
X0150847Y0236754D01*
X0151581Y0236754D02*
X0152315Y0236020D01*
X0152315Y0237121D02*
X0152315Y0237855D01*
X0151948Y0238222D01*
X0150847Y0238222D01*
X0150847Y0236020D01*
X0060460Y0236260D02*
X0060093Y0236627D01*
X0060093Y0238095D01*
X0059726Y0237728D02*
X0060460Y0237728D01*
X0058984Y0237361D02*
X0058984Y0236994D01*
X0057516Y0236994D01*
X0057516Y0237361D02*
X0057883Y0237728D01*
X0058617Y0237728D01*
X0058984Y0237361D01*
X0058617Y0236260D02*
X0057883Y0236260D01*
X0057516Y0236627D01*
X0057516Y0237361D01*
X0056774Y0237728D02*
X0055673Y0237728D01*
X0055306Y0237361D01*
X0055673Y0236994D01*
X0056407Y0236994D01*
X0056774Y0236627D01*
X0056407Y0236260D01*
X0055306Y0236260D01*
X0054564Y0236994D02*
X0053097Y0236994D01*
X0053097Y0237361D02*
X0053464Y0237728D01*
X0054197Y0237728D01*
X0054564Y0237361D01*
X0054564Y0236994D01*
X0054197Y0236260D02*
X0053464Y0236260D01*
X0053097Y0236627D01*
X0053097Y0237361D01*
X0052355Y0237361D02*
X0051988Y0236994D01*
X0050887Y0236994D01*
X0051621Y0236994D02*
X0052355Y0236260D01*
X0052355Y0237361D02*
X0052355Y0238095D01*
X0051988Y0238462D01*
X0050887Y0238462D01*
X0050887Y0236260D01*
X0036517Y0236900D02*
X0036517Y0238001D01*
X0036150Y0238368D01*
X0035783Y0238001D01*
X0035783Y0236900D01*
X0035049Y0236900D02*
X0035049Y0238368D01*
X0035416Y0238368D01*
X0035783Y0238001D01*
X0034307Y0238001D02*
X0033940Y0238368D01*
X0033206Y0238368D01*
X0033206Y0237634D02*
X0034307Y0237634D01*
X0034307Y0238001D02*
X0034307Y0236900D01*
X0033206Y0236900D01*
X0032839Y0237267D01*
X0033206Y0237634D01*
X0032099Y0238368D02*
X0031732Y0238368D01*
X0030998Y0237634D01*
X0030998Y0236900D02*
X0030998Y0238368D01*
X0030256Y0238368D02*
X0029155Y0238368D01*
X0028788Y0238001D01*
X0028788Y0237267D01*
X0029155Y0236900D01*
X0030256Y0236900D01*
X0030256Y0236533D02*
X0030256Y0238368D01*
X0030256Y0236533D02*
X0029889Y0236166D01*
X0029522Y0236166D01*
X0028046Y0237267D02*
X0028046Y0238001D01*
X0027679Y0238368D01*
X0026945Y0238368D01*
X0026578Y0238001D01*
X0026578Y0237267D01*
X0026945Y0236900D01*
X0027679Y0236900D01*
X0028046Y0237267D01*
X0025837Y0238368D02*
X0025470Y0238368D01*
X0024737Y0237634D01*
X0024737Y0236900D02*
X0024737Y0238368D01*
X0023995Y0238735D02*
X0023995Y0238001D01*
X0023628Y0237634D01*
X0022527Y0237634D01*
X0022527Y0236900D02*
X0022527Y0239102D01*
X0023628Y0239102D01*
X0023995Y0238735D01*
D589*
X0053394Y0204173D02*
X0052777Y0203556D01*
X0052777Y0202939D01*
X0053394Y0202322D01*
X0054628Y0202322D01*
X0055245Y0201704D01*
X0055245Y0201087D01*
X0054628Y0200470D01*
X0053394Y0200470D01*
X0052777Y0201087D01*
X0055245Y0203556D02*
X0054628Y0204173D01*
X0053394Y0204173D01*
X0056460Y0204173D02*
X0057077Y0204173D01*
X0057077Y0200470D01*
X0056460Y0200470D02*
X0057694Y0200470D01*
X0058915Y0201087D02*
X0059532Y0201704D01*
X0061384Y0201704D01*
X0061384Y0202322D02*
X0061384Y0200470D01*
X0059532Y0200470D01*
X0058915Y0201087D01*
X0059532Y0202939D02*
X0060767Y0202939D01*
X0061384Y0202322D01*
X0062598Y0202939D02*
X0063833Y0200470D01*
X0065067Y0202939D01*
X0066282Y0202322D02*
X0066899Y0202939D01*
X0068133Y0202939D01*
X0068750Y0202322D01*
X0068750Y0201704D01*
X0066282Y0201704D01*
X0066282Y0201087D02*
X0066282Y0202322D01*
X0066282Y0201087D02*
X0066899Y0200470D01*
X0068133Y0200470D01*
X0144399Y0200030D02*
X0144399Y0203733D01*
X0145634Y0202499D01*
X0146868Y0203733D01*
X0146868Y0200030D01*
X0148082Y0200647D02*
X0148700Y0201264D01*
X0150551Y0201264D01*
X0150551Y0201882D02*
X0150551Y0200030D01*
X0148700Y0200030D01*
X0148082Y0200647D01*
X0148700Y0202499D02*
X0149934Y0202499D01*
X0150551Y0201882D01*
X0151766Y0201882D02*
X0152383Y0202499D01*
X0154234Y0202499D01*
X0155449Y0202499D02*
X0156683Y0202499D01*
X0156066Y0203116D02*
X0156066Y0200647D01*
X0156683Y0200030D01*
X0157904Y0200647D02*
X0157904Y0201882D01*
X0158521Y0202499D01*
X0159756Y0202499D01*
X0160373Y0201882D01*
X0160373Y0201264D01*
X0157904Y0201264D01*
X0157904Y0200647D02*
X0158521Y0200030D01*
X0159756Y0200030D01*
X0161587Y0200030D02*
X0161587Y0202499D01*
X0161587Y0201264D02*
X0162822Y0202499D01*
X0163439Y0202499D01*
X0154234Y0200647D02*
X0153617Y0201264D01*
X0152383Y0201264D01*
X0151766Y0201882D01*
X0151766Y0200030D02*
X0153617Y0200030D01*
X0154234Y0200647D01*
D590*
X0154863Y0198952D02*
X0156665Y0196250D01*
X0157810Y0196250D02*
X0158710Y0196250D01*
X0158260Y0196250D02*
X0158260Y0198952D01*
X0157810Y0198952D02*
X0158710Y0198952D01*
X0156665Y0198952D02*
X0154863Y0196250D01*
X0153718Y0196250D02*
X0152817Y0197151D01*
X0153268Y0197151D02*
X0151917Y0197151D01*
X0151917Y0196250D02*
X0151917Y0198952D01*
X0153268Y0198952D01*
X0153718Y0198502D01*
X0153718Y0197601D01*
X0153268Y0197151D01*
X0149611Y0196700D02*
X0149161Y0196250D01*
X0148260Y0196250D01*
X0147810Y0196700D01*
X0147810Y0198502D01*
X0148260Y0198952D01*
X0149161Y0198952D01*
X0149611Y0198502D01*
X0149611Y0196700D01*
X0146665Y0196250D02*
X0144863Y0198952D01*
X0143718Y0198952D02*
X0141917Y0198952D01*
X0142817Y0198952D02*
X0142817Y0196250D01*
X0144863Y0196250D02*
X0146665Y0198952D01*
X0139611Y0198502D02*
X0139611Y0197601D01*
X0139161Y0197151D01*
X0137810Y0197151D01*
X0138710Y0197151D02*
X0139611Y0196250D01*
X0137810Y0196250D02*
X0137810Y0198952D01*
X0139161Y0198952D01*
X0139611Y0198502D01*
X0136665Y0198952D02*
X0134863Y0198952D01*
X0135764Y0198952D02*
X0135764Y0196250D01*
X0133718Y0196700D02*
X0133718Y0198502D01*
X0133268Y0198952D01*
X0131917Y0198952D01*
X0131917Y0196250D01*
X0133268Y0196250D01*
X0133718Y0196700D01*
X0130667Y0195000D02*
X0130667Y0185000D01*
X0190667Y0185000D01*
X0190667Y0195000D01*
X0130667Y0195000D01*
X0118171Y0181181D02*
X0118171Y0086693D01*
X0181163Y0086693D01*
X0181163Y0181181D01*
X0118171Y0181181D01*
X0093163Y0181181D02*
X0093163Y0086693D01*
X0030171Y0086693D01*
X0030171Y0181181D01*
X0093163Y0181181D01*
X0080667Y0185000D02*
X0080667Y0195000D01*
X0020667Y0195000D01*
X0020667Y0185000D01*
X0080667Y0185000D01*
X0079161Y0196250D02*
X0079611Y0196700D01*
X0079611Y0198502D01*
X0079161Y0198952D01*
X0077810Y0198952D01*
X0077810Y0196250D01*
X0079161Y0196250D01*
X0076665Y0196250D02*
X0076665Y0198952D01*
X0074863Y0198952D02*
X0074863Y0196250D01*
X0073718Y0196700D02*
X0073268Y0196250D01*
X0072367Y0196250D01*
X0071917Y0196700D01*
X0071917Y0198502D01*
X0072367Y0198952D01*
X0073268Y0198952D01*
X0073718Y0198502D01*
X0073718Y0197601D02*
X0072817Y0197601D01*
X0073718Y0197601D02*
X0073718Y0196700D01*
X0074863Y0198952D02*
X0076665Y0196250D01*
X0069611Y0196700D02*
X0069161Y0196250D01*
X0068260Y0196250D01*
X0067810Y0196700D01*
X0068260Y0197601D02*
X0069161Y0197601D01*
X0069611Y0197151D01*
X0069611Y0196700D01*
X0068260Y0197601D02*
X0067810Y0198052D01*
X0067810Y0198502D01*
X0068260Y0198952D01*
X0069161Y0198952D01*
X0069611Y0198502D01*
X0066665Y0198952D02*
X0064863Y0198952D01*
X0065764Y0198952D02*
X0065764Y0196250D01*
X0063718Y0196700D02*
X0063268Y0196250D01*
X0062367Y0196250D01*
X0061917Y0196700D01*
X0061917Y0198502D01*
X0062367Y0198952D01*
X0063268Y0198952D01*
X0063718Y0198502D01*
X0059611Y0198502D02*
X0059161Y0198952D01*
X0058260Y0198952D01*
X0057810Y0198502D01*
X0057810Y0196700D01*
X0058260Y0196250D01*
X0059161Y0196250D01*
X0059611Y0196700D01*
X0056665Y0196700D02*
X0056214Y0196250D01*
X0055314Y0196250D01*
X0054863Y0196700D01*
X0054863Y0198502D01*
X0055314Y0198952D01*
X0056214Y0198952D01*
X0056665Y0198502D01*
X0053718Y0198952D02*
X0053718Y0197151D01*
X0052817Y0196250D01*
X0051917Y0197151D01*
X0051917Y0198952D01*
X0048710Y0198952D02*
X0047810Y0198952D01*
X0048260Y0198952D02*
X0048260Y0196250D01*
X0047810Y0196250D02*
X0048710Y0196250D01*
X0046665Y0196250D02*
X0044863Y0198952D01*
X0043718Y0198502D02*
X0043718Y0197601D01*
X0043268Y0197151D01*
X0041917Y0197151D01*
X0042817Y0197151D02*
X0043718Y0196250D01*
X0044863Y0196250D02*
X0046665Y0198952D01*
X0043718Y0198502D02*
X0043268Y0198952D01*
X0041917Y0198952D01*
X0041917Y0196250D01*
X0039611Y0196700D02*
X0039161Y0196250D01*
X0038260Y0196250D01*
X0037810Y0196700D01*
X0037810Y0198502D01*
X0038260Y0198952D01*
X0039161Y0198952D01*
X0039611Y0198502D01*
X0039611Y0196700D01*
X0036665Y0196250D02*
X0034863Y0198952D01*
X0033718Y0198952D02*
X0031917Y0198952D01*
X0032817Y0198952D02*
X0032817Y0196250D01*
X0034863Y0196250D02*
X0036665Y0198952D01*
X0029611Y0198502D02*
X0029611Y0197601D01*
X0029161Y0197151D01*
X0027810Y0197151D01*
X0028710Y0197151D02*
X0029611Y0196250D01*
X0027810Y0196250D02*
X0027810Y0198952D01*
X0029161Y0198952D01*
X0029611Y0198502D01*
X0026665Y0198952D02*
X0024863Y0198952D01*
X0025764Y0198952D02*
X0025764Y0196250D01*
X0023718Y0196700D02*
X0023718Y0198502D01*
X0023268Y0198952D01*
X0021917Y0198952D01*
X0021917Y0196250D01*
X0023268Y0196250D01*
X0023718Y0196700D01*
X0023155Y0216732D02*
X0023155Y0233268D01*
X0034178Y0233268D01*
X0034178Y0216732D01*
X0023155Y0216732D01*
X0027879Y0220669D02*
X0029454Y0220669D01*
X0029549Y0220671D01*
X0029644Y0220677D01*
X0029739Y0220686D01*
X0029833Y0220700D01*
X0029926Y0220717D01*
X0030019Y0220738D01*
X0030111Y0220762D01*
X0030202Y0220791D01*
X0030292Y0220822D01*
X0030380Y0220858D01*
X0030467Y0220897D01*
X0030552Y0220940D01*
X0030635Y0220985D01*
X0030716Y0221035D01*
X0030796Y0221087D01*
X0030873Y0221143D01*
X0030948Y0221201D01*
X0031020Y0221263D01*
X0031090Y0221328D01*
X0031157Y0221395D01*
X0031222Y0221465D01*
X0031284Y0221537D01*
X0031342Y0221612D01*
X0031398Y0221689D01*
X0031450Y0221769D01*
X0031500Y0221850D01*
X0031545Y0221933D01*
X0031588Y0222018D01*
X0031627Y0222105D01*
X0031663Y0222193D01*
X0031694Y0222283D01*
X0031723Y0222374D01*
X0031747Y0222466D01*
X0031768Y0222559D01*
X0031785Y0222652D01*
X0031799Y0222746D01*
X0031808Y0222841D01*
X0031814Y0222936D01*
X0031816Y0223031D01*
X0031816Y0226969D01*
X0031814Y0227064D01*
X0031808Y0227159D01*
X0031799Y0227254D01*
X0031785Y0227348D01*
X0031768Y0227441D01*
X0031747Y0227534D01*
X0031723Y0227626D01*
X0031694Y0227717D01*
X0031663Y0227807D01*
X0031627Y0227895D01*
X0031588Y0227982D01*
X0031545Y0228067D01*
X0031500Y0228150D01*
X0031450Y0228231D01*
X0031398Y0228311D01*
X0031342Y0228388D01*
X0031284Y0228463D01*
X0031222Y0228535D01*
X0031157Y0228605D01*
X0031090Y0228672D01*
X0031020Y0228737D01*
X0030948Y0228799D01*
X0030873Y0228857D01*
X0030796Y0228913D01*
X0030716Y0228965D01*
X0030635Y0229015D01*
X0030552Y0229060D01*
X0030467Y0229103D01*
X0030380Y0229142D01*
X0030292Y0229178D01*
X0030202Y0229209D01*
X0030111Y0229238D01*
X0030019Y0229262D01*
X0029926Y0229283D01*
X0029833Y0229300D01*
X0029739Y0229314D01*
X0029644Y0229323D01*
X0029549Y0229329D01*
X0029454Y0229331D01*
X0027879Y0229331D01*
X0027784Y0229329D01*
X0027689Y0229323D01*
X0027594Y0229314D01*
X0027500Y0229300D01*
X0027407Y0229283D01*
X0027314Y0229262D01*
X0027222Y0229238D01*
X0027131Y0229209D01*
X0027041Y0229178D01*
X0026953Y0229142D01*
X0026866Y0229103D01*
X0026781Y0229060D01*
X0026698Y0229015D01*
X0026617Y0228965D01*
X0026537Y0228913D01*
X0026460Y0228857D01*
X0026385Y0228799D01*
X0026313Y0228737D01*
X0026243Y0228672D01*
X0026176Y0228605D01*
X0026111Y0228535D01*
X0026049Y0228463D01*
X0025991Y0228388D01*
X0025935Y0228311D01*
X0025883Y0228231D01*
X0025833Y0228150D01*
X0025788Y0228067D01*
X0025745Y0227982D01*
X0025706Y0227895D01*
X0025670Y0227807D01*
X0025639Y0227717D01*
X0025610Y0227626D01*
X0025586Y0227534D01*
X0025565Y0227441D01*
X0025548Y0227348D01*
X0025534Y0227254D01*
X0025525Y0227159D01*
X0025519Y0227064D01*
X0025517Y0226969D01*
X0025517Y0223031D01*
X0025519Y0222936D01*
X0025525Y0222841D01*
X0025534Y0222746D01*
X0025548Y0222652D01*
X0025565Y0222559D01*
X0025586Y0222466D01*
X0025610Y0222374D01*
X0025639Y0222283D01*
X0025670Y0222193D01*
X0025706Y0222105D01*
X0025745Y0222018D01*
X0025788Y0221933D01*
X0025833Y0221850D01*
X0025883Y0221769D01*
X0025935Y0221689D01*
X0025991Y0221612D01*
X0026049Y0221537D01*
X0026111Y0221465D01*
X0026176Y0221395D01*
X0026243Y0221328D01*
X0026313Y0221263D01*
X0026385Y0221201D01*
X0026460Y0221143D01*
X0026537Y0221087D01*
X0026617Y0221035D01*
X0026698Y0220985D01*
X0026781Y0220940D01*
X0026866Y0220897D01*
X0026953Y0220858D01*
X0027041Y0220822D01*
X0027131Y0220791D01*
X0027222Y0220762D01*
X0027314Y0220738D01*
X0027407Y0220717D01*
X0027500Y0220700D01*
X0027594Y0220686D01*
X0027689Y0220677D01*
X0027784Y0220671D01*
X0027879Y0220669D01*
X0050155Y0216732D02*
X0050155Y0233268D01*
X0061178Y0233268D01*
X0061178Y0216732D01*
X0050155Y0216732D01*
X0054879Y0220669D02*
X0056454Y0220669D01*
X0056549Y0220671D01*
X0056644Y0220677D01*
X0056739Y0220686D01*
X0056833Y0220700D01*
X0056926Y0220717D01*
X0057019Y0220738D01*
X0057111Y0220762D01*
X0057202Y0220791D01*
X0057292Y0220822D01*
X0057380Y0220858D01*
X0057467Y0220897D01*
X0057552Y0220940D01*
X0057635Y0220985D01*
X0057716Y0221035D01*
X0057796Y0221087D01*
X0057873Y0221143D01*
X0057948Y0221201D01*
X0058020Y0221263D01*
X0058090Y0221328D01*
X0058157Y0221395D01*
X0058222Y0221465D01*
X0058284Y0221537D01*
X0058342Y0221612D01*
X0058398Y0221689D01*
X0058450Y0221769D01*
X0058500Y0221850D01*
X0058545Y0221933D01*
X0058588Y0222018D01*
X0058627Y0222105D01*
X0058663Y0222193D01*
X0058694Y0222283D01*
X0058723Y0222374D01*
X0058747Y0222466D01*
X0058768Y0222559D01*
X0058785Y0222652D01*
X0058799Y0222746D01*
X0058808Y0222841D01*
X0058814Y0222936D01*
X0058816Y0223031D01*
X0058816Y0226969D01*
X0058814Y0227064D01*
X0058808Y0227159D01*
X0058799Y0227254D01*
X0058785Y0227348D01*
X0058768Y0227441D01*
X0058747Y0227534D01*
X0058723Y0227626D01*
X0058694Y0227717D01*
X0058663Y0227807D01*
X0058627Y0227895D01*
X0058588Y0227982D01*
X0058545Y0228067D01*
X0058500Y0228150D01*
X0058450Y0228231D01*
X0058398Y0228311D01*
X0058342Y0228388D01*
X0058284Y0228463D01*
X0058222Y0228535D01*
X0058157Y0228605D01*
X0058090Y0228672D01*
X0058020Y0228737D01*
X0057948Y0228799D01*
X0057873Y0228857D01*
X0057796Y0228913D01*
X0057716Y0228965D01*
X0057635Y0229015D01*
X0057552Y0229060D01*
X0057467Y0229103D01*
X0057380Y0229142D01*
X0057292Y0229178D01*
X0057202Y0229209D01*
X0057111Y0229238D01*
X0057019Y0229262D01*
X0056926Y0229283D01*
X0056833Y0229300D01*
X0056739Y0229314D01*
X0056644Y0229323D01*
X0056549Y0229329D01*
X0056454Y0229331D01*
X0054879Y0229331D01*
X0054784Y0229329D01*
X0054689Y0229323D01*
X0054594Y0229314D01*
X0054500Y0229300D01*
X0054407Y0229283D01*
X0054314Y0229262D01*
X0054222Y0229238D01*
X0054131Y0229209D01*
X0054041Y0229178D01*
X0053953Y0229142D01*
X0053866Y0229103D01*
X0053781Y0229060D01*
X0053698Y0229015D01*
X0053617Y0228965D01*
X0053537Y0228913D01*
X0053460Y0228857D01*
X0053385Y0228799D01*
X0053313Y0228737D01*
X0053243Y0228672D01*
X0053176Y0228605D01*
X0053111Y0228535D01*
X0053049Y0228463D01*
X0052991Y0228388D01*
X0052935Y0228311D01*
X0052883Y0228231D01*
X0052833Y0228150D01*
X0052788Y0228067D01*
X0052745Y0227982D01*
X0052706Y0227895D01*
X0052670Y0227807D01*
X0052639Y0227717D01*
X0052610Y0227626D01*
X0052586Y0227534D01*
X0052565Y0227441D01*
X0052548Y0227348D01*
X0052534Y0227254D01*
X0052525Y0227159D01*
X0052519Y0227064D01*
X0052517Y0226969D01*
X0052517Y0223031D01*
X0052519Y0222936D01*
X0052525Y0222841D01*
X0052534Y0222746D01*
X0052548Y0222652D01*
X0052565Y0222559D01*
X0052586Y0222466D01*
X0052610Y0222374D01*
X0052639Y0222283D01*
X0052670Y0222193D01*
X0052706Y0222105D01*
X0052745Y0222018D01*
X0052788Y0221933D01*
X0052833Y0221850D01*
X0052883Y0221769D01*
X0052935Y0221689D01*
X0052991Y0221612D01*
X0053049Y0221537D01*
X0053111Y0221465D01*
X0053176Y0221395D01*
X0053243Y0221328D01*
X0053313Y0221263D01*
X0053385Y0221201D01*
X0053460Y0221143D01*
X0053537Y0221087D01*
X0053617Y0221035D01*
X0053698Y0220985D01*
X0053781Y0220940D01*
X0053866Y0220897D01*
X0053953Y0220858D01*
X0054041Y0220822D01*
X0054131Y0220791D01*
X0054222Y0220762D01*
X0054314Y0220738D01*
X0054407Y0220717D01*
X0054500Y0220700D01*
X0054594Y0220686D01*
X0054689Y0220677D01*
X0054784Y0220671D01*
X0054879Y0220669D01*
X0064515Y0222357D02*
X0064832Y0222040D01*
X0066100Y0222040D01*
X0066417Y0222357D01*
X0066417Y0222991D01*
X0066100Y0223308D01*
X0066417Y0224250D02*
X0066417Y0225518D01*
X0066417Y0224884D02*
X0064515Y0224884D01*
X0065149Y0224250D01*
X0064832Y0223308D02*
X0064515Y0222991D01*
X0064515Y0222357D01*
X0072915Y0222357D02*
X0072915Y0222991D01*
X0073232Y0223308D01*
X0074500Y0222040D01*
X0074817Y0222357D01*
X0074817Y0222991D01*
X0074500Y0223308D01*
X0073232Y0223308D01*
X0073549Y0224250D02*
X0074500Y0224250D01*
X0074817Y0224567D01*
X0074817Y0225518D01*
X0073549Y0225518D01*
X0073866Y0226460D02*
X0073866Y0227094D01*
X0072915Y0226460D02*
X0072915Y0227728D01*
X0072915Y0226460D02*
X0074817Y0226460D01*
X0074500Y0222040D02*
X0073232Y0222040D01*
X0072915Y0222357D01*
X0072915Y0220464D02*
X0074817Y0220464D01*
X0074817Y0219830D02*
X0074817Y0221098D01*
X0073549Y0219830D02*
X0072915Y0220464D01*
X0085289Y0150472D02*
X0038045Y0150472D01*
X0038045Y0091417D01*
X0085289Y0091417D01*
X0085289Y0150472D01*
X0126045Y0150472D02*
X0126045Y0091417D01*
X0173289Y0091417D01*
X0173289Y0150472D01*
X0126045Y0150472D01*
X0162817Y0196250D02*
X0163718Y0197151D01*
X0163718Y0198952D01*
X0164863Y0198502D02*
X0164863Y0196700D01*
X0165314Y0196250D01*
X0166214Y0196250D01*
X0166665Y0196700D01*
X0167810Y0196700D02*
X0168260Y0196250D01*
X0169161Y0196250D01*
X0169611Y0196700D01*
X0167810Y0196700D02*
X0167810Y0198502D01*
X0168260Y0198952D01*
X0169161Y0198952D01*
X0169611Y0198502D01*
X0171917Y0198502D02*
X0171917Y0196700D01*
X0172367Y0196250D01*
X0173268Y0196250D01*
X0173718Y0196700D01*
X0173718Y0198502D02*
X0173268Y0198952D01*
X0172367Y0198952D01*
X0171917Y0198502D01*
X0174863Y0198952D02*
X0176665Y0198952D01*
X0175764Y0198952D02*
X0175764Y0196250D01*
X0177810Y0196700D02*
X0178260Y0196250D01*
X0179161Y0196250D01*
X0179611Y0196700D01*
X0179611Y0197151D01*
X0179161Y0197601D01*
X0178260Y0197601D01*
X0177810Y0198052D01*
X0177810Y0198502D01*
X0178260Y0198952D01*
X0179161Y0198952D01*
X0179611Y0198502D01*
X0181917Y0198502D02*
X0181917Y0196700D01*
X0182367Y0196250D01*
X0183268Y0196250D01*
X0183718Y0196700D01*
X0183718Y0197601D01*
X0182817Y0197601D01*
X0181917Y0198502D02*
X0182367Y0198952D01*
X0183268Y0198952D01*
X0183718Y0198502D01*
X0184863Y0198952D02*
X0186665Y0196250D01*
X0186665Y0198952D01*
X0187810Y0198952D02*
X0187810Y0196250D01*
X0189161Y0196250D01*
X0189611Y0196700D01*
X0189611Y0198502D01*
X0189161Y0198952D01*
X0187810Y0198952D01*
X0184863Y0198952D02*
X0184863Y0196250D01*
X0166665Y0198502D02*
X0166214Y0198952D01*
X0165314Y0198952D01*
X0164863Y0198502D01*
X0162817Y0196250D02*
X0161917Y0197151D01*
X0161917Y0198952D01*
X0161178Y0216732D02*
X0150155Y0216732D01*
X0150155Y0233268D01*
X0161178Y0233268D01*
X0161178Y0216732D01*
X0156454Y0220669D02*
X0154879Y0220669D01*
X0154784Y0220671D01*
X0154689Y0220677D01*
X0154594Y0220686D01*
X0154500Y0220700D01*
X0154407Y0220717D01*
X0154314Y0220738D01*
X0154222Y0220762D01*
X0154131Y0220791D01*
X0154041Y0220822D01*
X0153953Y0220858D01*
X0153866Y0220897D01*
X0153781Y0220940D01*
X0153698Y0220985D01*
X0153617Y0221035D01*
X0153537Y0221087D01*
X0153460Y0221143D01*
X0153385Y0221201D01*
X0153313Y0221263D01*
X0153243Y0221328D01*
X0153176Y0221395D01*
X0153111Y0221465D01*
X0153049Y0221537D01*
X0152991Y0221612D01*
X0152935Y0221689D01*
X0152883Y0221769D01*
X0152833Y0221850D01*
X0152788Y0221933D01*
X0152745Y0222018D01*
X0152706Y0222105D01*
X0152670Y0222193D01*
X0152639Y0222283D01*
X0152610Y0222374D01*
X0152586Y0222466D01*
X0152565Y0222559D01*
X0152548Y0222652D01*
X0152534Y0222746D01*
X0152525Y0222841D01*
X0152519Y0222936D01*
X0152517Y0223031D01*
X0152517Y0226969D01*
X0152519Y0227064D01*
X0152525Y0227159D01*
X0152534Y0227254D01*
X0152548Y0227348D01*
X0152565Y0227441D01*
X0152586Y0227534D01*
X0152610Y0227626D01*
X0152639Y0227717D01*
X0152670Y0227807D01*
X0152706Y0227895D01*
X0152745Y0227982D01*
X0152788Y0228067D01*
X0152833Y0228150D01*
X0152883Y0228231D01*
X0152935Y0228311D01*
X0152991Y0228388D01*
X0153049Y0228463D01*
X0153111Y0228535D01*
X0153176Y0228605D01*
X0153243Y0228672D01*
X0153313Y0228737D01*
X0153385Y0228799D01*
X0153460Y0228857D01*
X0153537Y0228913D01*
X0153617Y0228965D01*
X0153698Y0229015D01*
X0153781Y0229060D01*
X0153866Y0229103D01*
X0153953Y0229142D01*
X0154041Y0229178D01*
X0154131Y0229209D01*
X0154222Y0229238D01*
X0154314Y0229262D01*
X0154407Y0229283D01*
X0154500Y0229300D01*
X0154594Y0229314D01*
X0154689Y0229323D01*
X0154784Y0229329D01*
X0154879Y0229331D01*
X0156454Y0229331D01*
X0156549Y0229329D01*
X0156644Y0229323D01*
X0156739Y0229314D01*
X0156833Y0229300D01*
X0156926Y0229283D01*
X0157019Y0229262D01*
X0157111Y0229238D01*
X0157202Y0229209D01*
X0157292Y0229178D01*
X0157380Y0229142D01*
X0157467Y0229103D01*
X0157552Y0229060D01*
X0157635Y0229015D01*
X0157716Y0228965D01*
X0157796Y0228913D01*
X0157873Y0228857D01*
X0157948Y0228799D01*
X0158020Y0228737D01*
X0158090Y0228672D01*
X0158157Y0228605D01*
X0158222Y0228535D01*
X0158284Y0228463D01*
X0158342Y0228388D01*
X0158398Y0228311D01*
X0158450Y0228231D01*
X0158500Y0228150D01*
X0158545Y0228067D01*
X0158588Y0227982D01*
X0158627Y0227895D01*
X0158663Y0227807D01*
X0158694Y0227717D01*
X0158723Y0227626D01*
X0158747Y0227534D01*
X0158768Y0227441D01*
X0158785Y0227348D01*
X0158799Y0227254D01*
X0158808Y0227159D01*
X0158814Y0227064D01*
X0158816Y0226969D01*
X0158816Y0223031D01*
X0158814Y0222936D01*
X0158808Y0222841D01*
X0158799Y0222746D01*
X0158785Y0222652D01*
X0158768Y0222559D01*
X0158747Y0222466D01*
X0158723Y0222374D01*
X0158694Y0222283D01*
X0158663Y0222193D01*
X0158627Y0222105D01*
X0158588Y0222018D01*
X0158545Y0221933D01*
X0158500Y0221850D01*
X0158450Y0221769D01*
X0158398Y0221689D01*
X0158342Y0221612D01*
X0158284Y0221537D01*
X0158222Y0221465D01*
X0158157Y0221395D01*
X0158090Y0221328D01*
X0158020Y0221263D01*
X0157948Y0221201D01*
X0157873Y0221143D01*
X0157796Y0221087D01*
X0157716Y0221035D01*
X0157635Y0220985D01*
X0157552Y0220940D01*
X0157467Y0220897D01*
X0157380Y0220858D01*
X0157292Y0220822D01*
X0157202Y0220791D01*
X0157111Y0220762D01*
X0157019Y0220738D01*
X0156926Y0220717D01*
X0156833Y0220700D01*
X0156739Y0220686D01*
X0156644Y0220677D01*
X0156549Y0220671D01*
X0156454Y0220669D01*
X0146817Y0220464D02*
X0144915Y0220464D01*
X0145549Y0219830D01*
X0146817Y0219830D02*
X0146817Y0221098D01*
X0146500Y0222040D02*
X0145232Y0223308D01*
X0146500Y0223308D01*
X0146817Y0222991D01*
X0146817Y0222357D01*
X0146500Y0222040D01*
X0145232Y0222040D01*
X0144915Y0222357D01*
X0144915Y0222991D01*
X0145232Y0223308D01*
X0145549Y0224250D02*
X0146500Y0224250D01*
X0146817Y0224567D01*
X0146817Y0225518D01*
X0145549Y0225518D01*
X0145866Y0226460D02*
X0145866Y0227094D01*
X0144915Y0226460D02*
X0144915Y0227728D01*
X0144915Y0226460D02*
X0146817Y0226460D01*
X0138417Y0225518D02*
X0138417Y0224250D01*
X0137149Y0225518D01*
X0136832Y0225518D01*
X0136515Y0225201D01*
X0136515Y0224567D01*
X0136832Y0224250D01*
X0136832Y0223308D02*
X0136515Y0222991D01*
X0136515Y0222357D01*
X0136832Y0222040D01*
X0138100Y0222040D01*
X0138417Y0222357D01*
X0138417Y0222991D01*
X0138100Y0223308D01*
X0175155Y0216732D02*
X0175155Y0233268D01*
X0186178Y0233268D01*
X0186178Y0216732D01*
X0175155Y0216732D01*
X0177517Y0223031D02*
X0177517Y0226969D01*
X0177519Y0227064D01*
X0177525Y0227159D01*
X0177534Y0227254D01*
X0177548Y0227348D01*
X0177565Y0227441D01*
X0177586Y0227534D01*
X0177610Y0227626D01*
X0177639Y0227717D01*
X0177670Y0227807D01*
X0177706Y0227895D01*
X0177745Y0227982D01*
X0177788Y0228067D01*
X0177833Y0228150D01*
X0177883Y0228231D01*
X0177935Y0228311D01*
X0177991Y0228388D01*
X0178049Y0228463D01*
X0178111Y0228535D01*
X0178176Y0228605D01*
X0178243Y0228672D01*
X0178313Y0228737D01*
X0178385Y0228799D01*
X0178460Y0228857D01*
X0178537Y0228913D01*
X0178617Y0228965D01*
X0178698Y0229015D01*
X0178781Y0229060D01*
X0178866Y0229103D01*
X0178953Y0229142D01*
X0179041Y0229178D01*
X0179131Y0229209D01*
X0179222Y0229238D01*
X0179314Y0229262D01*
X0179407Y0229283D01*
X0179500Y0229300D01*
X0179594Y0229314D01*
X0179689Y0229323D01*
X0179784Y0229329D01*
X0179879Y0229331D01*
X0181454Y0229331D01*
X0181549Y0229329D01*
X0181644Y0229323D01*
X0181739Y0229314D01*
X0181833Y0229300D01*
X0181926Y0229283D01*
X0182019Y0229262D01*
X0182111Y0229238D01*
X0182202Y0229209D01*
X0182292Y0229178D01*
X0182380Y0229142D01*
X0182467Y0229103D01*
X0182552Y0229060D01*
X0182635Y0229015D01*
X0182716Y0228965D01*
X0182796Y0228913D01*
X0182873Y0228857D01*
X0182948Y0228799D01*
X0183020Y0228737D01*
X0183090Y0228672D01*
X0183157Y0228605D01*
X0183222Y0228535D01*
X0183284Y0228463D01*
X0183342Y0228388D01*
X0183398Y0228311D01*
X0183450Y0228231D01*
X0183500Y0228150D01*
X0183545Y0228067D01*
X0183588Y0227982D01*
X0183627Y0227895D01*
X0183663Y0227807D01*
X0183694Y0227717D01*
X0183723Y0227626D01*
X0183747Y0227534D01*
X0183768Y0227441D01*
X0183785Y0227348D01*
X0183799Y0227254D01*
X0183808Y0227159D01*
X0183814Y0227064D01*
X0183816Y0226969D01*
X0183816Y0223031D01*
X0183814Y0222936D01*
X0183808Y0222841D01*
X0183799Y0222746D01*
X0183785Y0222652D01*
X0183768Y0222559D01*
X0183747Y0222466D01*
X0183723Y0222374D01*
X0183694Y0222283D01*
X0183663Y0222193D01*
X0183627Y0222105D01*
X0183588Y0222018D01*
X0183545Y0221933D01*
X0183500Y0221850D01*
X0183450Y0221769D01*
X0183398Y0221689D01*
X0183342Y0221612D01*
X0183284Y0221537D01*
X0183222Y0221465D01*
X0183157Y0221395D01*
X0183090Y0221328D01*
X0183020Y0221263D01*
X0182948Y0221201D01*
X0182873Y0221143D01*
X0182796Y0221087D01*
X0182716Y0221035D01*
X0182635Y0220985D01*
X0182552Y0220940D01*
X0182467Y0220897D01*
X0182380Y0220858D01*
X0182292Y0220822D01*
X0182202Y0220791D01*
X0182111Y0220762D01*
X0182019Y0220738D01*
X0181926Y0220717D01*
X0181833Y0220700D01*
X0181739Y0220686D01*
X0181644Y0220677D01*
X0181549Y0220671D01*
X0181454Y0220669D01*
X0179879Y0220669D01*
X0179784Y0220671D01*
X0179689Y0220677D01*
X0179594Y0220686D01*
X0179500Y0220700D01*
X0179407Y0220717D01*
X0179314Y0220738D01*
X0179222Y0220762D01*
X0179131Y0220791D01*
X0179041Y0220822D01*
X0178953Y0220858D01*
X0178866Y0220897D01*
X0178781Y0220940D01*
X0178698Y0220985D01*
X0178617Y0221035D01*
X0178537Y0221087D01*
X0178460Y0221143D01*
X0178385Y0221201D01*
X0178313Y0221263D01*
X0178243Y0221328D01*
X0178176Y0221395D01*
X0178111Y0221465D01*
X0178049Y0221537D01*
X0177991Y0221612D01*
X0177935Y0221689D01*
X0177883Y0221769D01*
X0177833Y0221850D01*
X0177788Y0221933D01*
X0177745Y0222018D01*
X0177706Y0222105D01*
X0177670Y0222193D01*
X0177639Y0222283D01*
X0177610Y0222374D01*
X0177586Y0222466D01*
X0177565Y0222559D01*
X0177548Y0222652D01*
X0177534Y0222746D01*
X0177525Y0222841D01*
X0177519Y0222936D01*
X0177517Y0223031D01*
X0065515Y0083769D02*
X0065515Y0082501D01*
X0065515Y0083135D02*
X0067417Y0083135D01*
X0067417Y0081559D02*
X0067417Y0080291D01*
X0065515Y0080291D01*
X0065515Y0081559D01*
X0066466Y0080925D02*
X0066466Y0080291D01*
X0067417Y0079349D02*
X0066466Y0078398D01*
X0066783Y0078081D02*
X0065515Y0079349D01*
X0065515Y0078081D02*
X0067417Y0078081D01*
X0067100Y0077139D02*
X0067417Y0076822D01*
X0067417Y0076188D01*
X0067100Y0075871D01*
X0065832Y0075871D01*
X0065515Y0076188D01*
X0065515Y0076822D01*
X0065832Y0077139D01*
X0065832Y0074929D02*
X0065515Y0074612D01*
X0065515Y0073978D01*
X0065832Y0073662D01*
X0067100Y0073662D01*
X0067417Y0073978D01*
X0067417Y0074612D01*
X0067100Y0074929D01*
X0065832Y0074929D01*
X0065832Y0072719D02*
X0065515Y0072402D01*
X0065515Y0071769D01*
X0065832Y0071452D01*
X0066149Y0071452D01*
X0066466Y0071769D01*
X0066466Y0072402D01*
X0066783Y0072719D01*
X0067100Y0072719D01*
X0067417Y0072402D01*
X0067417Y0071769D01*
X0067100Y0071452D01*
X0067734Y0070510D02*
X0067734Y0069242D01*
X0067100Y0068300D02*
X0065832Y0068300D01*
X0065515Y0067983D01*
X0065515Y0067032D01*
X0067417Y0067032D01*
X0067417Y0067983D01*
X0067100Y0068300D01*
X0067417Y0066090D02*
X0066783Y0065456D01*
X0066783Y0065773D02*
X0066783Y0064822D01*
X0067417Y0064822D02*
X0065515Y0064822D01*
X0065515Y0065773D01*
X0065832Y0066090D01*
X0066466Y0066090D01*
X0066783Y0065773D01*
X0066466Y0063880D02*
X0066466Y0062612D01*
X0066149Y0062612D02*
X0065515Y0063246D01*
X0066149Y0063880D01*
X0067417Y0063880D01*
X0067417Y0062612D02*
X0066149Y0062612D01*
X0065832Y0061670D02*
X0065515Y0061353D01*
X0065515Y0060719D01*
X0065832Y0060402D01*
X0067100Y0060402D01*
X0067417Y0060719D01*
X0067417Y0061353D01*
X0067100Y0061670D01*
X0067734Y0059460D02*
X0067734Y0058192D01*
X0067100Y0057250D02*
X0065832Y0057250D01*
X0065515Y0056933D01*
X0065515Y0055983D01*
X0067417Y0055983D01*
X0067417Y0056933D01*
X0067100Y0057250D01*
X0067100Y0055040D02*
X0067417Y0054723D01*
X0067417Y0054090D01*
X0067100Y0053773D01*
X0066466Y0054090D02*
X0066466Y0054723D01*
X0066783Y0055040D01*
X0067100Y0055040D01*
X0066466Y0054090D02*
X0066149Y0053773D01*
X0065832Y0053773D01*
X0065515Y0054090D01*
X0065515Y0054723D01*
X0065832Y0055040D01*
X0066466Y0052831D02*
X0066466Y0051563D01*
X0067100Y0050621D02*
X0065832Y0050621D01*
X0065515Y0050304D01*
X0065515Y0049670D01*
X0065832Y0049353D01*
X0067100Y0049353D01*
X0067417Y0049670D01*
X0067417Y0050304D01*
X0067100Y0050621D01*
X0067417Y0048411D02*
X0066783Y0047777D01*
X0066783Y0048094D02*
X0066783Y0047143D01*
X0067417Y0047143D02*
X0065515Y0047143D01*
X0065515Y0048094D01*
X0065832Y0048411D01*
X0066466Y0048411D01*
X0066783Y0048094D01*
X0067100Y0046201D02*
X0067417Y0045884D01*
X0067417Y0045250D01*
X0067100Y0044933D01*
X0065832Y0044933D01*
X0065515Y0045250D01*
X0065515Y0045884D01*
X0065832Y0046201D01*
X0065515Y0044094D02*
X0065515Y0043460D01*
X0065515Y0043777D02*
X0067417Y0043777D01*
X0067417Y0043460D02*
X0067417Y0044094D01*
X0067417Y0042518D02*
X0065515Y0042518D01*
X0066149Y0041884D01*
X0065515Y0041250D01*
X0067417Y0041250D01*
X0062417Y0041567D02*
X0062417Y0041884D01*
X0062100Y0042201D01*
X0060515Y0042201D01*
X0060515Y0041884D02*
X0060515Y0042518D01*
X0061149Y0043460D02*
X0060515Y0044094D01*
X0062417Y0044094D01*
X0062417Y0043460D02*
X0062417Y0044728D01*
X0062417Y0041567D02*
X0062100Y0041250D01*
X0129667Y0047000D02*
X0129667Y0075583D01*
X0170612Y0075583D01*
X0170612Y0047000D01*
X0129667Y0047000D01*
D591*
X0129667Y0043000D02*
X0129667Y0051000D01*
X0125667Y0047000D02*
X0133667Y0047000D01*
X0113667Y0034000D02*
X0105667Y0034000D01*
X0109667Y0030000D02*
X0109667Y0038000D01*
X0087667Y0072000D02*
X0087667Y0080000D01*
X0083667Y0076000D02*
X0091667Y0076000D01*
X0098667Y0092000D02*
X0098667Y0100000D01*
X0101667Y0104000D02*
X0101667Y0112000D01*
X0097667Y0108000D02*
X0105667Y0108000D01*
X0102667Y0096000D02*
X0094667Y0096000D01*
X0109667Y0128000D02*
X0109667Y0136000D01*
X0105667Y0132000D02*
X0113667Y0132000D01*
X0113667Y0149000D02*
X0113667Y0157000D01*
X0109667Y0153000D02*
X0117667Y0153000D01*
X0145667Y0130000D02*
X0153667Y0130000D01*
X0149667Y0126000D02*
X0149667Y0134000D01*
X0181667Y0095000D02*
X0189667Y0095000D01*
X0185667Y0091000D02*
X0185667Y0099000D01*
X0190667Y0126000D02*
X0190667Y0134000D01*
X0186667Y0130000D02*
X0194667Y0130000D01*
X0160667Y0186000D02*
X0160667Y0194000D01*
X0156667Y0190000D02*
X0164667Y0190000D01*
X0141667Y0220000D02*
X0141667Y0228000D01*
X0137667Y0224000D02*
X0145667Y0224000D01*
X0151825Y0225000D02*
X0159508Y0225000D01*
X0155667Y0221159D02*
X0155667Y0228841D01*
X0176825Y0225000D02*
X0184508Y0225000D01*
X0180667Y0221159D02*
X0180667Y0228841D01*
X0109667Y0195000D02*
X0101667Y0195000D01*
X0105667Y0191000D02*
X0105667Y0199000D01*
X0073667Y0224000D02*
X0065667Y0224000D01*
X0069667Y0220000D02*
X0069667Y0228000D01*
X0059508Y0225000D02*
X0051825Y0225000D01*
X0055667Y0221159D02*
X0055667Y0228841D01*
X0032508Y0225000D02*
X0024825Y0225000D01*
X0028667Y0221159D02*
X0028667Y0228841D01*
X0050667Y0194000D02*
X0050667Y0186000D01*
X0046667Y0190000D02*
X0054667Y0190000D01*
X0023667Y0152000D02*
X0015667Y0152000D01*
X0019667Y0148000D02*
X0019667Y0156000D01*
X0020667Y0133000D02*
X0020667Y0125000D01*
X0016667Y0129000D02*
X0024667Y0129000D01*
X0057667Y0130000D02*
X0065667Y0130000D01*
X0061667Y0126000D02*
X0061667Y0134000D01*
X0135667Y0083000D02*
X0143667Y0083000D01*
X0139667Y0079000D02*
X0139667Y0087000D01*
D592*
X0027430Y0029937D02*
X0027430Y0026787D01*
X0027430Y0029937D02*
X0027424Y0030038D01*
X0027422Y0030138D01*
X0027424Y0030239D01*
X0027430Y0030339D01*
X0027440Y0030439D01*
X0027454Y0030539D01*
X0027472Y0030638D01*
X0027494Y0030736D01*
X0027519Y0030833D01*
X0027548Y0030930D01*
X0027581Y0031025D01*
X0027618Y0031118D01*
X0027659Y0031210D01*
X0027703Y0031301D01*
X0027750Y0031390D01*
X0027801Y0031476D01*
X0027855Y0031561D01*
X0027913Y0031644D01*
X0027973Y0031724D01*
X0028037Y0031801D01*
X0028104Y0031877D01*
X0028174Y0031949D01*
X0028246Y0032019D01*
X0028322Y0032086D01*
X0028399Y0032150D01*
X0028479Y0032210D01*
X0028562Y0032268D01*
X0028647Y0032322D01*
X0028733Y0032373D01*
X0028822Y0032420D01*
X0028913Y0032464D01*
X0029005Y0032505D01*
X0029098Y0032542D01*
X0029193Y0032575D01*
X0029290Y0032604D01*
X0029387Y0032629D01*
X0029485Y0032651D01*
X0029584Y0032669D01*
X0029684Y0032683D01*
X0029784Y0032693D01*
X0029884Y0032699D01*
X0029985Y0032701D01*
X0030085Y0032699D01*
X0030186Y0032693D01*
X0030186Y0032692D02*
X0030312Y0032697D01*
X0030437Y0032706D01*
X0030562Y0032719D01*
X0030686Y0032736D01*
X0030810Y0032756D01*
X0030933Y0032780D01*
X0031055Y0032808D01*
X0031176Y0032840D01*
X0031296Y0032876D01*
X0031415Y0032915D01*
X0031533Y0032958D01*
X0031649Y0033005D01*
X0031764Y0033055D01*
X0031878Y0033109D01*
X0031989Y0033167D01*
X0032099Y0033227D01*
X0032206Y0033292D01*
X0032312Y0033359D01*
X0032416Y0033430D01*
X0032517Y0033504D01*
X0032616Y0033581D01*
X0032713Y0033661D01*
X0032807Y0033744D01*
X0032898Y0033829D01*
X0032987Y0033918D01*
X0033072Y0034009D01*
X0033155Y0034103D01*
X0033235Y0034200D01*
X0033312Y0034299D01*
X0033386Y0034400D01*
X0033457Y0034504D01*
X0033524Y0034610D01*
X0033589Y0034717D01*
X0033649Y0034827D01*
X0033707Y0034938D01*
X0033761Y0035052D01*
X0033811Y0035167D01*
X0033858Y0035283D01*
X0033901Y0035401D01*
X0033940Y0035520D01*
X0033976Y0035640D01*
X0034008Y0035761D01*
X0034036Y0035883D01*
X0034060Y0036006D01*
X0034080Y0036130D01*
X0034097Y0036254D01*
X0034110Y0036379D01*
X0034119Y0036504D01*
X0034124Y0036630D01*
X0034123Y0036630D02*
X0034123Y0069701D01*
X0040029Y0076000D02*
X0087667Y0076000D01*
X0087667Y0073244D01*
X0087667Y0062614D02*
X0087667Y0050803D01*
X0087667Y0040173D02*
X0087667Y0020882D01*
X0035698Y0020882D01*
X0018566Y0186900D02*
X0015764Y0186900D01*
X0015063Y0187601D01*
X0015063Y0189002D01*
X0015764Y0189702D01*
X0017165Y0189702D02*
X0017165Y0188301D01*
X0017165Y0189702D02*
X0018566Y0189702D01*
X0019267Y0189002D01*
X0019267Y0187601D01*
X0018566Y0186900D01*
X0017865Y0191504D02*
X0017865Y0193606D01*
X0017165Y0194306D01*
X0015764Y0194306D01*
X0015063Y0193606D01*
X0015063Y0191504D01*
X0019267Y0191504D01*
X0017865Y0192905D02*
X0019267Y0194306D01*
X0019267Y0196108D02*
X0015063Y0196108D01*
X0019267Y0198910D01*
X0015063Y0198910D01*
X0082063Y0198910D02*
X0084865Y0196108D01*
X0084165Y0196808D02*
X0086267Y0198910D01*
X0086267Y0196108D02*
X0082063Y0196108D01*
X0086267Y0194306D02*
X0086267Y0191504D01*
X0082063Y0191504D01*
X0082764Y0189702D02*
X0083464Y0189702D01*
X0084165Y0189002D01*
X0084165Y0186900D01*
X0086267Y0186900D02*
X0082063Y0186900D01*
X0082063Y0189002D01*
X0082764Y0189702D01*
X0084165Y0189002D02*
X0084865Y0189702D01*
X0085566Y0189702D01*
X0086267Y0189002D01*
X0086267Y0186900D01*
X0092765Y0188000D02*
X0118568Y0188000D01*
X0118568Y0202000D01*
X0092765Y0202000D01*
X0092765Y0188000D01*
X0125063Y0187601D02*
X0125764Y0186900D01*
X0128566Y0186900D01*
X0129267Y0187601D01*
X0129267Y0189002D01*
X0128566Y0189702D01*
X0127165Y0189702D01*
X0127165Y0188301D01*
X0125764Y0189702D02*
X0125063Y0189002D01*
X0125063Y0187601D01*
X0125063Y0191504D02*
X0125063Y0193606D01*
X0125764Y0194306D01*
X0127165Y0194306D01*
X0127865Y0193606D01*
X0127865Y0191504D01*
X0127865Y0192905D02*
X0129267Y0194306D01*
X0129267Y0196108D02*
X0125063Y0196108D01*
X0129267Y0198910D01*
X0125063Y0198910D01*
X0125063Y0191504D02*
X0129267Y0191504D01*
X0192063Y0191504D02*
X0196267Y0191504D01*
X0196267Y0194306D01*
X0196267Y0196108D02*
X0192063Y0196108D01*
X0194165Y0196808D02*
X0196267Y0198910D01*
X0194865Y0196108D02*
X0192063Y0198910D01*
X0192764Y0189702D02*
X0193464Y0189702D01*
X0194165Y0189002D01*
X0194165Y0186900D01*
X0196267Y0186900D02*
X0192063Y0186900D01*
X0192063Y0189002D01*
X0192764Y0189702D01*
X0194165Y0189002D02*
X0194865Y0189702D01*
X0195566Y0189702D01*
X0196267Y0189002D01*
X0196267Y0186900D01*
D593*
X0163251Y0162679D02*
X0163251Y0160477D01*
X0161049Y0160477D01*
X0160315Y0161211D01*
X0161049Y0161945D01*
X0163251Y0161945D01*
X0163251Y0162679D02*
X0162517Y0163413D01*
X0161049Y0163413D01*
X0158647Y0162679D02*
X0158647Y0160477D01*
X0158647Y0162679D02*
X0157913Y0163413D01*
X0155711Y0163413D01*
X0155711Y0160477D01*
X0154043Y0160477D02*
X0154043Y0162679D01*
X0153309Y0163413D01*
X0151108Y0163413D01*
X0151108Y0160477D01*
X0149439Y0161945D02*
X0149439Y0162679D01*
X0148706Y0163413D01*
X0147238Y0163413D01*
X0146504Y0162679D01*
X0146504Y0161211D01*
X0147238Y0160477D01*
X0148706Y0160477D01*
X0149439Y0161945D02*
X0146504Y0161945D01*
X0144902Y0160477D02*
X0144168Y0161211D01*
X0144168Y0164147D01*
X0143434Y0163413D02*
X0144902Y0163413D01*
X0141766Y0162679D02*
X0141766Y0160477D01*
X0141766Y0162679D02*
X0141032Y0163413D01*
X0138830Y0163413D01*
X0138830Y0160477D01*
X0137162Y0160477D02*
X0137162Y0163413D01*
X0135694Y0164881D01*
X0134227Y0163413D01*
X0134227Y0160477D01*
X0134227Y0162679D02*
X0137162Y0162679D01*
X0119567Y0156320D02*
X0118699Y0155019D01*
X0117832Y0156320D01*
X0116964Y0155019D02*
X0119567Y0155019D01*
X0119133Y0153807D02*
X0117398Y0153807D01*
X0119133Y0152072D01*
X0119567Y0152506D01*
X0119567Y0153373D01*
X0119133Y0153807D01*
X0119133Y0152072D02*
X0117398Y0152072D01*
X0116964Y0152506D01*
X0116964Y0153373D01*
X0117398Y0153807D01*
X0119567Y0150861D02*
X0119567Y0149126D01*
X0119567Y0149993D02*
X0116964Y0149993D01*
X0117832Y0149126D01*
X0110367Y0150353D02*
X0107764Y0150353D01*
X0107764Y0151655D01*
X0108198Y0152088D01*
X0109066Y0152088D01*
X0109499Y0151655D01*
X0109499Y0150353D01*
X0109499Y0151221D02*
X0110367Y0152088D01*
X0109933Y0153300D02*
X0110367Y0153734D01*
X0110367Y0154601D01*
X0109933Y0155035D01*
X0108198Y0155035D01*
X0107764Y0154601D01*
X0107764Y0153734D01*
X0108198Y0153300D01*
X0108632Y0153300D01*
X0109066Y0153734D01*
X0109066Y0155035D01*
X0108321Y0137902D02*
X0108755Y0137469D01*
X0108755Y0136601D01*
X0108321Y0136167D01*
X0107020Y0136167D01*
X0107020Y0135300D02*
X0107020Y0137902D01*
X0108321Y0137902D01*
X0109967Y0137469D02*
X0110400Y0137902D01*
X0111268Y0137902D01*
X0111701Y0137469D01*
X0111701Y0137035D01*
X0111268Y0136601D01*
X0111701Y0136167D01*
X0111701Y0135734D01*
X0111268Y0135300D01*
X0110400Y0135300D01*
X0109967Y0135734D01*
X0110834Y0136601D02*
X0111268Y0136601D01*
X0108755Y0135300D02*
X0107888Y0136167D01*
X0106660Y0128702D02*
X0105792Y0127835D01*
X0106660Y0128702D02*
X0106660Y0126100D01*
X0107527Y0126100D02*
X0105792Y0126100D01*
X0108739Y0126534D02*
X0110474Y0128269D01*
X0110474Y0126534D01*
X0110040Y0126100D01*
X0109173Y0126100D01*
X0108739Y0126534D01*
X0108739Y0128269D01*
X0109173Y0128702D01*
X0110040Y0128702D01*
X0110474Y0128269D01*
X0111685Y0128702D02*
X0111685Y0126100D01*
X0111685Y0126967D02*
X0112987Y0127835D01*
X0111685Y0126967D02*
X0112987Y0126100D01*
X0103701Y0113902D02*
X0101967Y0113902D01*
X0101967Y0112601D01*
X0102834Y0113035D01*
X0103268Y0113035D01*
X0103701Y0112601D01*
X0103701Y0111734D01*
X0103268Y0111300D01*
X0102400Y0111300D01*
X0101967Y0111734D01*
X0100755Y0111300D02*
X0099888Y0112167D01*
X0100321Y0112167D02*
X0099020Y0112167D01*
X0099020Y0111300D02*
X0099020Y0113902D01*
X0100321Y0113902D01*
X0100755Y0113469D01*
X0100755Y0112601D01*
X0100321Y0112167D01*
X0101173Y0104702D02*
X0102040Y0104702D01*
X0102474Y0104269D01*
X0100739Y0102534D01*
X0101173Y0102100D01*
X0102040Y0102100D01*
X0102474Y0102534D01*
X0102474Y0104269D01*
X0103685Y0104702D02*
X0103685Y0102100D01*
X0103685Y0102967D02*
X0104987Y0103835D01*
X0103685Y0102967D02*
X0104987Y0102100D01*
X0104133Y0098035D02*
X0103699Y0098035D01*
X0103266Y0097601D01*
X0103266Y0096300D01*
X0104133Y0096300D01*
X0104567Y0096734D01*
X0104567Y0097601D01*
X0104133Y0098035D01*
X0103266Y0096300D02*
X0102398Y0097167D01*
X0101964Y0098035D01*
X0102398Y0095088D02*
X0101964Y0094655D01*
X0101964Y0093353D01*
X0104567Y0093353D01*
X0103699Y0093353D02*
X0103699Y0094655D01*
X0103266Y0095088D01*
X0102398Y0095088D01*
X0103699Y0094221D02*
X0104567Y0095088D01*
X0100739Y0102534D02*
X0100739Y0104269D01*
X0101173Y0104702D01*
X0098660Y0104702D02*
X0098660Y0102100D01*
X0099527Y0102100D02*
X0097792Y0102100D01*
X0097792Y0103835D02*
X0098660Y0104702D01*
X0095367Y0099320D02*
X0094499Y0098019D01*
X0093632Y0099320D01*
X0092764Y0098019D02*
X0095367Y0098019D01*
X0094933Y0096807D02*
X0095367Y0096373D01*
X0095367Y0095506D01*
X0094933Y0095072D01*
X0093198Y0096807D01*
X0094933Y0096807D01*
X0094933Y0095072D02*
X0093198Y0095072D01*
X0092764Y0095506D01*
X0092764Y0096373D01*
X0093198Y0096807D01*
X0095367Y0093861D02*
X0095367Y0092126D01*
X0095367Y0092993D02*
X0092764Y0092993D01*
X0093632Y0092126D01*
X0135792Y0088035D02*
X0136660Y0088902D01*
X0136660Y0086300D01*
X0137527Y0086300D02*
X0135792Y0086300D01*
X0138739Y0086734D02*
X0138739Y0088469D01*
X0139173Y0088902D01*
X0140040Y0088902D01*
X0140474Y0088469D01*
X0138739Y0086734D01*
X0139173Y0086300D01*
X0140040Y0086300D01*
X0140474Y0086734D01*
X0140474Y0088469D01*
X0141685Y0088902D02*
X0141685Y0086300D01*
X0141685Y0087167D02*
X0142987Y0088035D01*
X0141685Y0087167D02*
X0142987Y0086300D01*
X0141268Y0079702D02*
X0140400Y0079702D01*
X0139967Y0079269D01*
X0138755Y0079269D02*
X0138755Y0078401D01*
X0138321Y0077967D01*
X0137020Y0077967D01*
X0137020Y0077100D02*
X0137020Y0079702D01*
X0138321Y0079702D01*
X0138755Y0079269D01*
X0137888Y0077967D02*
X0138755Y0077100D01*
X0139967Y0077100D02*
X0141701Y0078835D01*
X0141701Y0079269D01*
X0141268Y0079702D01*
X0141701Y0077100D02*
X0139967Y0077100D01*
X0179764Y0091993D02*
X0182367Y0091993D01*
X0182367Y0091126D02*
X0182367Y0092861D01*
X0181933Y0094072D02*
X0180198Y0095807D01*
X0181933Y0095807D01*
X0182367Y0095373D01*
X0182367Y0094506D01*
X0181933Y0094072D01*
X0180198Y0094072D01*
X0179764Y0094506D01*
X0179764Y0095373D01*
X0180198Y0095807D01*
X0179764Y0097019D02*
X0182367Y0097019D01*
X0181499Y0097019D02*
X0180632Y0098320D01*
X0181499Y0097019D02*
X0182367Y0098320D01*
X0179764Y0091993D02*
X0180632Y0091126D01*
X0188964Y0092353D02*
X0188964Y0093655D01*
X0189398Y0094088D01*
X0190266Y0094088D01*
X0190699Y0093655D01*
X0190699Y0092353D01*
X0191567Y0092353D02*
X0188964Y0092353D01*
X0190699Y0093221D02*
X0191567Y0094088D01*
X0191567Y0095300D02*
X0191567Y0097035D01*
X0191567Y0096167D02*
X0188964Y0096167D01*
X0189832Y0095300D01*
X0193964Y0127353D02*
X0193964Y0128655D01*
X0194398Y0129088D01*
X0195266Y0129088D01*
X0195699Y0128655D01*
X0195699Y0127353D01*
X0196567Y0127353D02*
X0193964Y0127353D01*
X0195699Y0128221D02*
X0196567Y0129088D01*
X0196567Y0130300D02*
X0196133Y0130300D01*
X0194398Y0132035D01*
X0193964Y0132035D01*
X0193964Y0130300D01*
X0187367Y0130546D02*
X0184764Y0130546D01*
X0185632Y0131847D02*
X0186499Y0130546D01*
X0187367Y0131847D01*
X0187367Y0129334D02*
X0187367Y0127599D01*
X0187367Y0128466D02*
X0184764Y0128466D01*
X0185632Y0127599D01*
X0075251Y0160477D02*
X0073049Y0160477D01*
X0072315Y0161211D01*
X0073049Y0161945D01*
X0075251Y0161945D01*
X0075251Y0162679D02*
X0075251Y0160477D01*
X0075251Y0162679D02*
X0074517Y0163413D01*
X0073049Y0163413D01*
X0070647Y0162679D02*
X0070647Y0160477D01*
X0070647Y0162679D02*
X0069913Y0163413D01*
X0067711Y0163413D01*
X0067711Y0160477D01*
X0066043Y0160477D02*
X0066043Y0162679D01*
X0065309Y0163413D01*
X0063108Y0163413D01*
X0063108Y0160477D01*
X0061439Y0161945D02*
X0061439Y0162679D01*
X0060706Y0163413D01*
X0059238Y0163413D01*
X0058504Y0162679D01*
X0058504Y0161211D01*
X0059238Y0160477D01*
X0060706Y0160477D01*
X0061439Y0161945D02*
X0058504Y0161945D01*
X0056902Y0160477D02*
X0056168Y0161211D01*
X0056168Y0164147D01*
X0055434Y0163413D02*
X0056902Y0163413D01*
X0053766Y0162679D02*
X0053766Y0160477D01*
X0053766Y0162679D02*
X0053032Y0163413D01*
X0050830Y0163413D01*
X0050830Y0160477D01*
X0049162Y0160477D02*
X0049162Y0163413D01*
X0047694Y0164881D01*
X0046227Y0163413D01*
X0046227Y0160477D01*
X0046227Y0162679D02*
X0049162Y0162679D01*
X0025567Y0155320D02*
X0024699Y0154019D01*
X0023832Y0155320D01*
X0022964Y0154019D02*
X0025567Y0154019D01*
X0025133Y0152807D02*
X0025567Y0152373D01*
X0025567Y0151506D01*
X0025133Y0151072D01*
X0023398Y0152807D01*
X0025133Y0152807D01*
X0025133Y0151072D02*
X0023398Y0151072D01*
X0022964Y0151506D01*
X0022964Y0152373D01*
X0023398Y0152807D01*
X0025567Y0149861D02*
X0025567Y0148126D01*
X0025567Y0148993D02*
X0022964Y0148993D01*
X0023832Y0148126D01*
X0016367Y0149353D02*
X0013764Y0149353D01*
X0013764Y0150655D01*
X0014198Y0151088D01*
X0015066Y0151088D01*
X0015499Y0150655D01*
X0015499Y0149353D01*
X0015499Y0150221D02*
X0016367Y0151088D01*
X0015933Y0152300D02*
X0015499Y0152300D01*
X0015066Y0152734D01*
X0015066Y0153601D01*
X0015499Y0154035D01*
X0015933Y0154035D01*
X0016367Y0153601D01*
X0016367Y0152734D01*
X0015933Y0152300D01*
X0015066Y0152734D02*
X0014632Y0152300D01*
X0014198Y0152300D01*
X0013764Y0152734D01*
X0013764Y0153601D01*
X0014198Y0154035D01*
X0014632Y0154035D01*
X0015066Y0153601D01*
X0016066Y0131035D02*
X0016066Y0129300D01*
X0014764Y0130601D01*
X0017367Y0130601D01*
X0017367Y0128088D02*
X0016499Y0127221D01*
X0016499Y0127655D02*
X0016499Y0126353D01*
X0017367Y0126353D02*
X0014764Y0126353D01*
X0014764Y0127655D01*
X0015198Y0128088D01*
X0016066Y0128088D01*
X0016499Y0127655D01*
X0023964Y0128506D02*
X0023964Y0129373D01*
X0024398Y0129807D01*
X0026133Y0128072D01*
X0026567Y0128506D01*
X0026567Y0129373D01*
X0026133Y0129807D01*
X0024398Y0129807D01*
X0023964Y0131019D02*
X0026567Y0131019D01*
X0025699Y0131019D02*
X0024832Y0132320D01*
X0025699Y0131019D02*
X0026567Y0132320D01*
X0026133Y0128072D02*
X0024398Y0128072D01*
X0023964Y0128506D01*
X0023964Y0125993D02*
X0026567Y0125993D01*
X0026567Y0125126D02*
X0026567Y0126861D01*
X0024832Y0125126D02*
X0023964Y0125993D01*
D594*
X0075966Y0195400D02*
X0075966Y0200004D01*
X0074431Y0200004D02*
X0077501Y0200004D01*
X0079035Y0200004D02*
X0079035Y0195400D01*
X0082104Y0195400D01*
X0083639Y0196935D02*
X0085174Y0195400D01*
X0086708Y0196935D01*
X0086708Y0200004D01*
X0088243Y0198469D02*
X0089778Y0200004D01*
X0089778Y0195400D01*
X0091312Y0195400D02*
X0088243Y0195400D01*
X0092847Y0195400D02*
X0095916Y0195400D01*
X0094382Y0195400D02*
X0094382Y0200004D01*
X0092847Y0198469D01*
X0097451Y0198469D02*
X0098986Y0200004D01*
X0098986Y0195400D01*
X0100520Y0195400D02*
X0097451Y0195400D01*
X0102055Y0195400D02*
X0102055Y0196167D01*
X0105124Y0199237D01*
X0105124Y0200004D01*
X0102055Y0200004D01*
X0102055Y0194604D02*
X0102055Y0190767D01*
X0102822Y0190000D01*
X0104357Y0190000D01*
X0105124Y0190767D01*
X0105124Y0194604D01*
X0106659Y0193837D02*
X0107426Y0194604D01*
X0108961Y0194604D01*
X0109728Y0193837D01*
X0109728Y0195400D02*
X0106659Y0195400D01*
X0106659Y0200004D01*
X0111263Y0200004D02*
X0111263Y0196935D01*
X0112797Y0195400D01*
X0114332Y0196935D01*
X0114332Y0200004D01*
X0112797Y0194604D02*
X0112797Y0190000D01*
X0111263Y0190000D02*
X0114332Y0190000D01*
X0111263Y0193069D02*
X0112797Y0194604D01*
X0109728Y0191535D02*
X0108961Y0192302D01*
X0107426Y0192302D01*
X0106659Y0193069D01*
X0106659Y0193837D01*
X0108193Y0195371D02*
X0108193Y0189233D01*
X0107426Y0190000D02*
X0108961Y0190000D01*
X0109728Y0190767D01*
X0109728Y0191535D01*
X0107426Y0190000D02*
X0106659Y0190767D01*
X0083639Y0196935D02*
X0083639Y0200004D01*
X0115235Y0049303D02*
X0114634Y0048703D01*
X0114634Y0046301D01*
X0115235Y0045700D01*
X0116436Y0045700D01*
X0117036Y0046301D01*
X0118317Y0046301D02*
X0118918Y0045700D01*
X0120119Y0045700D01*
X0120719Y0046301D01*
X0120719Y0048703D01*
X0120119Y0049303D01*
X0118918Y0049303D01*
X0118317Y0048703D01*
X0118317Y0046301D01*
X0118817Y0043803D02*
X0120619Y0043803D01*
X0121219Y0043203D01*
X0121219Y0040801D01*
X0120619Y0040200D01*
X0118817Y0040200D01*
X0118817Y0043803D01*
X0120619Y0043803D01*
X0121219Y0043203D01*
X0121219Y0040801D01*
X0120619Y0040200D01*
X0118817Y0040200D01*
X0118817Y0043803D01*
X0117536Y0042602D02*
X0117536Y0040200D01*
X0117536Y0042602D01*
X0116335Y0043803D01*
X0115134Y0042602D01*
X0115134Y0040200D01*
X0115134Y0042602D01*
X0116335Y0043803D01*
X0117536Y0042602D01*
X0117536Y0042002D02*
X0115134Y0042002D01*
X0117536Y0042002D01*
X0113853Y0043803D02*
X0111451Y0043803D01*
X0111451Y0040200D01*
X0113853Y0040200D01*
X0111451Y0040200D01*
X0111451Y0043803D01*
X0113853Y0043803D01*
X0112652Y0042002D02*
X0111451Y0042002D01*
X0112652Y0042002D01*
X0110170Y0042002D02*
X0107768Y0042002D01*
X0110170Y0042002D01*
X0110170Y0043803D02*
X0110170Y0040200D01*
X0110170Y0043803D01*
X0107768Y0043803D02*
X0107768Y0040200D01*
X0107768Y0043803D01*
X0106487Y0039599D02*
X0104085Y0039599D01*
X0106487Y0039599D01*
X0102804Y0040200D02*
X0102804Y0043803D01*
X0102804Y0040200D01*
X0100401Y0043803D01*
X0100401Y0040200D01*
X0100401Y0043803D01*
X0102804Y0040200D01*
X0099147Y0040200D02*
X0097946Y0040200D01*
X0099147Y0040200D01*
X0098547Y0040200D02*
X0098547Y0043803D01*
X0098547Y0040200D01*
X0096665Y0042002D02*
X0096064Y0041401D01*
X0094263Y0041401D01*
X0096064Y0041401D01*
X0096665Y0042002D01*
X0096665Y0043203D01*
X0096064Y0043803D01*
X0094263Y0043803D01*
X0094263Y0040200D01*
X0094263Y0043803D01*
X0096064Y0043803D01*
X0096665Y0043203D01*
X0096665Y0042002D01*
X0097946Y0043803D02*
X0099147Y0043803D01*
X0097946Y0043803D01*
X0092982Y0039599D02*
X0090580Y0039599D01*
X0092982Y0039599D01*
X0088698Y0040200D02*
X0088698Y0043803D01*
X0086897Y0042002D01*
X0089299Y0042002D01*
X0086897Y0042002D01*
X0088698Y0043803D01*
X0088698Y0040200D01*
X0093130Y0026165D02*
X0092363Y0025398D01*
X0092363Y0023096D01*
X0096967Y0023096D01*
X0096967Y0025398D01*
X0096199Y0026165D01*
X0093130Y0026165D01*
X0092363Y0021561D02*
X0096967Y0021561D01*
X0092363Y0018492D01*
X0096967Y0018492D01*
X0096199Y0016957D02*
X0094665Y0016957D01*
X0094665Y0015423D01*
X0096199Y0016957D02*
X0096967Y0016190D01*
X0096967Y0014656D01*
X0096199Y0013888D01*
X0093130Y0013888D01*
X0092363Y0014656D01*
X0092363Y0016190D01*
X0093130Y0016957D01*
X0102363Y0016190D02*
X0102363Y0013888D01*
X0106967Y0013888D01*
X0106967Y0016190D01*
X0106199Y0016957D01*
X0103130Y0016957D01*
X0102363Y0016190D01*
X0102363Y0018492D02*
X0102363Y0020794D01*
X0103130Y0021561D01*
X0103897Y0021561D01*
X0104665Y0020794D01*
X0104665Y0018492D01*
X0106967Y0018492D02*
X0106967Y0020794D01*
X0106199Y0021561D01*
X0105432Y0021561D01*
X0104665Y0020794D01*
X0103130Y0023096D02*
X0106199Y0023096D01*
X0106967Y0023863D01*
X0106967Y0025398D01*
X0106199Y0026165D01*
X0104665Y0026165D01*
X0104665Y0024631D01*
X0103130Y0026165D02*
X0102363Y0025398D01*
X0102363Y0023863D01*
X0103130Y0023096D01*
X0102363Y0018492D02*
X0106967Y0018492D01*
X0112363Y0018492D02*
X0116967Y0021561D01*
X0112363Y0021561D01*
X0112363Y0023096D02*
X0112363Y0025398D01*
X0113130Y0026165D01*
X0116199Y0026165D01*
X0116967Y0025398D01*
X0116967Y0023096D01*
X0112363Y0023096D01*
X0112363Y0018492D02*
X0116967Y0018492D01*
X0116199Y0016957D02*
X0114665Y0016957D01*
X0114665Y0015423D01*
X0116199Y0016957D02*
X0116967Y0016190D01*
X0116967Y0014656D01*
X0116199Y0013888D01*
X0113130Y0013888D01*
X0112363Y0014656D01*
X0112363Y0016190D01*
X0113130Y0016957D01*
X0107734Y0012354D02*
X0107734Y0009284D01*
X0106967Y0007750D02*
X0102363Y0007750D01*
X0103897Y0006215D01*
X0102363Y0004680D01*
X0106967Y0004680D01*
X0122363Y0005448D02*
X0123130Y0004680D01*
X0123897Y0004680D01*
X0124665Y0005448D01*
X0124665Y0006982D01*
X0125432Y0007750D01*
X0126199Y0007750D01*
X0126967Y0006982D01*
X0126967Y0005448D01*
X0126199Y0004680D01*
X0122363Y0005448D02*
X0122363Y0006982D01*
X0123130Y0007750D01*
X0127734Y0009284D02*
X0127734Y0012354D01*
X0126967Y0013888D02*
X0126967Y0016190D01*
X0126199Y0016957D01*
X0123130Y0016957D01*
X0122363Y0016190D01*
X0122363Y0013888D01*
X0126967Y0013888D01*
X0126967Y0018492D02*
X0122363Y0018492D01*
X0122363Y0020794D01*
X0123130Y0021561D01*
X0123897Y0021561D01*
X0124665Y0020794D01*
X0124665Y0018492D01*
X0126967Y0018492D02*
X0126967Y0020794D01*
X0126199Y0021561D01*
X0125432Y0021561D01*
X0124665Y0020794D01*
X0123130Y0023096D02*
X0126199Y0023096D01*
X0126967Y0023863D01*
X0126967Y0025398D01*
X0126199Y0026165D01*
X0124665Y0026165D01*
X0124665Y0024631D01*
X0123130Y0026165D02*
X0122363Y0025398D01*
X0122363Y0023863D01*
X0123130Y0023096D01*
X0122500Y0040200D02*
X0124902Y0040200D01*
X0122500Y0040200D01*
X0122500Y0043803D01*
X0124902Y0043803D01*
X0122500Y0043803D01*
X0122500Y0040200D01*
X0122500Y0042002D02*
X0123701Y0042002D01*
X0122500Y0042002D01*
X0122000Y0045700D02*
X0122000Y0049303D01*
X0124402Y0045700D01*
X0124402Y0049303D01*
X0125684Y0048703D02*
X0126284Y0049303D01*
X0127485Y0049303D01*
X0128086Y0048703D01*
X0128086Y0048102D01*
X0125684Y0045700D01*
X0128086Y0045700D01*
X0127985Y0043803D02*
X0126183Y0043803D01*
X0126183Y0040200D01*
X0126183Y0043803D01*
X0127985Y0043803D01*
X0128586Y0043203D01*
X0128586Y0042002D01*
X0127985Y0041401D01*
X0126183Y0041401D01*
X0127985Y0041401D01*
X0128586Y0042002D01*
X0128586Y0043203D01*
X0127985Y0043803D01*
X0127384Y0041401D02*
X0128586Y0040200D01*
X0127384Y0041401D01*
X0117036Y0048703D02*
X0116436Y0049303D01*
X0115235Y0049303D01*
D595*
X0125175Y0080306D02*
X0128445Y0085210D01*
X0130332Y0083575D02*
X0131966Y0085210D01*
X0131966Y0080306D01*
X0130332Y0080306D02*
X0133601Y0080306D01*
X0128445Y0080306D02*
X0125175Y0085210D01*
X0045601Y0084393D02*
X0044784Y0085210D01*
X0043149Y0085210D01*
X0042332Y0084393D01*
X0040445Y0085210D02*
X0037175Y0080306D01*
X0040445Y0080306D02*
X0037175Y0085210D01*
X0042332Y0080306D02*
X0045601Y0083575D01*
X0045601Y0084393D01*
X0045601Y0080306D02*
X0042332Y0080306D01*
D596*
X0089667Y0039000D02*
X0089667Y0029000D01*
X0129667Y0029000D01*
X0129667Y0039000D01*
X0089667Y0039000D01*
M02*
