G75*
%MOIN*%
%OFA0B0*%
%FSLAX25Y25*%
%IPPOS*%
%LPD*%
%AMOC8*
5,1,8,0,0,1.08239X$1,22.5*
%
%ADD10R,0.07099X0.20485*%
%ADD11R,0.06737X0.06737*%
%ADD12R,0.36233X0.08280*%
%ADD13C,0.05950*%
%ADD14R,0.08200X0.08200*%
%ADD15C,0.08200*%
%ADD16C,0.06737*%
%ADD17R,0.04762X0.04762*%
D10*
X0081848Y0225000D03*
X0129486Y0225000D03*
D11*
X0119446Y0225000D03*
X0109604Y0225000D03*
X0101730Y0225000D03*
X0091887Y0225000D03*
D12*
X0105667Y0235236D03*
D13*
X0129989Y0068260D02*
X0135139Y0068260D01*
X0135139Y0054323D02*
X0129989Y0054323D01*
X0165139Y0054323D02*
X0170289Y0054323D01*
X0170289Y0067472D02*
X0165139Y0067472D01*
D14*
X0135667Y0190000D03*
X0025667Y0190000D03*
D15*
X0035667Y0190000D03*
X0045667Y0190000D03*
X0055667Y0190000D03*
X0065667Y0190000D03*
X0075667Y0190000D03*
X0145667Y0190000D03*
X0155667Y0190000D03*
X0165667Y0190000D03*
X0175667Y0190000D03*
X0185667Y0190000D03*
D16*
X0124667Y0034000D03*
X0114667Y0034000D03*
X0104667Y0034000D03*
X0094667Y0034000D03*
D17*
X0038667Y0045000D03*
X0036667Y0066000D03*
X0032667Y0081000D03*
X0050667Y0090000D03*
X0072667Y0098000D03*
X0081667Y0108000D03*
X0085667Y0095000D03*
X0105667Y0090000D03*
X0113667Y0088000D03*
X0084667Y0140000D03*
X0098667Y0148000D03*
X0158667Y0129000D03*
X0165667Y0129000D03*
X0190667Y0142000D03*
X0020667Y0120000D03*
M02*
