G75*
%MOIN*%
%OFA0B0*%
%FSLAX25Y25*%
%IPPOS*%
%LPD*%
%AMOC8*
5,1,8,0,0,1.08239X$1,22.5*
%
%ADD10C,0.00000*%
%ADD11R,0.05937X0.05937*%
%ADD12C,0.05150*%
%ADD13R,0.05512X0.07087*%
%ADD14R,0.07480X0.05512*%
%ADD15R,0.05906X0.03150*%
%ADD16R,0.07400X0.07400*%
%ADD17C,0.07400*%
%ADD18R,0.03937X0.04331*%
%ADD19R,0.04331X0.03937*%
%ADD20R,0.03937X0.03937*%
%ADD21R,0.05906X0.07874*%
%ADD22R,0.14961X0.07874*%
%ADD23R,0.07874X0.04724*%
%ADD24C,0.05937*%
%ADD25C,0.01600*%
%ADD26R,0.03962X0.03962*%
D10*
X0007667Y0001000D02*
X0007667Y0244701D01*
X0207588Y0244701D01*
X0207588Y0001000D01*
X0007667Y0001000D01*
D11*
X0091887Y0225000D03*
X0101730Y0225000D03*
X0109604Y0225000D03*
X0119446Y0225000D03*
D12*
X0129989Y0068260D02*
X0135139Y0068260D01*
X0135139Y0054323D02*
X0129989Y0054323D01*
X0165139Y0054323D02*
X0170289Y0054323D01*
X0170289Y0067472D02*
X0165139Y0067472D01*
D13*
X0086092Y0067929D03*
X0086092Y0045488D03*
D14*
X0034320Y0074228D03*
X0030383Y0022457D03*
D15*
X0045541Y0040803D03*
X0047115Y0045134D03*
X0045541Y0049465D03*
X0044753Y0053795D03*
X0045541Y0058126D03*
X0044753Y0062457D03*
X0045541Y0066787D03*
X0045541Y0071118D03*
D16*
X0025667Y0190000D03*
X0135667Y0190000D03*
D17*
X0145667Y0190000D03*
X0155667Y0190000D03*
X0165667Y0190000D03*
X0175667Y0190000D03*
X0185667Y0190000D03*
X0075667Y0190000D03*
X0065667Y0190000D03*
X0055667Y0190000D03*
X0045667Y0190000D03*
X0035667Y0190000D03*
D18*
X0019667Y0155346D03*
X0019667Y0148654D03*
X0020667Y0132346D03*
X0020667Y0125654D03*
X0098667Y0099346D03*
X0098667Y0092654D03*
X0113667Y0149654D03*
X0113667Y0156346D03*
X0141667Y0220654D03*
X0141667Y0227346D03*
X0069667Y0227346D03*
X0069667Y0220654D03*
X0185667Y0098346D03*
X0185667Y0091654D03*
X0190667Y0126654D03*
X0190667Y0133346D03*
D19*
X0143013Y0083000D03*
X0136320Y0083000D03*
X0105013Y0108000D03*
X0098320Y0108000D03*
X0106320Y0132000D03*
X0113013Y0132000D03*
D20*
X0152517Y0217126D03*
X0158816Y0217126D03*
X0158816Y0232874D03*
X0152517Y0232874D03*
X0177517Y0232874D03*
X0183816Y0232874D03*
X0183816Y0217126D03*
X0177517Y0217126D03*
X0058816Y0217126D03*
X0052517Y0217126D03*
X0052517Y0232874D03*
X0058816Y0232874D03*
X0031816Y0232874D03*
X0025517Y0232874D03*
X0025517Y0217126D03*
X0031816Y0217126D03*
D21*
X0096612Y0207402D03*
X0105667Y0207402D03*
X0114722Y0207402D03*
D22*
X0105667Y0182598D03*
D23*
X0120139Y0147717D03*
X0120139Y0139843D03*
X0120139Y0131969D03*
X0120139Y0124094D03*
X0120139Y0116220D03*
X0120139Y0108346D03*
X0120139Y0100472D03*
X0120139Y0092598D03*
X0091194Y0092598D03*
X0091194Y0100472D03*
X0091194Y0108346D03*
X0091194Y0116220D03*
X0091194Y0124094D03*
X0091194Y0131969D03*
X0091194Y0139843D03*
X0091194Y0147717D03*
X0032139Y0147717D03*
X0032139Y0139843D03*
X0032139Y0131969D03*
X0032139Y0124094D03*
X0032139Y0116220D03*
X0032139Y0108346D03*
X0032139Y0100472D03*
X0032139Y0092598D03*
X0179194Y0092598D03*
X0179194Y0100472D03*
X0179194Y0108346D03*
X0179194Y0116220D03*
X0179194Y0124094D03*
X0179194Y0131969D03*
X0179194Y0139843D03*
X0179194Y0147717D03*
D24*
X0124667Y0034000D03*
X0114667Y0034000D03*
X0104667Y0034000D03*
X0094667Y0034000D03*
D25*
X0041667Y0034000D01*
X0038667Y0031000D01*
X0038667Y0045000D01*
X0041202Y0049465D02*
X0020667Y0070000D01*
X0020667Y0094000D01*
X0027139Y0100472D01*
X0032139Y0100472D01*
X0032139Y0092598D02*
X0032139Y0081528D01*
X0032667Y0081000D01*
X0034667Y0074000D02*
X0036667Y0072000D01*
X0038167Y0070500D01*
X0038167Y0064500D01*
X0040210Y0062457D01*
X0044753Y0062457D01*
X0045541Y0066787D02*
X0045753Y0067000D01*
X0051667Y0067000D01*
X0054667Y0070000D01*
X0054667Y0105000D01*
X0051320Y0108346D01*
X0032139Y0108346D01*
X0032360Y0116000D02*
X0032139Y0116220D01*
X0032360Y0116000D02*
X0052667Y0116000D01*
X0057667Y0111000D01*
X0057667Y0063000D01*
X0052793Y0058126D01*
X0045541Y0058126D01*
X0044753Y0053795D02*
X0041871Y0053795D01*
X0025667Y0070000D01*
X0025667Y0086126D01*
X0032139Y0092598D01*
X0038167Y0077500D02*
X0038167Y0070500D01*
X0036667Y0072000D02*
X0036667Y0066000D01*
X0038167Y0077500D02*
X0050667Y0090000D01*
X0072667Y0098000D02*
X0072667Y0064000D01*
X0079667Y0057000D01*
X0110667Y0057000D01*
X0124667Y0043000D01*
X0124667Y0034000D01*
X0128667Y0026000D02*
X0132667Y0030000D01*
X0132667Y0041000D01*
X0123667Y0050000D01*
X0123667Y0074000D01*
X0126667Y0077000D01*
X0139667Y0077000D01*
X0142667Y0080000D01*
X0142667Y0082654D01*
X0143013Y0083000D01*
X0148667Y0083000D01*
X0173667Y0108000D01*
X0178848Y0108000D01*
X0179194Y0108346D01*
X0180415Y0115000D02*
X0179194Y0116220D01*
X0180415Y0115000D02*
X0190667Y0115000D01*
X0195667Y0120000D01*
X0195667Y0210000D01*
X0188541Y0217126D01*
X0183816Y0217126D01*
X0177517Y0217126D02*
X0177517Y0210000D01*
X0170391Y0217126D01*
X0158816Y0217126D01*
X0152517Y0217126D02*
X0152517Y0210000D01*
X0135667Y0210000D01*
X0125667Y0200000D01*
X0125667Y0155000D01*
X0120320Y0149654D01*
X0113667Y0149654D01*
X0118202Y0149654D01*
X0120139Y0147717D01*
X0113667Y0156346D02*
X0113667Y0157000D01*
X0105667Y0165000D01*
X0105667Y0132000D01*
X0106320Y0132000D01*
X0105667Y0132000D02*
X0105667Y0108000D01*
X0105013Y0108000D01*
X0105667Y0108000D02*
X0105667Y0106000D01*
X0105013Y0106654D01*
X0105667Y0106000D02*
X0105667Y0104000D01*
X0117667Y0092000D01*
X0113667Y0088000D01*
X0117667Y0092000D02*
X0119541Y0092000D01*
X0120139Y0092598D01*
X0126722Y0092598D01*
X0136320Y0083000D01*
X0105667Y0090000D02*
X0100667Y0085000D01*
X0085667Y0085000D01*
X0080667Y0090000D01*
X0080667Y0100000D01*
X0032950Y0147717D01*
X0032139Y0147717D01*
X0032139Y0163528D01*
X0010667Y0185000D01*
X0010667Y0215000D01*
X0020667Y0225000D01*
X0044643Y0225000D01*
X0052517Y0217126D01*
X0058667Y0217126D02*
X0058667Y0211000D01*
X0049667Y0211000D01*
X0039667Y0221000D01*
X0028667Y0221000D01*
X0025517Y0217850D01*
X0025517Y0217126D01*
X0031816Y0217126D02*
X0015667Y0200976D01*
X0015667Y0185000D01*
X0030667Y0170000D01*
X0055667Y0170000D01*
X0080667Y0145000D01*
X0080667Y0125000D01*
X0090667Y0115000D01*
X0090667Y0115693D01*
X0091194Y0116220D01*
X0091194Y0108346D02*
X0097974Y0108346D01*
X0098320Y0108000D01*
X0097541Y0100472D02*
X0098667Y0099346D01*
X0097541Y0100472D02*
X0091194Y0100472D01*
X0088793Y0095000D02*
X0085667Y0095000D01*
X0088793Y0095000D02*
X0091194Y0092598D01*
X0098612Y0092598D01*
X0098667Y0092654D01*
X0090848Y0108000D02*
X0091194Y0108346D01*
X0090848Y0108000D02*
X0081667Y0108000D01*
X0060667Y0115000D02*
X0050667Y0125000D01*
X0033045Y0125000D01*
X0032139Y0124094D01*
X0032139Y0131969D02*
X0031761Y0132346D01*
X0020667Y0132346D01*
X0015667Y0130000D02*
X0020013Y0125654D01*
X0020667Y0125654D01*
X0020667Y0120000D01*
X0015667Y0130000D02*
X0015667Y0151346D01*
X0019667Y0155346D01*
X0019667Y0148654D02*
X0031202Y0148654D01*
X0032139Y0147717D01*
X0040667Y0173000D02*
X0056667Y0173000D01*
X0081667Y0148000D01*
X0090911Y0148000D01*
X0091194Y0147717D01*
X0098383Y0147717D01*
X0098667Y0148000D01*
X0102667Y0145000D02*
X0102667Y0152000D01*
X0097667Y0157000D01*
X0078667Y0157000D01*
X0045667Y0190000D01*
X0035667Y0190000D02*
X0035667Y0178000D01*
X0040667Y0173000D01*
X0058816Y0206850D02*
X0075667Y0190000D01*
X0058816Y0206850D02*
X0058816Y0217126D01*
X0058667Y0217126D01*
X0064667Y0220654D02*
X0069667Y0220654D01*
X0074320Y0220654D01*
X0078667Y0225000D01*
X0091887Y0225000D01*
X0091887Y0212126D01*
X0096612Y0207402D01*
X0105667Y0207402D02*
X0105667Y0182598D01*
X0105667Y0165000D01*
X0102667Y0145000D02*
X0097667Y0140000D01*
X0091352Y0140000D01*
X0084667Y0140000D01*
X0091194Y0139843D02*
X0091352Y0140000D01*
X0113013Y0132000D02*
X0120108Y0132000D01*
X0120139Y0131969D01*
X0158667Y0130000D02*
X0177789Y0149122D01*
X0179194Y0147717D01*
X0177789Y0149122D02*
X0145667Y0181244D01*
X0145667Y0190000D01*
X0155667Y0190000D02*
X0155667Y0182000D01*
X0186667Y0151000D01*
X0186667Y0147315D01*
X0179194Y0139843D01*
X0168352Y0129000D01*
X0165667Y0129000D01*
X0158667Y0129000D02*
X0158667Y0130000D01*
X0179194Y0124094D02*
X0188108Y0124094D01*
X0190667Y0126654D01*
X0190667Y0133346D02*
X0190667Y0142000D01*
X0185667Y0100472D02*
X0179194Y0100472D01*
X0179194Y0092598D02*
X0185667Y0092598D01*
X0185667Y0091654D01*
X0185667Y0098346D02*
X0185667Y0100472D01*
X0179194Y0092598D02*
X0179194Y0086472D01*
X0180667Y0085000D01*
X0180667Y0052000D01*
X0169667Y0041000D01*
X0136667Y0041000D01*
X0136667Y0030000D01*
X0127667Y0021000D01*
X0107667Y0021000D01*
X0094667Y0034000D01*
X0094667Y0039000D01*
X0098667Y0043000D01*
X0111667Y0043000D01*
X0114667Y0040000D01*
X0114667Y0034000D01*
X0109667Y0026000D02*
X0128667Y0026000D01*
X0109667Y0026000D02*
X0104667Y0031000D01*
X0104667Y0034000D01*
X0060667Y0045000D02*
X0060667Y0115000D01*
X0045541Y0049465D02*
X0041202Y0049465D01*
X0047115Y0045134D02*
X0060533Y0045134D01*
X0060667Y0045000D01*
X0038667Y0031000D02*
X0029667Y0022000D01*
X0180667Y0085000D02*
X0185667Y0080000D01*
X0195667Y0080000D01*
X0200667Y0085000D01*
X0200667Y0215000D01*
X0190667Y0225000D01*
X0185391Y0225000D01*
X0177517Y0217126D01*
X0177517Y0210000D02*
X0177517Y0198150D01*
X0185667Y0190000D01*
X0146667Y0222000D02*
X0146667Y0231000D01*
X0137667Y0240000D01*
X0073667Y0240000D01*
X0064667Y0231000D01*
X0064667Y0220654D01*
X0069667Y0227346D02*
X0069667Y0231000D01*
X0074667Y0236000D01*
X0119446Y0236000D01*
X0119446Y0225000D01*
X0119446Y0212126D01*
X0114722Y0207402D01*
X0119446Y0236000D02*
X0136667Y0236000D01*
X0141667Y0231000D01*
X0141667Y0227346D01*
X0141667Y0220654D02*
X0145320Y0220654D01*
X0146667Y0222000D01*
D26*
X0098667Y0148000D03*
X0084667Y0140000D03*
X0081667Y0108000D03*
X0072667Y0098000D03*
X0085667Y0095000D03*
X0105667Y0090000D03*
X0113667Y0088000D03*
X0158667Y0129000D03*
X0165667Y0129000D03*
X0190667Y0142000D03*
X0050667Y0090000D03*
X0032667Y0081000D03*
X0036667Y0066000D03*
X0038667Y0045000D03*
X0020667Y0120000D03*
M02*
